{"glyphs":{"0":{"ha":757,"x_min":36,"x_max":721,"o":"m 378 -22 q 229 13 293 -22 q 122 109 165 47 q 58 258 79 171 q 36 449 36 344 q 58 633 36 550 q 122 776 79 717 q 230 867 165 835 q 379 900 294 900 q 528 867 464 900 q 635 776 592 835 q 699 633 678 717 q 721 449 721 550 q 699 258 721 344 q 635 109 678 171 q 527 13 592 47 q 378 -22 463 -22 m 379 128 q 455 153 422 128 q 509 221 488 178 q 542 322 531 264 q 553 449 553 381 q 542 569 553 514 q 508 665 531 625 q 453 726 486 704 q 378 749 421 749 q 302 726 335 749 q 248 665 269 704 q 215 569 226 625 q 204 449 204 514 q 215 322 204 381 q 249 221 226 264 q 303 153 271 178 q 379 128 336 128 z "},"1":{"ha":757,"x_min":96,"x_max":640,"o":"m 182 143 l 332 143 l 332 696 l 164 607 l 96 735 l 353 875 l 496 875 l 496 143 l 640 143 l 640 0 l 182 0 l 182 143 z "},"2":{"ha":757,"x_min":60,"x_max":650,"o":"m 88 110 q 108 218 88 169 q 160 308 128 267 q 231 383 192 349 q 308 451 269 418 q 377 508 347 485 q 428 553 407 532 q 459 597 449 575 q 469 649 469 619 q 463 686 469 667 q 442 720 457 706 q 404 744 428 735 q 344 754 381 754 q 287 744 313 754 q 241 719 261 735 q 206 686 221 704 q 182 651 192 668 l 60 739 q 101 795 76 767 q 163 847 126 824 q 247 885 199 871 q 358 900 296 900 q 488 880 433 900 q 576 826 542 860 q 628 751 611 793 q 644 664 644 708 q 629 576 644 617 q 589 501 614 536 q 532 436 564 467 q 467 378 500 406 q 391 317 426 344 q 329 263 356 289 q 288 209 303 236 q 272 149 272 182 l 650 149 l 650 0 l 88 0 l 88 110 z "},"3":{"ha":757,"x_min":29,"x_max":647,"o":"m 124 192 q 206 138 161 158 q 310 118 251 118 q 429 159 385 118 q 474 267 474 200 q 466 322 474 296 q 440 366 458 347 q 393 396 422 385 q 322 407 364 407 q 282 403 303 407 q 244 394 261 399 l 196 472 l 419 724 l 92 724 l 92 874 l 615 874 l 615 749 l 421 521 q 592 438 538 507 q 647 265 647 368 q 622 143 647 197 q 550 51 596 89 q 443 -6 504 14 q 311 -25 382 -25 q 147 3 217 -25 q 29 76 78 32 l 124 192 z "},"4":{"ha":757,"x_min":56,"x_max":692,"o":"m 56 306 l 438 875 l 601 875 l 601 307 l 692 307 l 692 168 l 601 168 l 601 0 l 444 0 l 444 168 l 56 168 l 56 306 m 444 307 l 444 644 l 214 307 l 444 307 z "},"5":{"ha":757,"x_min":33,"x_max":650,"o":"m 125 193 q 206 140 163 160 q 315 121 249 121 q 391 134 360 121 q 442 170 422 147 q 472 222 463 193 q 481 283 481 251 q 473 330 481 304 q 446 378 465 356 q 392 415 426 400 q 307 431 358 431 q 232 422 260 431 q 181 404 204 413 l 97 468 l 185 874 l 639 874 l 639 721 l 303 721 l 268 553 q 301 561 278 557 q 358 565 325 565 q 476 546 422 565 q 568 491 529 526 q 628 404 607 456 q 650 290 650 353 q 632 172 650 229 q 573 72 614 115 q 466 1 532 28 q 306 -25 400 -25 q 147 3 213 -25 q 33 75 82 31 l 125 193 z "},"6":{"ha":757,"x_min":78,"x_max":699,"o":"m 614 713 q 572 733 596 724 q 525 749 553 742 q 464 756 497 756 q 374 734 414 756 q 304 677 333 713 q 259 597 275 642 q 243 506 243 553 q 317 545 274 524 q 426 567 360 567 q 537 547 486 567 q 623 491 588 528 q 678 401 658 454 q 699 281 699 349 q 679 164 699 219 q 622 67 660 108 q 528 0 585 25 q 400 -25 472 -25 q 272 0 331 -25 q 169 78 213 25 q 102 212 126 131 q 78 406 78 293 q 103 605 78 514 q 176 762 128 696 q 297 864 225 828 q 465 900 369 900 q 538 894 504 900 q 599 878 571 888 q 649 860 628 869 q 685 842 671 850 l 614 713 m 242 374 q 254 251 242 300 q 288 172 267 201 q 339 131 310 143 q 400 118 368 118 q 505 165 465 118 q 544 286 544 211 q 508 388 544 350 q 411 426 471 426 q 308 408 349 426 q 242 374 267 390 z "},"7":{"ha":757,"x_min":90,"x_max":657,"o":"m 176 0 q 247 201 206 93 q 333 409 289 308 q 419 593 378 510 q 489 721 461 676 l 90 721 l 90 875 l 657 875 l 657 728 q 613 649 639 699 q 558 535 588 599 q 499 401 529 472 q 442 258 469 329 q 391 119 414 186 q 354 0 368 53 l 176 0 z "},"8":{"ha":757,"x_min":50,"x_max":708,"o":"m 379 543 q 468 595 435 558 q 501 672 501 632 q 467 748 501 718 q 379 778 433 778 q 292 747 328 778 q 257 668 257 717 q 290 595 257 632 q 379 543 324 558 m 376 408 q 315 387 344 401 q 265 352 286 372 q 230 306 243 332 q 217 250 217 279 q 231 187 217 213 q 269 144 246 161 q 322 120 293 128 q 379 113 351 113 q 436 120 407 113 q 489 144 465 128 q 527 187 513 161 q 542 250 542 213 q 528 306 542 279 q 491 352 514 332 q 438 387 468 372 q 376 408 408 401 m 213 485 q 136 559 169 510 q 103 668 103 608 q 123 763 103 719 q 179 836 143 806 q 266 883 215 867 q 379 900 317 900 q 499 883 447 900 q 585 837 550 867 q 638 765 619 807 q 656 675 656 724 q 621 562 656 610 q 542 490 586 514 q 665 395 621 457 q 708 249 708 333 q 690 156 708 204 q 633 69 672 108 q 531 3 593 29 q 379 -22 468 -22 q 226 3 289 -22 q 124 67 164 28 q 67 153 85 106 q 50 246 50 201 q 94 392 50 331 q 213 485 139 453 z "},"9":{"ha":757,"x_min":57,"x_max":683,"o":"m 144 168 q 196 144 168 154 q 251 129 219 136 q 315 122 282 122 q 402 142 365 122 q 465 197 439 163 q 503 274 490 231 q 518 365 517 318 q 452 326 496 347 q 331 306 408 306 q 219 328 269 306 q 133 391 169 351 q 77 483 97 431 q 57 594 57 535 q 77 711 57 656 q 136 808 97 767 q 231 875 175 850 q 361 900 288 900 q 490 875 431 900 q 592 797 549 850 q 659 663 635 744 q 683 469 683 582 q 661 273 683 363 q 593 117 639 183 q 478 15 547 51 q 313 -22 408 -22 q 238 -16 274 -22 q 171 -1 201 -10 q 116 18 140 8 q 78 36 92 28 l 144 168 m 519 501 q 507 624 519 575 q 473 703 494 674 q 422 744 451 732 q 361 757 393 757 q 253 713 296 757 q 211 593 211 668 q 249 492 211 532 q 353 451 288 451 q 458 468 421 451 q 519 501 494 485 z "},"\u0000":{"ha":0,"x_min":0,"x_max":0,"o":""},"\b":{"ha":0,"x_min":0,"x_max":0,"o":""},"\u001d":{"ha":0,"x_min":0,"x_max":0,"o":""},"\t":{"ha":251,"x_min":0,"x_max":0,"o":""},"\r":{"ha":251,"x_min":0,"x_max":0,"o":""}," ":{"ha":251,"x_min":0,"x_max":0,"o":""},"!":{"ha":388,"x_min":94,"x_max":293,"o":"m 103 926 l 285 926 l 282 290 l 106 290 l 103 926 m 94 192 l 293 192 l 293 0 l 94 0 l 94 192 z "},"\"":{"ha":539,"x_min":74,"x_max":465,"o":"m 74 926 l 229 926 l 229 604 l 74 604 l 74 926 m 310 926 l 465 926 l 465 604 l 310 604 l 310 926 z "},"#":{"ha":1035,"x_min":94,"x_max":940,"o":"m 224 210 l 94 210 l 94 339 l 258 339 l 311 536 l 179 536 l 179 665 l 346 665 l 401 874 l 549 874 l 493 665 l 664 665 l 719 874 l 867 874 l 811 665 l 940 665 l 940 536 l 776 536 l 724 339 l 856 339 l 856 210 l 689 210 l 633 0 l 486 0 l 542 210 l 371 210 l 315 0 l 168 0 l 224 210 m 576 339 l 629 536 l 458 536 l 406 339 l 576 339 z "},"$":{"ha":757,"x_min":18,"x_max":703,"o":"m 135 251 q 169 215 150 235 q 214 178 189 196 q 268 146 239 160 q 333 126 297 132 l 333 382 q 322 385 326 385 q 310 388 317 385 q 197 432 243 406 q 121 490 150 458 q 78 560 92 522 q 65 642 65 599 q 81 729 65 688 q 131 803 97 771 q 215 858 164 836 q 333 885 265 879 l 333 1013 l 438 1013 l 438 885 q 538 861 496 878 q 608 826 579 844 q 653 789 636 807 q 678 763 669 771 l 563 658 q 521 698 551 671 q 438 739 490 725 l 438 511 q 538 478 489 499 q 622 426 586 458 q 681 347 658 393 q 703 238 703 300 q 683 142 703 186 q 628 66 664 99 q 544 12 593 33 q 438 -18 496 -10 l 438 -147 l 333 -147 l 333 -21 q 224 2 274 -15 q 135 43 175 19 q 67 93 96 67 q 18 144 38 119 l 135 251 m 438 129 q 518 167 493 139 q 543 242 543 194 q 522 304 543 278 q 438 353 501 331 l 438 129 m 333 744 q 247 708 272 736 q 222 642 222 679 q 246 578 222 601 q 333 535 269 554 l 333 744 z "},"%":{"ha":1285,"x_min":71,"x_max":1214,"o":"m 846 875 l 994 875 l 431 0 l 282 0 l 846 875 m 292 396 q 133 459 196 396 q 71 647 71 522 q 133 835 71 772 q 292 899 196 899 q 450 835 388 899 q 513 647 513 772 q 450 459 513 522 q 292 396 388 396 m 292 506 q 322 513 307 506 q 349 536 338 519 q 369 580 361 553 q 376 647 376 607 q 369 715 376 688 q 349 758 361 742 q 322 782 338 775 q 292 789 307 789 q 261 782 276 789 q 234 758 246 775 q 215 715 222 742 q 207 647 207 688 q 215 580 207 607 q 234 536 222 553 q 261 513 246 519 q 292 506 276 506 m 993 -12 q 835 51 897 -12 q 772 239 772 114 q 835 427 772 364 q 993 490 897 490 q 1151 427 1089 490 q 1214 239 1214 364 q 1151 51 1214 114 q 993 -12 1089 -12 m 993 97 q 1024 104 1008 97 q 1051 128 1039 111 q 1070 172 1063 144 q 1078 239 1078 199 q 1070 306 1078 279 q 1051 350 1063 333 q 1024 374 1039 367 q 993 381 1008 381 q 963 374 978 381 q 935 350 947 367 q 916 306 924 333 q 908 239 908 279 q 916 172 908 199 q 935 128 924 144 q 963 104 947 111 q 993 97 978 97 z "},"&":{"ha":893,"x_min":38,"x_max":878,"o":"m 596 85 q 490 8 551 39 q 339 -22 429 -22 q 207 -1 264 -22 q 113 57 150 21 q 56 142 75 93 q 38 243 38 190 q 78 392 38 321 q 219 536 118 464 l 217 540 q 165 628 181 583 q 149 721 149 674 q 166 808 149 767 q 217 882 183 850 q 301 933 251 914 q 414 951 350 951 q 515 935 474 951 q 586 896 557 919 q 633 845 615 872 q 663 796 651 818 l 540 718 q 478 792 506 775 q 424 808 450 808 q 349 783 375 808 q 322 721 322 758 q 339 659 322 689 q 381 601 356 629 l 603 332 l 722 478 l 844 379 l 704 208 l 878 0 l 667 0 l 596 85 m 314 422 q 230 337 251 375 q 208 253 208 299 q 242 166 208 200 q 347 132 276 132 q 432 153 397 132 q 496 206 467 174 l 314 422 z "},"'":{"ha":303,"x_min":74,"x_max":229,"o":"m 74 926 l 229 926 l 229 604 l 74 604 l 74 926 z "},"(":{"ha":413,"x_min":81,"x_max":374,"o":"m 213 -129 q 173 -45 196 -97 q 130 77 150 7 q 95 235 110 147 q 81 425 81 322 q 95 615 81 528 q 130 774 110 703 q 173 897 150 844 q 213 981 196 949 l 374 981 q 328 881 350 940 q 290 748 307 821 q 264 592 274 675 q 254 425 254 510 q 264 258 254 340 q 290 103 274 176 q 328 -30 307 31 q 374 -129 350 -90 l 213 -129 z "},")":{"ha":413,"x_min":39,"x_max":332,"o":"m 39 -129 q 83 -30 61 -90 q 121 103 104 31 q 148 258 138 176 q 158 425 158 340 q 148 592 158 510 q 121 748 138 675 q 83 881 104 821 q 39 981 61 940 l 200 981 q 240 897 217 949 q 283 774 263 844 q 317 615 303 703 q 332 425 332 528 q 317 235 332 322 q 283 77 303 147 q 240 -45 263 7 q 200 -129 217 -97 l 39 -129 z "},"*":{"ha":696,"x_min":81,"x_max":615,"o":"m 81 639 l 235 719 l 81 800 l 144 911 l 292 818 l 285 992 l 413 992 l 407 818 l 551 911 l 615 800 l 464 719 l 615 639 l 551 528 l 407 621 l 413 447 l 285 447 l 292 621 l 144 528 l 81 639 z "},"+":{"ha":757,"x_min":103,"x_max":656,"o":"m 103 515 l 310 515 l 310 719 l 449 719 l 449 515 l 656 515 l 656 378 l 449 378 l 449 175 l 310 175 l 310 378 l 103 378 l 103 515 z "},",":{"ha":388,"x_min":92,"x_max":307,"o":"m 179 0 l 108 0 l 108 193 l 307 193 l 307 3 l 189 -199 l 92 -199 l 179 0 z "},"-":{"ha":613,"x_min":94,"x_max":518,"o":"m 94 465 l 518 465 l 518 310 l 94 310 l 94 465 z "},".":{"ha":388,"x_min":94,"x_max":293,"o":"m 94 192 l 293 192 l 293 0 l 94 0 l 94 192 z "},"/":{"ha":592,"x_min":32,"x_max":560,"o":"m 401 951 l 560 951 l 194 -22 l 32 -22 l 401 951 z "},":":{"ha":388,"x_min":94,"x_max":293,"o":"m 94 192 l 293 192 l 293 0 l 94 0 l 94 192 m 94 651 l 293 651 l 293 460 l 94 460 l 94 651 z "},";":{"ha":388,"x_min":79,"x_max":294,"o":"m 167 0 l 96 0 l 96 193 l 294 193 l 294 3 l 176 -199 l 79 -199 l 167 0 m 94 651 l 293 651 l 293 460 l 94 460 l 94 651 z "},"<":{"ha":757,"x_min":99,"x_max":654,"o":"m 99 496 l 594 764 l 654 646 l 283 446 l 654 246 l 594 128 l 99 396 l 99 496 z "},"=":{"ha":757,"x_min":103,"x_max":656,"o":"m 103 631 l 656 631 l 656 493 l 103 493 l 103 631 m 103 399 l 656 399 l 656 261 l 103 261 l 103 399 z "},">":{"ha":757,"x_min":103,"x_max":658,"o":"m 103 246 l 474 446 l 103 646 l 163 764 l 658 496 l 658 396 l 163 128 l 103 246 z "},"?":{"ha":711,"x_min":53,"x_max":638,"o":"m 215 192 l 414 192 l 414 0 l 215 0 l 215 192 m 231 321 q 234 377 231 347 q 249 438 238 407 q 283 500 260 469 q 346 558 306 531 q 390 590 368 574 q 431 625 413 607 q 460 663 449 643 q 471 706 471 682 q 439 774 471 747 q 350 801 407 801 q 281 790 313 801 q 224 765 249 779 q 184 737 200 751 q 161 717 168 722 l 53 814 q 81 846 60 824 q 138 891 101 868 q 227 932 174 914 q 351 950 281 950 q 472 931 419 950 q 562 878 525 911 q 618 801 599 844 q 638 710 638 757 q 607 583 638 632 q 515 490 576 535 q 463 451 485 468 q 426 416 440 435 q 404 375 411 397 q 397 321 397 353 l 397 290 l 231 290 l 231 321 z "},"@":{"ha":1331,"x_min":60,"x_max":1271,"o":"m 799 294 q 750 297 774 296 q 709 299 731 299 q 672 300 688 300 q 562 269 599 300 q 525 197 525 238 q 557 132 525 156 q 647 108 589 108 q 703 118 676 108 q 751 144 731 128 q 785 183 772 161 q 799 231 799 206 l 799 294 m 253 -25 q 187 35 221 -3 q 124 126 153 74 q 78 242 96 178 q 60 383 60 307 q 111 637 60 529 q 248 815 163 744 q 442 919 333 885 q 668 954 551 954 q 905 921 794 954 q 1097 820 1015 888 q 1224 651 1178 753 q 1271 410 1271 549 q 1239 198 1271 282 q 1161 65 1207 114 q 1063 -3 1115 17 q 968 -22 1010 -22 q 882 -3 921 -22 q 825 61 843 17 q 768 19 796 35 q 712 -6 740 3 q 652 -19 683 -15 q 583 -22 621 -22 q 516 -10 553 -22 q 447 29 479 3 q 394 96 415 56 q 372 190 372 136 q 393 290 372 246 q 451 363 414 333 q 542 408 489 393 q 658 424 594 424 q 701 423 678 424 q 747 421 725 422 q 799 418 772 419 l 799 433 q 762 510 799 482 q 667 538 725 538 q 549 519 592 538 q 474 481 506 501 l 399 592 q 446 623 421 608 q 504 649 471 638 q 581 667 538 660 q 686 674 625 674 q 796 656 746 674 q 881 608 846 639 q 936 533 917 576 q 956 438 956 489 l 956 165 q 967 131 956 144 q 999 118 979 118 q 1039 133 1017 118 q 1080 183 1061 149 q 1112 276 1099 218 q 1125 417 1125 333 q 1085 604 1125 526 q 981 731 1046 682 q 832 801 915 779 q 661 824 749 824 q 508 801 588 824 q 363 727 428 778 q 255 595 297 676 q 213 396 213 514 q 226 276 213 329 q 261 184 240 224 q 306 117 282 144 q 349 74 329 89 l 253 -25 z "},"A":{"ha":897,"x_min":7,"x_max":890,"o":"m 358 926 l 539 926 l 890 0 l 696 0 l 615 235 l 271 235 l 190 0 l 7 0 l 358 926 m 565 379 l 443 739 l 319 379 l 565 379 z "},"B":{"ha":828,"x_min":97,"x_max":761,"o":"m 97 926 l 415 926 q 545 908 489 926 q 639 856 601 889 q 696 780 676 824 q 715 685 715 736 q 697 600 715 636 q 655 540 679 564 q 606 503 631 515 q 568 492 582 492 q 626 476 593 489 q 690 438 660 464 q 740 369 719 411 q 761 265 761 326 q 735 140 761 190 q 662 58 708 89 q 552 13 615 26 q 415 0 489 0 l 97 0 l 97 926 m 407 557 q 458 563 433 557 q 503 582 483 568 q 535 617 524 596 q 547 669 547 638 q 535 722 547 701 q 502 756 522 743 q 457 773 482 768 q 407 778 432 778 l 265 778 l 265 557 l 407 557 m 414 149 q 469 152 439 149 q 525 169 499 156 q 569 208 551 182 q 588 278 588 233 q 570 345 588 319 q 527 385 553 371 q 471 406 501 400 q 414 411 440 411 l 265 411 l 265 149 l 414 149 z "},"C":{"ha":944,"x_min":61,"x_max":913,"o":"m 913 169 q 855 104 892 138 q 768 42 818 71 q 658 -4 718 14 q 532 -22 599 -22 q 342 14 428 -22 q 193 115 256 50 q 96 267 131 179 q 61 458 61 354 q 96 649 61 560 q 194 804 131 738 q 344 910 257 871 q 538 949 432 949 q 663 934 606 949 q 766 894 719 919 q 849 835 813 869 q 913 763 885 801 l 789 653 q 685 756 744 717 q 538 794 626 794 q 415 767 469 794 q 323 695 361 740 q 265 590 285 650 q 244 463 244 529 q 265 338 244 396 q 322 236 285 279 q 412 168 360 193 q 529 143 464 143 q 631 157 589 143 q 703 192 674 171 q 753 235 733 213 q 790 275 774 258 l 913 169 z "},"D":{"ha":1008,"x_min":97,"x_max":935,"o":"m 97 926 l 443 926 q 642 899 551 926 q 797 814 732 871 q 899 668 863 757 q 935 458 935 579 q 898 258 935 343 q 795 115 861 172 q 639 28 729 57 q 442 0 549 0 l 97 0 l 97 926 m 426 156 q 668 232 585 156 q 751 456 751 308 q 674 686 751 601 q 426 771 597 771 l 272 771 l 272 156 l 426 156 z "},"E":{"ha":789,"x_min":97,"x_max":729,"o":"m 97 926 l 697 926 l 697 772 l 272 772 l 272 554 l 585 554 l 585 399 l 272 399 l 272 157 l 729 157 l 729 0 l 97 0 l 97 926 z "},"F":{"ha":742,"x_min":97,"x_max":696,"o":"m 97 926 l 696 926 l 696 772 l 272 772 l 272 532 l 589 532 l 589 376 l 272 376 l 272 0 l 97 0 l 97 926 z "},"G":{"ha":1004,"x_min":61,"x_max":917,"o":"m 585 490 l 917 490 l 917 107 q 774 17 863 56 q 546 -22 685 -22 q 342 15 432 -22 q 190 117 253 53 q 94 269 128 182 q 61 458 61 357 q 96 649 61 560 q 194 804 131 738 q 344 910 257 871 q 538 949 432 949 q 663 934 606 949 q 766 894 719 919 q 849 835 813 869 q 913 763 885 801 l 789 653 q 685 756 744 717 q 538 794 626 794 q 415 767 469 794 q 323 695 361 740 q 265 590 285 650 q 244 463 244 529 q 269 328 244 388 q 335 225 293 268 q 434 159 378 182 q 553 136 490 136 q 750 197 681 136 l 750 342 l 585 342 l 585 490 z "},"H":{"ha":1004,"x_min":97,"x_max":907,"o":"m 97 926 l 272 926 l 272 554 l 732 554 l 732 926 l 907 926 l 907 0 l 732 0 l 732 399 l 272 399 l 272 0 l 97 0 l 97 926 z "},"I":{"ha":369,"x_min":97,"x_max":272,"o":"m 97 926 l 272 926 l 272 0 l 97 0 l 97 926 z "},"J":{"ha":706,"x_min":14,"x_max":615,"o":"m 136 218 q 218 153 181 169 q 304 138 256 138 q 353 147 329 138 q 397 174 378 156 q 428 219 417 192 q 440 282 440 246 l 440 926 l 615 926 l 615 272 q 588 132 615 189 q 518 40 561 75 q 421 -10 475 6 q 313 -25 367 -25 q 134 9 204 -25 q 14 107 64 43 l 136 218 z "},"K":{"ha":863,"x_min":97,"x_max":851,"o":"m 97 926 l 272 926 l 272 546 l 615 926 l 814 926 l 472 547 l 851 0 l 640 0 l 358 421 l 272 325 l 272 0 l 97 0 l 97 926 z "},"L":{"ha":768,"x_min":97,"x_max":729,"o":"m 97 926 l 272 926 l 272 156 l 729 156 l 729 0 l 97 0 l 97 926 z "},"M":{"ha":1096,"x_min":86,"x_max":1010,"o":"m 131 926 l 293 926 l 550 489 l 803 926 l 965 926 l 1010 0 l 839 0 l 808 642 l 586 264 l 504 264 l 281 632 l 250 0 l 86 0 l 131 926 z "},"N":{"ha":990,"x_min":97,"x_max":893,"o":"m 97 926 l 274 926 l 722 268 l 722 926 l 893 926 l 893 0 l 721 0 l 268 667 l 268 0 l 97 0 l 97 926 z "},"O":{"ha":1086,"x_min":61,"x_max":1025,"o":"m 543 -25 q 354 13 442 -25 q 201 118 267 51 q 99 274 136 185 q 61 464 61 363 q 99 654 61 565 q 201 809 136 743 q 353 913 265 875 q 543 951 442 951 q 732 913 644 951 q 885 809 819 875 q 988 654 950 743 q 1025 464 1025 565 q 988 274 1025 363 q 885 118 950 185 q 732 13 819 51 q 543 -25 644 -25 m 543 140 q 667 167 611 140 q 761 238 722 193 q 821 343 800 283 q 842 468 842 403 q 821 594 842 535 q 761 697 800 653 q 667 767 722 742 q 543 793 611 793 q 419 767 474 793 q 325 697 364 742 q 265 594 286 653 q 244 468 244 535 q 265 343 244 403 q 325 238 286 283 q 419 167 364 193 q 543 140 474 140 z "},"P":{"ha":775,"x_min":97,"x_max":715,"o":"m 97 926 l 394 926 q 553 897 492 926 q 651 823 615 867 q 701 729 688 779 q 715 638 715 679 q 688 504 715 560 q 615 413 660 449 q 515 361 571 378 q 406 344 460 344 l 265 344 l 265 0 l 97 0 l 97 926 m 392 492 q 498 531 458 492 q 538 632 538 569 q 496 738 538 697 q 392 779 454 779 l 265 779 l 265 492 l 392 492 z "},"Q":{"ha":1086,"x_min":61,"x_max":1025,"o":"m 761 26 q 657 -11 713 3 q 543 -25 601 -25 q 354 13 442 -25 q 201 118 267 51 q 99 274 136 185 q 61 464 61 363 q 99 654 61 565 q 201 809 136 743 q 353 913 265 875 q 543 951 442 951 q 732 913 644 951 q 885 809 819 875 q 988 654 950 743 q 1025 464 1025 565 q 984 265 1025 357 q 872 106 943 174 l 976 -28 l 872 -115 l 761 26 m 550 297 l 654 385 l 764 243 q 822 345 801 288 q 842 468 842 403 q 821 594 842 535 q 761 697 800 653 q 667 767 722 742 q 543 793 611 793 q 419 767 474 793 q 325 697 364 742 q 265 594 286 653 q 244 468 244 535 q 265 343 244 403 q 325 238 286 283 q 419 167 364 193 q 543 140 474 140 q 656 161 603 140 l 550 297 z "},"R":{"ha":814,"x_min":97,"x_max":782,"o":"m 97 926 l 404 926 q 553 900 492 926 q 651 833 614 874 q 706 743 689 792 q 724 650 724 694 q 685 495 724 563 q 568 388 647 428 l 782 0 l 585 0 l 397 365 l 265 365 l 265 0 l 97 0 l 97 926 m 406 510 q 509 549 472 510 q 546 643 546 588 q 507 740 546 703 q 406 778 468 778 l 265 778 l 265 510 l 406 510 z "},"S":{"ha":824,"x_min":43,"x_max":736,"o":"m 165 261 q 205 220 182 242 q 256 180 228 199 q 320 149 285 161 q 400 136 356 136 q 522 174 482 136 q 561 264 561 211 q 550 316 561 293 q 513 356 539 339 q 444 388 486 374 q 339 414 401 401 q 228 453 275 426 q 151 515 182 479 q 106 595 121 551 q 90 685 90 639 q 110 785 90 738 q 169 870 129 833 q 270 929 210 907 q 413 951 331 951 q 539 935 486 951 q 627 896 592 918 q 682 852 663 874 q 710 821 701 831 l 594 713 q 572 733 588 718 q 534 761 557 747 q 479 786 511 775 q 407 797 447 797 q 344 788 371 797 q 301 763 318 778 q 275 728 283 747 q 267 693 267 710 q 276 649 267 668 q 306 613 285 629 q 365 583 328 596 q 460 558 403 569 q 564 525 514 547 q 652 467 614 503 q 713 381 690 432 q 736 260 736 331 q 711 147 736 199 q 642 57 686 96 q 536 -3 597 18 q 403 -25 475 -25 q 277 -8 333 -25 q 176 34 221 8 q 98 90 131 60 q 43 149 65 121 l 165 261 z "},"T":{"ha":867,"x_min":32,"x_max":835,"o":"m 346 772 l 32 772 l 32 926 l 835 926 l 835 772 l 521 772 l 521 0 l 346 0 l 346 772 z "},"U":{"ha":936,"x_min":90,"x_max":846,"o":"m 90 926 l 265 926 l 265 372 q 276 277 265 319 q 310 205 286 235 q 372 159 333 175 q 468 143 411 143 q 564 159 525 143 q 626 205 603 175 q 660 277 650 235 q 671 372 671 319 l 671 926 l 846 926 l 846 342 q 821 197 846 264 q 747 81 796 131 q 628 3 699 32 q 468 -25 558 -25 q 308 3 378 -25 q 189 81 238 32 q 115 197 140 131 q 90 342 90 264 l 90 926 z "},"V":{"ha":883,"x_min":7,"x_max":876,"o":"m 7 926 l 201 926 l 447 219 l 693 926 l 876 926 l 532 0 l 351 0 l 7 926 z "},"W":{"ha":1222,"x_min":14,"x_max":1208,"o":"m 14 926 l 206 926 l 357 233 l 536 900 l 694 900 l 875 233 l 1025 926 l 1208 926 l 965 0 l 782 0 l 610 613 l 435 0 l 254 0 l 14 926 z "},"X":{"ha":840,"x_min":7,"x_max":833,"o":"m 315 479 l 19 926 l 231 926 l 424 624 l 610 926 l 800 926 l 515 483 l 833 0 l 622 0 l 408 338 l 197 0 l 7 0 l 315 479 z "},"Y":{"ha":833,"x_min":7,"x_max":826,"o":"m 328 407 l 7 926 l 199 926 l 421 557 l 643 926 l 826 926 l 506 407 l 506 0 l 328 0 l 328 407 z "},"Z":{"ha":914,"x_min":74,"x_max":840,"o":"m 74 153 l 619 772 l 99 772 l 99 926 l 829 926 l 829 772 l 294 153 l 840 153 l 840 0 l 74 0 l 74 153 z "},"[":{"ha":458,"x_min":101,"x_max":426,"o":"m 101 981 l 426 981 l 426 835 l 265 835 l 265 19 l 426 19 l 426 -129 l 101 -129 l 101 981 z "},"\\":{"ha":592,"x_min":32,"x_max":560,"o":"m 32 951 l 190 951 l 560 -22 l 397 -22 l 32 951 z "},"]":{"ha":458,"x_min":32,"x_max":357,"o":"m 32 19 l 193 19 l 193 835 l 32 835 l 32 981 l 357 981 l 357 -129 l 32 -129 l 32 19 z "},"^":{"ha":781,"x_min":74,"x_max":707,"o":"m 314 926 l 467 926 l 707 428 l 544 428 l 390 768 l 236 428 l 74 428 l 314 926 z "},"_":{"ha":694,"x_min":0,"x_max":694,"o":"m 0 -90 l 694 -90 l 694 -167 l 0 -167 l 0 -90 z "},"`":{"ha":697,"x_min":200,"x_max":442,"o":"m 200 947 l 375 947 l 442 750 l 310 750 l 200 947 z "},"a":{"ha":700,"x_min":39,"x_max":622,"o":"m 465 61 q 385 4 439 29 q 264 -21 331 -21 q 184 -8 224 -21 q 112 30 144 4 q 59 96 79 56 q 39 190 39 136 q 60 290 39 246 q 118 363 81 333 q 208 408 156 393 q 325 424 261 424 q 368 423 344 424 q 414 421 392 422 q 465 418 439 419 l 465 433 q 426 510 465 482 q 325 538 388 538 q 214 519 256 538 q 140 481 172 501 l 65 592 q 110 620 85 606 q 168 647 135 635 q 245 666 201 658 q 347 674 289 674 q 460 656 410 674 q 547 608 511 639 q 603 533 583 576 q 622 438 622 489 l 622 0 l 469 0 l 465 61 m 465 294 q 417 297 440 296 q 376 299 397 299 q 339 300 354 300 q 228 269 260 300 q 196 197 196 238 q 226 132 196 156 q 314 108 256 108 q 370 118 343 108 q 418 144 397 128 q 452 183 439 161 q 465 231 465 206 l 465 294 z "},"b":{"ha":771,"x_min":81,"x_max":721,"o":"m 81 926 l 244 926 l 244 607 q 308 644 261 624 q 422 665 356 665 q 548 639 493 665 q 642 568 603 613 q 701 463 681 524 q 721 333 721 401 q 695 195 721 260 q 622 83 669 131 q 506 6 574 35 q 353 -22 438 -22 q 197 -8 268 -22 q 81 21 125 6 l 81 926 m 244 133 q 285 123 264 126 q 350 119 306 119 q 438 137 400 119 q 501 183 475 154 q 541 251 528 213 q 554 329 554 289 q 545 401 554 367 q 517 463 536 436 q 467 506 497 490 q 396 522 438 522 q 283 484 321 522 q 244 379 244 446 l 244 133 z "},"c":{"ha":683,"x_min":50,"x_max":656,"o":"m 654 86 q 546 8 608 38 q 400 -21 483 -21 q 251 4 317 -21 q 142 75 186 29 q 74 185 97 121 q 50 326 50 249 q 76 460 50 397 q 147 571 101 524 q 258 646 193 618 q 400 674 322 674 q 544 645 479 674 q 656 568 610 617 l 551 463 q 486 513 524 494 q 400 531 449 531 q 318 513 353 531 q 260 468 283 496 q 226 403 238 440 q 215 326 215 365 q 226 253 215 289 q 260 188 238 217 q 318 140 283 158 q 400 122 353 122 q 489 141 449 122 q 557 192 529 160 l 654 86 z "},"d":{"ha":774,"x_min":50,"x_max":693,"o":"m 531 64 q 500 35 518 50 q 458 7 482 19 q 403 -14 433 -6 q 336 -22 374 -22 q 232 0 283 -22 q 140 65 181 22 q 75 171 100 108 q 50 314 50 233 q 72 448 50 390 q 128 546 94 506 q 189 601 156 579 q 256 638 222 624 q 322 659 290 653 q 378 665 354 665 q 431 663 410 665 q 468 658 451 661 q 499 649 485 654 q 531 636 513 643 l 531 926 l 693 926 l 693 0 l 535 0 l 531 64 m 531 489 q 476 516 507 508 q 396 524 444 524 q 315 505 347 524 q 260 456 283 486 q 227 391 239 428 q 215 314 215 354 q 257 175 215 231 q 378 119 299 119 q 449 135 419 119 q 496 176 478 151 q 522 231 514 201 q 531 289 531 261 l 531 489 z "},"e":{"ha":747,"x_min":50,"x_max":701,"o":"m 693 94 q 670 72 689 90 q 616 32 651 53 q 526 -6 581 11 q 394 -22 471 -22 q 253 4 317 -22 q 144 77 189 31 q 74 189 99 124 q 50 333 50 254 q 74 467 50 406 q 142 575 99 529 q 247 647 186 621 q 381 674 307 674 q 531 641 469 674 q 631 556 593 608 q 685 436 668 503 q 701 300 701 369 l 701 276 l 215 276 q 231 211 215 240 q 273 161 247 182 q 331 129 299 140 q 396 118 364 118 q 478 127 443 118 q 539 148 514 136 q 580 173 564 160 q 604 194 596 186 l 693 94 m 533 394 q 524 444 533 419 q 495 490 514 469 q 447 523 476 510 q 381 536 418 536 q 309 523 340 536 q 257 490 278 510 q 225 444 236 469 q 214 394 214 419 l 533 394 z "},"f":{"ha":472,"x_min":18,"x_max":574,"o":"m 129 518 l 18 518 l 18 651 l 129 651 l 129 692 q 151 812 129 763 q 208 892 174 861 q 286 938 243 924 q 371 951 329 951 q 469 939 415 951 q 574 883 524 926 l 497 775 q 449 800 475 790 q 397 810 424 810 q 320 778 349 810 q 292 689 292 747 l 292 651 l 460 651 l 460 518 l 293 518 l 293 0 l 129 0 l 129 518 z "},"g":{"ha":771,"x_min":50,"x_max":690,"o":"m 186 -106 q 270 -144 225 -132 q 376 -156 315 -156 q 483 -117 440 -156 q 526 -8 526 -78 l 526 63 q 453 17 493 35 q 349 0 414 0 q 223 24 278 0 q 129 90 168 47 q 70 190 90 132 q 50 317 50 247 q 76 453 50 389 q 149 564 101 517 q 265 638 197 611 q 418 665 333 665 q 574 651 503 665 q 690 622 646 638 l 690 -11 q 667 -132 690 -79 q 601 -221 643 -185 q 503 -276 560 -257 q 379 -294 446 -294 q 288 -290 328 -294 q 217 -276 249 -285 q 160 -256 186 -268 q 113 -226 135 -243 l 186 -106 m 526 510 q 486 520 507 517 q 421 524 465 524 q 333 507 371 524 q 269 463 296 490 q 230 398 243 435 q 217 321 217 361 q 254 194 217 246 q 375 143 292 143 q 488 175 450 143 q 526 276 526 207 l 526 510 z "},"h":{"ha":765,"x_min":81,"x_max":688,"o":"m 81 926 l 242 926 l 242 585 q 315 639 267 613 q 438 665 363 665 q 544 646 497 665 q 623 591 592 626 q 671 506 654 556 q 688 396 688 456 l 688 0 l 524 0 l 524 394 q 490 491 524 457 q 401 525 456 525 q 339 512 368 525 q 289 475 310 499 q 256 420 268 451 q 244 353 244 389 l 244 0 l 81 0 l 81 926 z "},"i":{"ha":339,"x_min":82,"x_max":257,"o":"m 82 926 l 257 926 l 257 754 l 82 754 l 82 926 m 88 651 l 251 651 l 251 0 l 88 0 l 88 651 z "},"j":{"ha":339,"x_min":-121,"x_max":256,"o":"m 81 926 l 256 926 l 256 754 l 81 754 l 81 926 m -60 -115 q -29 -130 -47 -122 q 15 -137 -11 -137 q 67 -111 47 -137 q 88 -33 88 -85 l 88 651 l 251 651 l 251 -1 q 244 -99 251 -50 q 213 -187 236 -147 q 149 -253 190 -228 q 38 -278 107 -278 q -59 -260 -21 -278 q -121 -226 -97 -243 l -60 -115 z "},"k":{"ha":711,"x_min":81,"x_max":700,"o":"m 81 926 l 244 926 l 244 421 l 479 651 l 672 651 l 428 411 l 700 0 l 504 0 l 315 300 l 244 231 l 244 0 l 81 0 l 81 926 z "},"l":{"ha":325,"x_min":81,"x_max":244,"o":"m 81 926 l 244 926 l 244 0 l 81 0 l 81 926 z "},"m":{"ha":1183,"x_min":81,"x_max":1106,"o":"m 81 651 l 238 651 l 242 578 q 270 608 254 592 q 309 636 286 624 q 362 657 332 649 q 431 665 392 665 q 626 571 560 665 q 728 644 676 622 q 850 665 781 665 q 1040 592 974 665 q 1106 396 1106 519 l 1106 0 l 942 0 l 942 394 q 910 491 942 457 q 825 525 879 525 q 764 512 792 525 q 716 475 736 499 q 685 420 696 451 q 675 353 675 389 l 675 0 l 511 0 l 511 394 q 480 491 511 457 q 394 525 449 525 q 333 512 361 525 q 285 475 306 499 q 255 420 265 451 q 244 353 244 389 l 244 0 l 81 0 l 81 651 z "},"n":{"ha":765,"x_min":81,"x_max":688,"o":"m 81 651 l 238 651 l 242 578 q 272 607 254 592 q 313 635 289 622 q 368 657 338 649 q 438 665 399 665 q 624 592 560 665 q 688 396 688 519 l 688 0 l 524 0 l 524 394 q 490 491 524 457 q 401 525 456 525 q 339 512 368 525 q 289 475 310 499 q 256 420 268 451 q 244 353 244 389 l 244 0 l 81 0 l 81 651 z "},"o":{"ha":800,"x_min":50,"x_max":750,"o":"m 50 326 q 76 460 50 397 q 147 571 101 524 q 258 646 193 618 q 400 674 322 674 q 542 646 478 674 q 653 571 607 618 q 724 460 699 524 q 750 326 750 397 q 724 192 750 256 q 653 81 699 129 q 542 6 607 33 q 400 -22 478 -22 q 258 6 322 -22 q 147 81 193 33 q 76 192 101 129 q 50 326 50 256 m 400 119 q 482 138 447 119 q 540 188 517 157 q 574 254 563 218 q 585 326 585 290 q 574 398 585 361 q 540 465 563 435 q 482 513 517 494 q 400 532 447 532 q 318 513 353 532 q 260 465 283 494 q 226 398 238 435 q 215 326 215 361 q 226 254 215 290 q 260 188 238 218 q 318 138 283 157 q 400 119 353 119 z "},"p":{"ha":793,"x_min":81,"x_max":743,"o":"m 81 651 l 239 651 l 243 578 q 274 607 256 592 q 319 635 293 622 q 377 656 344 647 q 450 664 410 664 q 580 635 525 664 q 671 558 635 606 q 725 449 707 510 q 743 322 743 388 q 721 192 743 246 q 665 97 699 138 q 544 4 610 31 q 408 -22 478 -22 q 353 -19 376 -22 q 312 -12 331 -17 q 277 -1 293 -7 q 243 13 261 6 l 243 -278 l 81 -278 l 81 651 m 243 160 q 390 119 292 119 q 469 137 435 119 q 528 183 504 154 q 565 247 553 211 q 578 322 578 283 q 569 400 578 364 q 540 463 560 436 q 488 506 519 490 q 408 522 456 522 q 340 506 371 522 q 288 465 310 490 q 255 410 267 440 q 243 353 243 381 l 243 160 z "},"q":{"ha":771,"x_min":50,"x_max":690,"o":"m 526 38 q 466 -2 507 18 q 364 -22 425 -22 q 229 5 288 -22 q 131 78 171 32 q 71 186 92 125 q 50 317 50 247 q 76 453 50 389 q 149 564 101 517 q 265 638 197 611 q 418 665 333 665 q 574 651 503 665 q 690 622 646 638 l 690 -278 l 526 -278 l 526 38 m 526 510 q 486 520 507 517 q 421 524 465 524 q 328 508 367 524 q 265 465 289 492 q 228 400 240 438 q 217 321 217 363 q 226 247 217 283 q 254 183 235 211 q 303 138 274 156 q 375 121 333 121 q 488 154 450 121 q 526 271 526 188 l 526 510 z "},"r":{"ha":531,"x_min":81,"x_max":518,"o":"m 81 651 l 238 651 l 242 569 q 270 600 253 583 q 311 631 288 617 q 366 654 335 644 q 438 664 397 664 q 480 661 461 664 q 518 651 499 658 l 485 497 q 451 507 468 504 q 410 510 433 510 q 346 499 376 510 q 293 467 315 488 q 258 417 271 446 q 244 351 244 388 l 244 0 l 81 0 l 81 651 z "},"s":{"ha":664,"x_min":49,"x_max":611,"o":"m 147 186 q 224 135 178 156 q 331 115 271 115 q 415 129 383 115 q 447 175 447 143 q 442 201 447 189 q 418 224 436 213 q 368 246 400 235 q 282 269 336 257 q 213 292 249 278 q 145 330 176 306 q 94 388 114 354 q 74 469 74 422 q 97 556 74 518 q 159 620 121 594 q 245 660 197 646 q 342 674 293 674 q 488 656 428 674 q 597 601 549 638 l 513 486 q 443 522 486 506 q 342 538 400 538 q 260 520 283 538 q 238 478 238 503 q 276 430 238 447 q 394 393 314 413 q 484 365 444 382 q 552 324 524 349 q 596 265 581 299 q 611 183 611 231 q 589 98 611 136 q 528 33 567 60 q 440 -8 490 7 q 332 -22 389 -22 q 167 3 240 -22 q 49 79 93 29 l 147 186 z "},"t":{"ha":558,"x_min":25,"x_max":554,"o":"m 136 518 l 25 518 l 25 651 l 136 651 l 136 863 l 300 863 l 300 651 l 475 651 l 475 518 l 300 518 l 300 233 q 319 148 300 178 q 379 118 338 118 q 441 129 418 118 q 485 156 464 140 l 554 54 q 458 -3 506 14 q 353 -21 411 -21 q 251 -3 293 -21 q 184 46 210 14 q 147 123 158 78 q 136 222 136 168 l 136 518 z "},"u":{"ha":765,"x_min":78,"x_max":685,"o":"m 78 651 l 242 651 l 242 257 q 276 160 242 194 q 364 126 310 126 q 426 140 397 126 q 476 176 456 153 q 509 231 497 200 q 521 299 521 263 l 521 651 l 685 651 l 685 0 l 528 0 l 524 74 q 493 44 511 60 q 451 16 475 29 q 397 -6 428 3 q 328 -14 367 -14 q 142 59 206 -14 q 78 256 78 132 l 78 651 z "},"v":{"ha":732,"x_min":7,"x_max":725,"o":"m 7 651 l 196 651 l 371 185 l 546 651 l 725 651 l 450 0 l 283 0 l 7 651 z "},"w":{"ha":1040,"x_min":13,"x_max":1028,"o":"m 13 651 l 193 651 l 318 199 l 456 651 l 593 651 l 732 199 l 856 651 l 1028 651 l 807 0 l 649 0 l 515 393 l 386 0 l 233 0 l 13 651 z "},"x":{"ha":704,"x_min":7,"x_max":697,"o":"m 254 329 l 18 651 l 225 651 l 356 463 l 488 651 l 672 651 l 443 346 l 697 0 l 490 0 l 342 213 l 192 0 l 7 0 l 254 329 z "},"y":{"ha":732,"x_min":7,"x_max":725,"o":"m 107 -129 q 138 -151 121 -140 q 179 -161 154 -161 q 234 -133 213 -161 q 279 -47 256 -106 l 300 6 l 7 651 l 196 651 l 382 206 l 546 651 l 725 651 l 453 0 q 414 -100 433 -49 q 366 -195 394 -151 q 296 -267 338 -239 q 190 -294 254 -294 q 98 -281 135 -294 q 33 -244 61 -268 l 107 -129 z "},"z":{"ha":656,"x_min":64,"x_max":600,"o":"m 64 125 l 396 514 l 74 514 l 74 651 l 600 651 l 600 524 l 257 133 l 600 133 l 600 0 l 64 0 l 64 125 z "},"{":{"ha":422,"x_min":43,"x_max":404,"o":"m 144 276 q 119 349 142 319 q 43 378 96 378 l 43 475 q 119 504 96 475 q 144 576 142 533 l 164 813 q 185 914 169 874 q 232 981 200 954 l 404 981 q 360 912 379 956 q 338 828 340 868 l 315 557 q 284 472 311 507 q 218 426 257 438 q 284 381 257 415 q 315 296 311 346 l 338 25 q 360 -60 340 -15 q 404 -129 379 -104 l 232 -129 q 185 -62 200 -103 q 164 40 169 -21 l 144 276 z "},"|":{"ha":340,"x_min":94,"x_max":246,"o":"m 94 1157 l 246 1157 l 246 -228 l 94 -228 l 94 1157 z "},"}":{"ha":422,"x_min":18,"x_max":379,"o":"m 18 -129 q 63 -60 43 -104 q 85 25 82 -15 l 107 296 q 138 381 111 346 q 204 426 165 415 q 138 472 165 438 q 107 557 111 507 l 85 828 q 63 912 82 868 q 18 981 43 956 l 190 981 q 238 914 222 954 q 258 813 253 874 l 278 576 q 303 504 281 533 q 379 475 326 475 l 379 378 q 303 349 326 378 q 278 276 281 319 l 258 40 q 238 -62 253 -21 q 190 -129 222 -103 l 18 -129 z "},"~":{"ha":693,"x_min":53,"x_max":640,"o":"m 53 436 q 85 466 65 450 q 128 495 104 482 q 179 517 151 508 q 238 526 207 526 q 293 517 269 526 q 338 494 317 507 q 383 472 360 482 q 436 463 406 463 q 482 469 461 463 q 519 483 503 475 q 547 501 535 492 q 571 518 560 511 l 640 413 q 609 382 628 399 q 567 351 590 365 q 515 328 543 338 q 457 319 488 319 q 401 330 425 319 q 356 353 378 340 q 310 376 333 365 q 257 386 288 386 q 174 366 206 386 q 122 331 143 346 l 53 436 z "},"€":{"ha":757,"x_min":46,"x_max":757,"o":"m 78 389 l 154 389 q 153 417 153 403 q 153 446 153 431 q 153 472 153 460 q 154 499 153 485 l 46 499 l 78 601 l 169 601 q 216 722 186 667 q 289 817 246 776 q 388 879 332 857 q 513 901 443 901 q 654 873 597 901 q 757 800 711 844 l 669 689 q 603 735 638 721 q 517 750 569 750 q 401 709 444 750 q 339 601 358 668 l 601 601 l 569 499 l 321 499 q 319 472 319 485 q 319 446 319 460 q 319 417 319 431 q 321 389 319 403 l 588 389 l 556 286 l 340 286 q 403 179 360 219 q 517 139 446 139 q 603 153 569 139 q 669 200 638 168 l 757 89 q 654 16 711 44 q 513 -12 597 -12 q 388 10 444 -12 q 290 72 332 32 q 217 166 247 111 q 171 286 188 221 l 46 286 l 78 389 z "},"₺":{"ha":757,"x_min":17,"x_max":725,"o":"m 60 265 l 17 358 l 143 417 l 143 525 l 60 486 l 17 579 l 143 638 l 143 875 l 306 875 l 306 714 l 471 790 l 514 697 l 306 600 l 306 493 l 471 569 l 514 476 l 306 379 l 306 149 q 485 218 422 151 q 575 397 547 285 l 725 358 q 571 90 685 181 q 294 0 457 0 l 143 0 l 143 304 l 60 265 z "},"‚":{"ha":393,"x_min":94,"x_max":313,"o":"m 125 193 l 313 193 l 218 -100 l 94 -100 l 125 193 z "},"ƒ":{"ha":757,"x_min":-103,"x_max":775,"o":"m -14 -85 q 33 -115 8 -106 q 81 -124 58 -124 q 154 -101 128 -124 q 194 -3 181 -78 l 269 408 l 149 408 l 149 544 l 294 544 l 313 646 q 342 748 322 701 q 394 828 363 794 q 473 881 426 863 q 583 900 519 900 q 691 883 643 900 q 775 826 739 867 l 689 708 q 640 738 665 729 q 592 747 614 747 q 518 724 544 747 q 478 625 492 700 l 463 544 l 601 544 l 601 408 l 438 408 l 360 -24 q 329 -126 349 -79 q 276 -206 310 -172 q 196 -259 243 -240 q 82 -278 149 -278 q 44 -275 67 -278 q -3 -265 22 -272 q -53 -244 -28 -257 q -103 -211 -79 -231 l -14 -85 z "},"„":{"ha":661,"x_min":94,"x_max":581,"o":"m 125 193 l 313 193 l 218 -100 l 94 -100 l 125 193 m 393 193 l 581 193 l 486 -100 l 363 -100 l 393 193 z "},"…":{"ha":1101,"x_min":92,"x_max":1011,"o":"m 451 192 l 650 192 l 650 0 l 451 0 l 451 192 m 813 192 l 1011 192 l 1011 0 l 813 0 l 813 192 m 92 192 l 290 192 l 290 0 l 92 0 l 92 192 z "},"†":{"ha":735,"x_min":81,"x_max":654,"o":"m 288 532 l 81 532 l 81 665 l 288 665 l 288 926 l 447 926 l 447 665 l 654 665 l 654 532 l 447 532 l 447 -168 l 288 -168 l 288 532 z "},"‡":{"ha":749,"x_min":88,"x_max":661,"o":"m 294 93 l 88 93 l 88 226 l 294 226 l 294 532 l 88 532 l 88 665 l 294 665 l 294 926 l 454 926 l 454 665 l 661 665 l 661 532 l 454 532 l 454 226 l 661 226 l 661 93 l 454 93 l 454 -168 l 294 -168 l 294 93 z "},"ˆ":{"ha":624,"x_min":90,"x_max":533,"o":"m 235 947 l 389 947 l 533 750 l 389 750 l 311 856 l 235 750 l 90 750 l 235 947 z "},"‰":{"ha":1814,"x_min":71,"x_max":1743,"o":"m 846 875 l 994 875 l 431 0 l 282 0 l 846 875 m 292 396 q 133 459 196 396 q 71 647 71 522 q 133 835 71 772 q 292 899 196 899 q 450 835 388 899 q 513 647 513 772 q 450 459 513 522 q 292 396 388 396 m 292 506 q 322 513 307 506 q 349 536 338 519 q 369 580 361 553 q 376 647 376 607 q 369 715 376 688 q 349 758 361 742 q 322 782 338 775 q 292 789 307 789 q 261 782 276 789 q 234 758 246 775 q 215 715 222 742 q 207 647 207 688 q 215 580 207 607 q 234 536 222 553 q 261 513 246 519 q 292 506 276 506 m 993 -12 q 835 51 897 -12 q 772 239 772 114 q 835 427 772 364 q 993 490 897 490 q 1151 427 1089 490 q 1214 239 1214 364 q 1151 51 1214 114 q 993 -12 1089 -12 m 993 97 q 1024 104 1008 97 q 1051 128 1039 111 q 1070 172 1063 144 q 1078 239 1078 199 q 1070 306 1078 279 q 1051 350 1063 333 q 1024 374 1039 367 q 993 381 1008 381 q 963 374 978 381 q 935 350 947 367 q 916 306 924 333 q 908 239 908 279 q 916 172 908 199 q 935 128 924 144 q 963 104 947 111 q 993 97 978 97 m 1522 -12 q 1364 51 1426 -12 q 1301 239 1301 114 q 1364 427 1301 364 q 1522 490 1426 490 q 1681 427 1618 490 q 1743 239 1743 364 q 1681 51 1743 114 q 1522 -12 1618 -12 m 1522 97 q 1553 104 1538 97 q 1580 128 1568 111 q 1599 172 1592 144 q 1607 239 1607 199 q 1599 306 1607 279 q 1580 350 1592 333 q 1553 374 1568 367 q 1522 381 1538 381 q 1492 374 1507 381 q 1465 350 1476 367 q 1445 306 1453 333 q 1438 239 1438 279 q 1445 172 1438 199 q 1465 128 1453 144 q 1492 104 1476 111 q 1522 97 1507 97 z "},"Š":{"ha":824,"x_min":43,"x_max":736,"o":"m 165 261 q 205 220 182 242 q 256 180 228 199 q 320 149 285 161 q 400 136 356 136 q 522 174 482 136 q 561 264 561 211 q 550 316 561 293 q 513 356 539 339 q 444 388 486 374 q 339 414 401 401 q 228 453 275 426 q 151 515 182 479 q 106 595 121 551 q 90 685 90 639 q 110 785 90 738 q 169 870 129 833 q 270 929 210 907 q 413 951 331 951 q 539 935 486 951 q 627 896 592 918 q 682 852 663 874 q 710 821 701 831 l 594 713 q 572 733 588 718 q 534 761 557 747 q 479 786 511 775 q 407 797 447 797 q 344 788 371 797 q 301 763 318 778 q 275 728 283 747 q 267 693 267 710 q 276 649 267 668 q 306 613 285 629 q 365 583 328 596 q 460 558 403 569 q 564 525 514 547 q 652 467 614 503 q 713 381 690 432 q 736 260 736 331 q 711 147 736 199 q 642 57 686 96 q 536 -3 597 18 q 403 -25 475 -25 q 277 -8 333 -25 q 176 34 221 8 q 98 90 131 60 q 43 149 65 121 l 165 261 m 185 1213 l 329 1213 l 415 1099 l 500 1213 l 644 1213 l 492 996 l 338 996 l 185 1213 z "},"‹":{"ha":472,"x_min":81,"x_max":385,"o":"m 81 335 l 225 604 l 385 604 l 247 335 l 385 65 l 225 65 l 81 335 z "},"Œ":{"ha":1533,"x_min":61,"x_max":1474,"o":"m 842 115 q 787 58 819 83 q 715 14 754 32 q 629 -15 675 -4 q 535 -25 583 -25 q 350 13 436 -25 q 199 118 264 51 q 98 274 135 185 q 61 464 61 363 q 98 654 61 565 q 199 809 135 743 q 350 913 264 875 q 535 951 436 951 q 716 913 635 951 q 842 814 797 874 l 842 926 l 1442 926 l 1442 772 l 1011 772 l 1011 554 l 1329 554 l 1329 399 l 1011 399 l 1011 157 l 1474 157 l 1474 0 l 842 0 l 842 115 m 543 140 q 666 167 611 140 q 760 238 721 193 q 819 343 799 283 q 840 468 840 403 q 819 594 840 535 q 760 697 799 653 q 665 767 721 742 q 542 793 610 793 q 417 767 472 793 q 324 697 363 742 q 264 594 285 653 q 243 468 243 535 q 264 343 243 403 q 324 238 285 283 q 419 167 364 193 q 543 140 474 140 z "},"‘":{"ha":372,"x_min":67,"x_max":285,"o":"m 161 925 l 285 925 l 254 632 l 67 632 l 161 925 z "},"’":{"ha":372,"x_min":88,"x_max":306,"o":"m 118 925 l 306 925 l 211 632 l 88 632 l 118 925 z "},"“":{"ha":636,"x_min":67,"x_max":549,"o":"m 161 925 l 285 925 l 254 632 l 67 632 l 161 925 m 425 925 l 549 925 l 518 632 l 331 632 l 425 925 z "},"”":{"ha":636,"x_min":88,"x_max":569,"o":"m 118 925 l 306 925 l 211 632 l 88 632 l 118 925 m 382 925 l 569 925 l 475 632 l 351 632 l 382 925 z "},"•":{"ha":608,"x_min":115,"x_max":493,"o":"m 115 476 q 130 550 115 515 q 170 610 144 585 q 231 651 196 636 q 304 665 265 665 q 378 651 343 665 q 438 610 413 636 q 478 550 464 585 q 493 476 493 515 q 478 403 493 438 q 438 342 464 368 q 378 302 413 317 q 304 288 343 288 q 231 302 265 288 q 170 342 196 317 q 130 403 144 368 q 115 476 115 438 z "},"–":{"ha":694,"x_min":0,"x_max":694,"o":"m 0 467 l 694 467 l 694 311 l 0 311 l 0 467 z "},"—":{"ha":1389,"x_min":0,"x_max":1389,"o":"m 0 467 l 1389 467 l 1389 311 l 0 311 l 0 467 z "},"˜":{"ha":642,"x_min":53,"x_max":585,"o":"m 53 854 q 81 881 64 867 q 120 906 99 894 q 167 926 142 918 q 221 935 193 935 q 271 926 250 935 q 311 906 292 917 q 351 887 331 896 q 400 878 372 878 q 475 896 447 878 q 522 928 503 914 l 585 831 q 556 803 574 818 q 518 776 539 789 q 472 756 497 764 q 418 747 446 747 q 367 756 389 747 q 326 777 346 765 q 286 798 307 789 q 238 807 265 807 q 163 789 190 807 q 115 757 135 771 l 53 854 z "},"™":{"ha":1196,"x_min":46,"x_max":1139,"o":"m 601 926 l 713 926 l 860 700 l 1004 926 l 1122 926 l 1139 394 l 1018 394 l 1008 740 l 879 529 l 835 529 l 711 726 l 701 394 l 585 394 l 601 926 m 224 811 l 46 811 l 46 926 l 535 926 l 535 811 l 357 811 l 357 394 l 224 394 l 224 811 z "},"š":{"ha":664,"x_min":49,"x_max":611,"o":"m 147 186 q 224 135 178 156 q 331 115 271 115 q 415 129 383 115 q 447 175 447 143 q 442 201 447 189 q 418 224 436 213 q 368 246 400 235 q 282 269 336 257 q 213 292 249 278 q 145 330 176 306 q 94 388 114 354 q 74 469 74 422 q 97 556 74 518 q 159 620 121 594 q 245 660 197 646 q 342 674 293 674 q 488 656 428 674 q 597 601 549 638 l 513 486 q 443 522 486 506 q 342 538 400 538 q 260 520 283 538 q 238 478 238 503 q 276 430 238 447 q 394 393 314 413 q 484 365 444 382 q 552 324 524 349 q 596 265 581 299 q 611 183 611 231 q 589 98 611 136 q 528 33 567 60 q 440 -8 490 7 q 332 -22 389 -22 q 167 3 240 -22 q 49 79 93 29 l 147 186 m 132 947 l 276 947 l 354 842 l 431 947 l 575 947 l 431 750 l 276 750 l 132 947 z "},"›":{"ha":472,"x_min":88,"x_max":392,"o":"m 225 335 l 88 604 l 247 604 l 392 335 l 247 65 l 88 65 l 225 335 z "},"œ":{"ha":1281,"x_min":50,"x_max":1235,"o":"m 1226 94 q 1203 72 1222 90 q 1149 32 1185 53 q 1059 -6 1114 11 q 928 -22 1004 -22 q 774 11 842 -22 q 661 107 707 44 q 551 13 619 49 q 400 -22 482 -22 q 258 6 322 -22 q 147 81 193 33 q 76 192 101 129 q 50 326 50 256 q 76 460 50 397 q 147 571 101 524 q 258 646 193 618 q 400 674 322 674 q 548 639 481 674 q 658 549 615 604 q 767 641 703 608 q 914 674 832 674 q 1065 641 1003 674 q 1164 556 1126 608 q 1218 436 1201 503 q 1235 300 1235 369 l 1235 276 l 749 276 q 765 211 749 240 q 806 161 781 182 q 865 129 832 140 q 929 118 897 118 q 1012 127 976 118 q 1072 148 1047 136 q 1113 173 1097 160 q 1138 194 1129 186 l 1226 94 m 1067 394 q 1057 444 1067 419 q 1028 490 1047 469 q 981 523 1010 510 q 914 536 951 536 q 842 523 874 536 q 790 490 811 510 q 758 444 769 469 q 747 394 747 419 l 1067 394 m 400 119 q 482 138 447 119 q 540 188 517 157 q 574 254 563 218 q 585 326 585 290 q 574 398 585 361 q 540 465 563 435 q 482 513 517 494 q 400 532 447 532 q 318 513 353 532 q 260 465 283 494 q 226 398 238 435 q 215 326 215 361 q 226 254 215 290 q 260 188 238 218 q 318 138 283 157 q 400 119 353 119 z "},"Ÿ":{"ha":833,"x_min":7,"x_max":826,"o":"m 328 407 l 7 926 l 199 926 l 421 557 l 643 926 l 826 926 l 506 407 l 506 0 l 328 0 l 328 407 m 482 1186 l 653 1186 l 653 1024 l 482 1024 l 482 1186 m 186 1186 l 357 1186 l 357 1024 l 186 1024 l 186 1186 z "}," ":{"ha":251,"x_min":0,"x_max":0,"o":""},"¡":{"ha":388,"x_min":94,"x_max":293,"o":"m 106 361 l 282 361 l 285 -275 l 103 -275 l 106 361 m 94 651 l 293 651 l 293 460 l 94 460 l 94 651 z "},"¢":{"ha":757,"x_min":100,"x_max":706,"o":"m 385 93 q 264 133 317 103 q 174 208 211 163 q 119 311 138 253 q 100 436 100 369 q 120 556 100 499 q 178 659 140 614 q 267 735 215 704 q 385 778 319 767 l 385 901 l 489 901 l 489 781 q 610 747 556 774 q 706 678 665 721 l 601 572 q 551 615 579 597 q 489 639 524 632 l 489 235 q 607 301 561 247 l 704 196 q 610 124 664 151 q 489 90 557 97 l 489 -26 l 385 -26 l 385 93 m 385 629 q 294 550 324 606 q 265 436 265 494 q 273 381 265 410 q 295 326 281 353 q 332 278 310 300 q 385 243 354 256 l 385 629 z "},"£":{"ha":757,"x_min":57,"x_max":718,"o":"m 163 374 l 57 374 l 57 507 l 163 507 l 163 614 q 175 701 163 651 q 220 795 188 751 q 310 869 253 839 q 457 900 367 900 q 551 889 511 900 q 622 863 592 878 q 673 828 651 847 q 710 796 694 810 l 603 681 q 573 708 588 696 q 542 728 558 719 q 506 741 526 736 q 460 746 486 746 q 403 732 426 746 q 365 694 379 718 q 344 641 350 671 q 338 581 338 611 l 338 507 l 607 507 l 607 374 l 338 374 l 338 156 l 718 156 l 718 0 l 163 0 l 163 374 z "},"¤":{"ha":757,"x_min":44,"x_max":711,"o":"m 132 314 q 93 457 93 379 q 132 600 93 533 l 44 689 l 140 785 l 228 697 q 298 730 260 718 q 378 742 336 742 q 456 730 418 742 q 528 697 494 718 l 615 785 l 711 689 l 622 600 q 652 532 642 568 q 663 457 663 496 q 652 381 663 417 q 622 314 642 346 l 711 225 l 615 129 l 528 215 q 378 172 458 172 q 228 215 294 172 l 140 129 l 44 225 l 132 314 m 226 457 q 238 398 226 425 q 271 350 250 371 q 319 317 292 329 q 378 306 346 306 q 436 317 408 306 q 485 350 464 329 q 517 398 506 371 q 529 457 529 425 q 517 515 529 488 q 485 564 506 543 q 436 597 464 585 q 378 608 408 608 q 319 597 346 608 q 271 564 292 585 q 238 515 250 543 q 226 457 226 488 z "},"¥":{"ha":757,"x_min":8,"x_max":749,"o":"m 103 264 l 296 264 l 296 371 l 103 371 l 103 474 l 238 474 l 8 876 l 200 876 l 383 507 l 565 876 l 749 876 l 519 474 l 669 474 l 669 371 l 463 371 l 463 264 l 669 264 l 669 161 l 463 161 l 463 0 l 296 0 l 296 161 l 103 161 l 103 264 z "},"¦":{"ha":340,"x_min":94,"x_max":246,"o":"m 94 299 l 246 299 l 246 -228 l 94 -228 l 94 299 m 94 1157 l 246 1157 l 246 631 l 94 631 l 94 1157 z "},"§":{"ha":628,"x_min":50,"x_max":564,"o":"m 196 454 q 94 560 126 499 q 63 688 61 622 q 80 785 63 738 q 131 870 97 833 q 216 929 165 907 q 332 951 267 951 q 401 942 369 951 q 459 921 433 933 q 504 895 485 908 q 535 874 524 882 l 456 754 q 392 791 419 779 q 329 803 364 803 q 284 794 304 803 q 251 771 264 785 q 230 739 238 757 q 222 704 222 721 q 224 674 222 689 q 234 645 226 660 q 256 616 242 631 q 296 585 271 601 l 564 403 l 475 271 l 196 454 m 158 -97 q 222 -134 194 -122 q 285 -146 250 -146 q 330 -137 310 -146 q 363 -114 350 -128 q 384 -82 376 -100 q 392 -47 392 -64 q 380 11 392 -17 q 318 72 368 39 l 50 254 l 139 386 l 418 203 q 520 97 488 158 q 551 -31 553 35 q 534 -128 551 -81 q 483 -213 517 -176 q 398 -272 449 -250 q 282 -294 347 -294 q 213 -285 244 -294 q 155 -264 181 -276 q 110 -238 129 -251 q 79 -217 90 -225 l 158 -97 z "},"¨":{"ha":481,"x_min":31,"x_max":447,"o":"m 288 925 l 447 925 l 447 774 l 288 774 l 288 925 m 31 925 l 190 925 l 190 774 l 31 774 l 31 925 z "},"©":{"ha":1124,"x_min":81,"x_max":1043,"o":"m 561 -19 q 372 18 460 -19 q 220 122 285 56 q 118 276 156 188 q 81 465 81 364 q 118 655 81 567 q 220 808 156 743 q 373 912 285 874 q 563 950 461 950 q 751 912 664 950 q 903 808 839 874 q 1006 655 968 743 q 1043 465 1043 567 q 1006 276 1043 364 q 903 122 968 188 q 750 18 838 56 q 561 -19 663 -19 m 561 96 q 703 124 638 96 q 816 202 768 153 q 891 319 864 251 q 918 465 918 386 q 891 610 918 543 q 816 728 864 678 q 703 806 768 778 q 563 835 638 835 q 421 806 486 835 q 308 728 356 778 q 232 610 260 678 q 204 465 204 543 q 231 319 204 386 q 306 202 258 251 q 419 124 354 153 q 561 96 485 96 m 781 315 q 694 237 749 269 q 569 204 640 204 q 461 224 510 204 q 378 280 413 244 q 324 364 343 315 q 306 469 306 413 q 325 572 306 524 q 380 655 344 619 q 463 711 415 690 q 569 732 511 732 q 694 699 640 732 q 781 621 749 667 l 690 551 q 645 596 674 575 q 576 617 617 617 q 473 574 511 617 q 435 468 435 531 q 445 413 435 439 q 474 366 456 386 q 519 334 493 346 q 576 322 544 322 q 645 343 617 322 q 690 388 674 364 l 781 315 z "},"ª":{"ha":526,"x_min":54,"x_max":450,"o":"m 67 842 q 143 884 101 868 q 258 900 185 900 q 398 854 346 900 q 450 736 450 808 l 450 447 l 338 447 q 336 460 336 454 q 335 471 336 465 q 335 482 335 476 q 284 451 318 465 q 218 436 250 436 q 158 444 188 436 q 106 469 129 451 q 69 513 83 486 q 54 578 54 540 q 108 691 54 656 q 250 726 163 726 q 335 722 286 726 l 335 733 q 316 780 335 761 q 254 799 297 799 q 178 786 206 799 q 125 758 150 774 l 67 842 m 335 631 q 297 634 321 633 q 258 635 274 635 q 188 620 210 635 q 167 582 167 606 q 185 544 167 554 q 242 533 203 533 q 307 556 279 533 q 335 606 335 578 l 335 631 z "},"«":{"ha":744,"x_min":81,"x_max":657,"o":"m 81 335 l 225 604 l 385 604 l 247 335 l 385 65 l 225 65 l 81 335 m 353 335 l 497 604 l 657 604 l 519 335 l 657 65 l 497 65 l 353 335 z "},"¬":{"ha":757,"x_min":103,"x_max":656,"o":"m 103 515 l 656 515 l 656 175 l 517 175 l 517 378 l 103 378 l 103 515 z "},"­":{"ha":613,"x_min":94,"x_max":518,"o":"m 94 465 l 518 465 l 518 310 l 94 310 l 94 465 z "},"®":{"ha":1124,"x_min":81,"x_max":1043,"o":"m 381 710 l 582 710 q 665 696 631 710 q 720 660 699 682 q 751 613 742 639 q 761 565 761 588 q 740 487 761 524 q 674 429 718 450 l 789 231 l 661 231 l 557 413 l 496 413 l 496 231 l 381 231 l 381 710 m 578 501 q 630 517 615 501 q 644 557 644 533 q 629 600 644 585 q 578 615 614 615 l 496 615 l 496 501 l 578 501 m 561 -19 q 372 18 460 -19 q 220 122 285 56 q 118 276 156 188 q 81 465 81 364 q 118 655 81 567 q 220 808 156 743 q 373 912 285 874 q 563 950 461 950 q 751 912 664 950 q 903 808 839 874 q 1006 655 968 743 q 1043 465 1043 567 q 1006 276 1043 364 q 903 122 968 188 q 750 18 838 56 q 561 -19 663 -19 m 561 96 q 703 124 638 96 q 816 202 768 153 q 891 319 864 251 q 918 465 918 386 q 891 610 918 543 q 816 728 864 678 q 703 806 768 778 q 563 835 638 835 q 421 806 486 835 q 308 728 356 778 q 232 610 260 678 q 204 465 204 543 q 231 319 204 386 q 306 202 258 251 q 419 124 354 153 q 561 96 485 96 z "},"¯":{"ha":482,"x_min":60,"x_max":422,"o":"m 60 901 l 422 901 l 422 774 l 60 774 l 60 901 z "},"°":{"ha":468,"x_min":39,"x_max":429,"o":"m 39 736 q 54 813 39 778 q 96 872 69 847 q 158 912 122 897 q 233 926 193 926 q 310 912 275 926 q 372 872 346 897 q 414 813 399 847 q 429 738 429 778 q 414 661 429 696 q 372 601 399 626 q 310 562 346 576 q 235 547 275 547 q 158 562 193 547 q 96 601 122 576 q 54 661 69 626 q 39 736 39 696 m 235 649 q 297 674 272 649 q 321 738 321 699 q 297 800 321 775 q 233 825 272 825 q 172 800 196 825 q 147 736 147 775 q 172 674 147 699 q 235 649 196 649 z "},"±":{"ha":757,"x_min":103,"x_max":656,"o":"m 103 515 l 310 515 l 310 719 l 449 719 l 449 515 l 656 515 l 656 378 l 449 378 l 449 189 l 310 189 l 310 378 l 103 378 l 103 515 m 103 138 l 656 138 l 656 0 l 103 0 l 103 138 z "},"´":{"ha":697,"x_min":293,"x_max":535,"o":"m 360 947 l 535 947 l 425 750 l 293 750 l 360 947 z "},"µ":{"ha":765,"x_min":82,"x_max":689,"o":"m 82 651 l 246 651 l 246 257 q 280 160 246 194 q 368 126 314 126 q 481 173 436 126 q 525 292 525 219 l 525 651 l 689 651 l 689 0 l 532 0 l 528 67 q 458 13 503 39 q 351 -14 414 -14 q 301 -7 324 -14 q 246 19 278 0 l 246 -278 l 82 -278 l 82 651 z "},"¶":{"ha":774,"x_min":53,"x_max":672,"o":"m 503 926 l 672 926 l 672 -169 l 503 -169 l 503 926 m 379 415 q 250 428 310 415 q 147 470 190 440 q 78 549 103 500 q 53 671 53 597 q 78 792 53 743 q 147 872 103 842 q 250 914 190 901 q 379 926 310 926 l 421 926 l 421 415 l 379 415 m 254 354 q 316 343 282 346 q 379 340 350 340 l 421 340 l 421 -169 l 254 -169 l 254 354 z "},"·":{"ha":388,"x_min":94,"x_max":293,"o":"m 94 544 l 293 544 l 293 353 l 94 353 l 94 544 z "},"¸":{"ha":979,"x_min":128,"x_max":451,"o":"m 146 -182 q 196 -195 172 -192 q 242 -199 219 -199 q 322 -154 322 -199 q 305 -125 322 -137 q 247 -112 288 -112 q 201 -117 224 -112 q 160 -128 178 -121 l 175 -35 q 226 -23 200 -28 q 292 -18 251 -18 q 409 -54 367 -18 q 451 -147 451 -90 q 436 -211 451 -183 q 395 -258 421 -239 q 337 -285 369 -276 q 269 -294 304 -294 q 210 -292 236 -294 q 165 -285 185 -289 q 128 -275 143 -281 l 146 -182 z "},"º":{"ha":588,"x_min":60,"x_max":528,"o":"m 60 668 q 77 760 60 718 q 126 834 94 803 q 200 883 157 865 q 294 900 243 900 q 388 883 344 900 q 462 834 431 865 q 510 760 493 803 q 528 668 528 718 q 510 576 528 618 q 462 502 493 533 q 388 453 431 471 q 294 436 344 436 q 200 453 243 436 q 126 502 157 471 q 77 576 94 533 q 60 668 60 618 m 294 547 q 374 583 347 547 q 400 668 400 619 q 374 753 400 717 q 294 789 347 789 q 215 753 242 789 q 188 668 188 717 q 215 583 188 619 q 294 547 242 547 z "},"»":{"ha":744,"x_min":88,"x_max":664,"o":"m 497 335 l 360 604 l 519 604 l 664 335 l 519 65 l 360 65 l 497 335 m 225 335 l 88 604 l 247 604 l 392 335 l 247 65 l 88 65 l 225 335 z "},"¼":{"ha":1285,"x_min":119,"x_max":1172,"o":"m 278 740 l 169 686 l 119 786 l 294 885 l 414 885 l 414 410 l 278 410 l 278 740 m 856 875 l 1004 875 l 440 0 l 292 0 l 856 875 m 743 183 l 982 476 l 1115 476 l 1115 183 l 1172 183 l 1172 85 l 1115 85 l 1115 1 l 994 1 l 994 85 l 743 85 l 743 183 m 994 183 l 994 353 l 851 183 l 994 183 z "},"½":{"ha":1285,"x_min":92,"x_max":1193,"o":"m 250 740 l 142 686 l 92 786 l 267 885 l 386 885 l 386 410 l 250 410 l 250 740 m 828 875 l 976 875 l 413 0 l 264 0 l 828 875 m 821 64 q 838 128 821 100 q 881 181 856 157 q 936 224 906 204 q 992 260 967 243 q 1034 294 1017 278 q 1051 329 1051 311 q 1036 365 1051 354 q 997 375 1021 375 q 928 360 965 375 q 863 326 890 344 l 813 424 q 900 469 847 447 q 1014 490 953 490 q 1149 448 1106 490 q 1192 343 1192 406 q 1168 262 1192 293 q 1111 207 1144 231 q 1040 163 1078 183 q 975 113 1003 142 l 1193 113 l 1193 1 l 821 1 l 821 64 z "},"¾":{"ha":1285,"x_min":97,"x_max":1197,"o":"m 158 549 q 215 517 183 529 q 281 504 246 504 q 335 518 314 504 q 356 561 356 532 q 329 608 356 597 q 264 619 303 619 q 228 617 246 619 q 196 610 210 614 l 174 658 l 321 775 l 136 775 l 136 885 l 469 885 l 469 779 l 363 694 q 462 640 435 681 q 489 547 489 600 q 433 438 489 481 q 282 396 376 396 q 177 412 224 396 q 97 454 131 428 l 158 549 m 881 875 l 1029 875 l 465 0 l 317 0 l 881 875 m 768 183 l 1007 476 l 1140 476 l 1140 183 l 1197 183 l 1197 85 l 1140 85 l 1140 1 l 1019 1 l 1019 85 l 768 85 l 768 183 m 1019 183 l 1019 353 l 876 183 l 1019 183 z "},"¿":{"ha":711,"x_min":94,"x_max":679,"o":"m 318 651 l 517 651 l 517 460 l 318 460 l 318 651 m 679 -162 q 651 -194 672 -172 q 594 -240 631 -217 q 505 -281 558 -262 q 381 -299 451 -299 q 260 -279 313 -299 q 170 -226 207 -260 q 114 -149 133 -193 q 94 -58 94 -106 q 125 68 94 19 q 217 161 156 117 q 269 200 247 183 q 306 235 292 217 q 328 276 321 254 q 335 331 335 299 l 335 361 l 501 361 l 501 331 q 498 274 501 304 q 483 213 494 244 q 449 151 472 182 q 386 93 425 121 q 342 61 364 78 q 301 26 319 44 q 272 -12 283 8 q 261 -54 261 -32 q 293 -123 261 -96 q 382 -150 325 -150 q 451 -139 419 -150 q 508 -114 483 -128 q 548 -86 532 -100 q 571 -65 564 -72 l 679 -162 z "},"À":{"ha":897,"x_min":7,"x_max":890,"o":"m 358 926 l 539 926 l 890 0 l 696 0 l 615 235 l 271 235 l 190 0 l 7 0 l 358 926 m 565 379 l 443 739 l 319 379 l 565 379 m 249 1213 l 451 1213 l 553 996 l 407 996 l 249 1213 z "},"Á":{"ha":897,"x_min":7,"x_max":890,"o":"m 358 926 l 539 926 l 890 0 l 696 0 l 615 235 l 271 235 l 190 0 l 7 0 l 358 926 m 565 379 l 443 739 l 319 379 l 565 379 m 469 1213 l 672 1213 l 514 996 l 368 996 l 469 1213 z "},"Â":{"ha":897,"x_min":7,"x_max":890,"o":"m 358 926 l 539 926 l 890 0 l 696 0 l 615 235 l 271 235 l 190 0 l 7 0 l 358 926 m 565 379 l 443 739 l 319 379 l 565 379 m 371 1213 l 525 1213 l 678 996 l 533 996 l 447 1110 l 363 996 l 218 996 l 371 1213 z "},"Ã":{"ha":897,"x_min":7,"x_max":890,"o":"m 358 926 l 539 926 l 890 0 l 696 0 l 615 235 l 271 235 l 190 0 l 7 0 l 358 926 m 565 379 l 443 739 l 319 379 l 565 379 m 168 1117 q 199 1144 181 1129 q 240 1172 217 1160 q 289 1193 263 1185 q 346 1201 315 1201 q 399 1192 376 1201 q 441 1172 421 1183 q 483 1152 461 1161 q 533 1143 504 1143 q 612 1161 582 1143 q 661 1194 642 1179 l 729 1090 q 699 1063 717 1078 q 658 1034 681 1047 q 610 1012 636 1021 q 553 1003 583 1003 q 500 1013 522 1003 q 457 1033 478 1022 q 415 1054 436 1044 q 364 1064 393 1064 q 285 1046 315 1064 q 236 1013 256 1028 l 168 1117 z "},"Ä":{"ha":897,"x_min":7,"x_max":890,"o":"m 358 926 l 539 926 l 890 0 l 696 0 l 615 235 l 271 235 l 190 0 l 7 0 l 358 926 m 565 379 l 443 739 l 319 379 l 565 379 m 510 1186 l 681 1186 l 681 1024 l 510 1024 l 510 1186 m 214 1186 l 385 1186 l 385 1024 l 214 1024 l 214 1186 z "},"Å":{"ha":897,"x_min":7,"x_max":890,"o":"m 349 901 q 290 963 313 925 q 268 1050 268 1001 q 282 1122 268 1089 q 321 1178 296 1154 q 379 1215 346 1201 q 450 1228 413 1228 q 522 1215 489 1228 q 581 1178 556 1201 q 619 1122 606 1154 q 633 1051 633 1089 q 610 963 633 1001 q 549 900 588 924 l 890 0 l 696 0 l 615 235 l 271 235 l 190 0 l 7 0 l 349 901 m 565 379 l 443 739 l 319 379 l 565 379 m 451 978 q 502 998 483 978 q 521 1051 521 1018 q 502 1103 521 1083 q 450 1124 483 1124 q 399 1103 418 1124 q 381 1050 381 1083 q 399 998 381 1018 q 451 978 418 978 z "},"Æ":{"ha":1325,"x_min":0,"x_max":1265,"o":"m 532 926 l 1233 926 l 1233 772 l 806 772 l 806 554 l 1121 554 l 1121 399 l 806 399 l 806 157 l 1265 157 l 1265 0 l 633 0 l 633 235 l 314 235 l 179 0 l 0 0 l 532 926 m 633 378 l 633 792 l 396 378 l 633 378 z "},"Ç":{"ha":944,"x_min":61,"x_max":913,"o":"m 913 169 q 855 104 892 138 q 768 42 818 71 q 658 -4 718 14 q 532 -22 599 -22 q 342 14 428 -22 q 193 115 256 50 q 96 267 131 179 q 61 458 61 354 q 96 649 61 560 q 194 804 131 738 q 344 910 257 871 q 538 949 432 949 q 663 934 606 949 q 766 894 719 919 q 849 835 813 869 q 913 763 885 801 l 789 653 q 685 756 744 717 q 538 794 626 794 q 415 767 469 794 q 323 695 361 740 q 265 590 285 650 q 244 463 244 529 q 265 338 244 396 q 322 236 285 279 q 412 168 360 193 q 529 143 464 143 q 631 157 589 143 q 703 192 674 171 q 753 235 733 213 q 790 275 774 258 l 913 169 m 367 -206 q 417 -219 393 -215 q 464 -222 442 -222 q 521 -212 500 -222 q 542 -181 542 -201 q 524 -152 542 -164 q 469 -140 507 -140 q 422 -144 446 -140 q 381 -156 399 -149 l 396 -61 q 447 -49 421 -54 q 514 -44 474 -44 q 633 -81 589 -44 q 676 -174 676 -117 q 660 -237 676 -210 q 619 -284 644 -265 q 560 -312 593 -303 q 492 -321 526 -321 q 433 -318 458 -321 q 388 -311 407 -315 q 349 -301 365 -307 l 367 -206 z "},"È":{"ha":789,"x_min":97,"x_max":729,"o":"m 97 926 l 697 926 l 697 772 l 272 772 l 272 554 l 585 554 l 585 399 l 272 399 l 272 157 l 729 157 l 729 0 l 97 0 l 97 926 m 208 1213 l 411 1213 l 513 996 l 367 996 l 208 1213 z "},"É":{"ha":789,"x_min":97,"x_max":729,"o":"m 97 926 l 697 926 l 697 772 l 272 772 l 272 554 l 585 554 l 585 399 l 272 399 l 272 157 l 729 157 l 729 0 l 97 0 l 97 926 m 421 1213 l 624 1213 l 465 996 l 319 996 l 421 1213 z "},"Ê":{"ha":789,"x_min":97,"x_max":729,"o":"m 97 926 l 697 926 l 697 772 l 272 772 l 272 554 l 585 554 l 585 399 l 272 399 l 272 157 l 729 157 l 729 0 l 97 0 l 97 926 m 319 1213 l 474 1213 l 626 996 l 482 996 l 396 1110 l 311 996 l 167 996 l 319 1213 z "},"Ë":{"ha":789,"x_min":97,"x_max":729,"o":"m 97 926 l 697 926 l 697 772 l 272 772 l 272 554 l 585 554 l 585 399 l 272 399 l 272 157 l 729 157 l 729 0 l 97 0 l 97 926 m 458 1186 l 629 1186 l 629 1024 l 458 1024 l 458 1186 m 163 1186 l 333 1186 l 333 1024 l 163 1024 l 163 1186 z "},"Ì":{"ha":369,"x_min":-31,"x_max":274,"o":"m 97 926 l 272 926 l 272 0 l 97 0 l 97 926 m -31 1213 l 172 1213 l 274 996 l 128 996 l -31 1213 z "},"Í":{"ha":369,"x_min":97,"x_max":401,"o":"m 97 926 l 272 926 l 272 0 l 97 0 l 97 926 m 199 1213 l 401 1213 l 243 996 l 97 996 l 199 1213 z "},"Î":{"ha":369,"x_min":-44,"x_max":415,"o":"m 97 926 l 272 926 l 272 0 l 97 0 l 97 926 m 108 1213 l 263 1213 l 415 996 l 271 996 l 185 1110 l 100 996 l -44 996 l 108 1213 z "},"Ï":{"ha":369,"x_min":-49,"x_max":418,"o":"m 97 926 l 272 926 l 272 0 l 97 0 l 97 926 m 247 1186 l 418 1186 l 418 1024 l 247 1024 l 247 1186 m -49 1186 l 122 1186 l 122 1024 l -49 1024 l -49 1186 z "},"Ð":{"ha":1008,"x_min":4,"x_max":935,"o":"m 97 399 l 4 399 l 4 540 l 97 540 l 97 926 l 443 926 q 642 899 551 926 q 797 814 732 871 q 899 668 863 757 q 935 458 935 579 q 898 258 935 343 q 795 115 861 172 q 639 28 729 57 q 442 0 549 0 l 97 0 l 97 399 m 431 157 q 672 233 589 157 q 756 457 756 310 q 678 688 756 603 q 431 772 601 772 l 272 772 l 272 540 l 488 540 l 488 399 l 272 399 l 272 157 l 431 157 z "},"Ñ":{"ha":990,"x_min":97,"x_max":893,"o":"m 97 926 l 274 926 l 722 268 l 722 926 l 893 926 l 893 0 l 721 0 l 268 667 l 268 0 l 97 0 l 97 926 m 186 1117 q 217 1144 199 1129 q 258 1172 235 1160 q 307 1193 281 1185 q 364 1201 333 1201 q 417 1192 394 1201 q 459 1172 439 1183 q 501 1152 479 1161 q 551 1143 522 1143 q 630 1161 600 1143 q 679 1194 660 1179 l 747 1090 q 717 1063 735 1078 q 676 1034 699 1047 q 628 1012 654 1021 q 571 1003 601 1003 q 518 1013 540 1003 q 475 1033 496 1022 q 433 1054 454 1044 q 382 1064 411 1064 q 303 1046 333 1064 q 254 1013 274 1028 l 186 1117 z "},"Ò":{"ha":1086,"x_min":61,"x_max":1025,"o":"m 543 -25 q 354 13 442 -25 q 201 118 267 51 q 99 274 136 185 q 61 464 61 363 q 99 654 61 565 q 201 809 136 743 q 353 913 265 875 q 543 951 442 951 q 732 913 644 951 q 885 809 819 875 q 988 654 950 743 q 1025 464 1025 565 q 988 274 1025 363 q 885 118 950 185 q 732 13 819 51 q 543 -25 644 -25 m 543 140 q 667 167 611 140 q 761 238 722 193 q 821 343 800 283 q 842 468 842 403 q 821 594 842 535 q 761 697 800 653 q 667 767 722 742 q 543 793 611 793 q 419 767 474 793 q 325 697 364 742 q 265 594 286 653 q 244 468 244 535 q 265 343 244 403 q 325 238 286 283 q 419 167 364 193 q 543 140 474 140 m 342 1213 l 544 1213 l 646 996 l 500 996 l 342 1213 z "},"Ó":{"ha":1086,"x_min":61,"x_max":1025,"o":"m 543 -25 q 354 13 442 -25 q 201 118 267 51 q 99 274 136 185 q 61 464 61 363 q 99 654 61 565 q 201 809 136 743 q 353 913 265 875 q 543 951 442 951 q 732 913 644 951 q 885 809 819 875 q 988 654 950 743 q 1025 464 1025 565 q 988 274 1025 363 q 885 118 950 185 q 732 13 819 51 q 543 -25 644 -25 m 543 140 q 667 167 611 140 q 761 238 722 193 q 821 343 800 283 q 842 468 842 403 q 821 594 842 535 q 761 697 800 653 q 667 767 722 742 q 543 793 611 793 q 419 767 474 793 q 325 697 364 742 q 265 594 286 653 q 244 468 244 535 q 265 343 244 403 q 325 238 286 283 q 419 167 364 193 q 543 140 474 140 m 557 1213 l 760 1213 l 601 996 l 456 996 l 557 1213 z "},"Ô":{"ha":1086,"x_min":61,"x_max":1025,"o":"m 543 -25 q 354 13 442 -25 q 201 118 267 51 q 99 274 136 185 q 61 464 61 363 q 99 654 61 565 q 201 809 136 743 q 353 913 265 875 q 543 951 442 951 q 732 913 644 951 q 885 809 819 875 q 988 654 950 743 q 1025 464 1025 565 q 988 274 1025 363 q 885 118 950 185 q 732 13 819 51 q 543 -25 644 -25 m 543 140 q 667 167 611 140 q 761 238 722 193 q 821 343 800 283 q 842 468 842 403 q 821 594 842 535 q 761 697 800 653 q 667 767 722 742 q 543 793 611 793 q 419 767 474 793 q 325 697 364 742 q 265 594 286 653 q 244 468 244 535 q 265 343 244 403 q 325 238 286 283 q 419 167 364 193 q 543 140 474 140 m 467 1213 l 621 1213 l 774 996 l 629 996 l 543 1110 l 458 996 l 314 996 l 467 1213 z "},"Õ":{"ha":1086,"x_min":61,"x_max":1025,"o":"m 543 -25 q 354 13 442 -25 q 201 118 267 51 q 99 274 136 185 q 61 464 61 363 q 99 654 61 565 q 201 809 136 743 q 353 913 265 875 q 543 951 442 951 q 732 913 644 951 q 885 809 819 875 q 988 654 950 743 q 1025 464 1025 565 q 988 274 1025 363 q 885 118 950 185 q 732 13 819 51 q 543 -25 644 -25 m 543 140 q 667 167 611 140 q 761 238 722 193 q 821 343 800 283 q 842 468 842 403 q 821 594 842 535 q 761 697 800 653 q 667 767 722 742 q 543 793 611 793 q 419 767 474 793 q 325 697 364 742 q 265 594 286 653 q 244 468 244 535 q 265 343 244 403 q 325 238 286 283 q 419 167 364 193 q 543 140 474 140 m 264 1117 q 294 1144 276 1129 q 335 1172 313 1160 q 385 1193 358 1185 q 442 1201 411 1201 q 494 1192 472 1201 q 537 1172 517 1183 q 578 1152 557 1161 q 629 1143 600 1143 q 708 1161 678 1143 q 757 1194 738 1179 l 825 1090 q 794 1063 813 1078 q 754 1034 776 1047 q 706 1012 732 1021 q 649 1003 679 1003 q 596 1013 618 1003 q 553 1033 574 1022 q 510 1054 532 1044 q 460 1064 489 1064 q 381 1046 411 1064 q 332 1013 351 1028 l 264 1117 z "},"Ö":{"ha":1086,"x_min":61,"x_max":1025,"o":"m 543 -25 q 354 13 442 -25 q 201 118 267 51 q 99 274 136 185 q 61 464 61 363 q 99 654 61 565 q 201 809 136 743 q 353 913 265 875 q 543 951 442 951 q 732 913 644 951 q 885 809 819 875 q 988 654 950 743 q 1025 464 1025 565 q 988 274 1025 363 q 885 118 950 185 q 732 13 819 51 q 543 -25 644 -25 m 543 140 q 667 167 611 140 q 761 238 722 193 q 821 343 800 283 q 842 468 842 403 q 821 594 842 535 q 761 697 800 653 q 667 767 722 742 q 543 793 611 793 q 419 767 474 793 q 325 697 364 742 q 265 594 286 653 q 244 468 244 535 q 265 343 244 403 q 325 238 286 283 q 419 167 364 193 q 543 140 474 140 m 606 1186 l 776 1186 l 776 1024 l 606 1024 l 606 1186 m 310 1186 l 481 1186 l 481 1024 l 310 1024 l 310 1186 z "},"×":{"ha":757,"x_min":126,"x_max":632,"o":"m 283 446 l 129 601 l 225 697 l 381 543 l 538 700 l 632 604 l 475 447 l 629 293 l 533 197 l 379 351 l 222 194 l 126 289 l 283 446 z "},"Ø":{"ha":1086,"x_min":61,"x_max":1025,"o":"m 203 117 q 99 272 136 183 q 61 464 61 361 q 99 654 61 565 q 201 809 136 743 q 353 913 265 875 q 543 951 442 951 q 751 904 654 951 l 832 1018 l 956 940 l 872 821 q 984 662 943 754 q 1025 464 1025 569 q 988 274 1025 363 q 885 118 950 185 q 732 13 819 51 q 543 -25 644 -25 q 426 -10 482 -25 q 319 29 369 4 l 235 -93 l 111 -15 l 203 117 m 417 168 q 543 140 472 140 q 667 167 611 140 q 761 238 722 193 q 821 343 800 283 q 842 468 842 403 q 824 583 842 529 q 774 681 806 636 l 417 168 m 658 771 q 543 793 603 793 q 419 767 474 793 q 325 697 364 742 q 265 594 286 653 q 244 468 244 535 q 260 358 244 410 q 306 263 275 306 l 658 771 z "},"Ù":{"ha":936,"x_min":90,"x_max":846,"o":"m 90 926 l 265 926 l 265 372 q 276 277 265 319 q 310 205 286 235 q 372 159 333 175 q 468 143 411 143 q 564 159 525 143 q 626 205 603 175 q 660 277 650 235 q 671 372 671 319 l 671 926 l 846 926 l 846 342 q 821 197 846 264 q 747 81 796 131 q 628 3 699 32 q 468 -25 558 -25 q 308 3 378 -25 q 189 81 238 32 q 115 197 140 131 q 90 342 90 264 l 90 926 m 276 1213 l 479 1213 l 581 996 l 435 996 l 276 1213 z "},"Ú":{"ha":936,"x_min":90,"x_max":846,"o":"m 90 926 l 265 926 l 265 372 q 276 277 265 319 q 310 205 286 235 q 372 159 333 175 q 468 143 411 143 q 564 159 525 143 q 626 205 603 175 q 660 277 650 235 q 671 372 671 319 l 671 926 l 846 926 l 846 342 q 821 197 846 264 q 747 81 796 131 q 628 3 699 32 q 468 -25 558 -25 q 308 3 378 -25 q 189 81 238 32 q 115 197 140 131 q 90 342 90 264 l 90 926 m 488 1213 l 690 1213 l 532 996 l 386 996 l 488 1213 z "},"Û":{"ha":936,"x_min":90,"x_max":846,"o":"m 90 926 l 265 926 l 265 372 q 276 277 265 319 q 310 205 286 235 q 372 159 333 175 q 468 143 411 143 q 564 159 525 143 q 626 205 603 175 q 660 277 650 235 q 671 372 671 319 l 671 926 l 846 926 l 846 342 q 821 197 846 264 q 747 81 796 131 q 628 3 699 32 q 468 -25 558 -25 q 308 3 378 -25 q 189 81 238 32 q 115 197 140 131 q 90 342 90 264 l 90 926 m 393 1213 l 547 1213 l 700 996 l 556 996 l 469 1110 l 385 996 l 240 996 l 393 1213 z "},"Ü":{"ha":936,"x_min":90,"x_max":846,"o":"m 90 926 l 265 926 l 265 372 q 276 277 265 319 q 310 205 286 235 q 372 159 333 175 q 468 143 411 143 q 564 159 525 143 q 626 205 603 175 q 660 277 650 235 q 671 372 671 319 l 671 926 l 846 926 l 846 342 q 821 197 846 264 q 747 81 796 131 q 628 3 699 32 q 468 -25 558 -25 q 308 3 378 -25 q 189 81 238 32 q 115 197 140 131 q 90 342 90 264 l 90 926 m 531 1186 l 701 1186 l 701 1024 l 531 1024 l 531 1186 m 235 1186 l 406 1186 l 406 1024 l 235 1024 l 235 1186 z "},"Ý":{"ha":833,"x_min":7,"x_max":826,"o":"m 328 407 l 7 926 l 199 926 l 421 557 l 643 926 l 826 926 l 506 407 l 506 0 l 328 0 l 328 407 m 446 1213 l 649 1213 l 490 996 l 344 996 l 446 1213 z "},"Þ":{"ha":775,"x_min":97,"x_max":715,"o":"m 97 926 l 265 926 l 265 768 l 394 768 q 553 738 492 768 q 651 665 615 708 q 701 571 688 621 q 715 479 715 521 q 688 346 715 401 q 615 255 660 290 q 515 203 571 219 q 406 186 460 186 l 265 186 l 265 0 l 97 0 l 97 926 m 392 333 q 498 372 458 333 q 538 474 538 411 q 496 580 538 539 q 392 621 454 621 l 265 621 l 265 333 l 392 333 z "},"ß":{"ha":839,"x_min":81,"x_max":789,"o":"m 81 658 q 103 797 81 742 q 169 887 126 853 q 269 935 211 921 q 399 950 328 950 q 498 935 450 950 q 583 893 546 921 q 641 826 619 865 q 663 739 663 788 q 638 647 663 686 q 585 575 614 607 q 531 516 556 543 q 507 463 507 489 q 536 422 507 438 q 614 394 565 406 q 744 329 699 375 q 789 190 789 283 q 722 40 789 94 q 532 -15 654 -15 q 301 64 392 -15 l 400 178 q 463 138 429 151 q 526 124 497 124 q 606 137 582 124 q 631 182 631 150 q 627 209 631 196 q 611 233 624 222 q 575 256 599 244 q 511 279 551 267 q 449 301 479 289 q 397 333 419 313 q 360 385 374 354 q 346 464 346 417 q 369 542 346 507 q 419 608 392 578 q 470 665 447 639 q 493 714 493 690 q 467 782 493 754 q 382 810 440 810 q 276 767 307 810 q 244 651 244 724 l 244 0 l 81 0 l 81 658 z "},"à":{"ha":700,"x_min":39,"x_max":622,"o":"m 465 61 q 385 4 439 29 q 264 -21 331 -21 q 184 -8 224 -21 q 112 30 144 4 q 59 96 79 56 q 39 190 39 136 q 60 290 39 246 q 118 363 81 333 q 208 408 156 393 q 325 424 261 424 q 368 423 344 424 q 414 421 392 422 q 465 418 439 419 l 465 433 q 426 510 465 482 q 325 538 388 538 q 214 519 256 538 q 140 481 172 501 l 65 592 q 110 620 85 606 q 168 647 135 635 q 245 666 201 658 q 347 674 289 674 q 460 656 410 674 q 547 608 511 639 q 603 533 583 576 q 622 438 622 489 l 622 0 l 469 0 l 465 61 m 465 294 q 417 297 440 296 q 376 299 397 299 q 339 300 354 300 q 228 269 260 300 q 196 197 196 238 q 226 132 196 156 q 314 108 256 108 q 370 118 343 108 q 418 144 397 128 q 452 183 439 161 q 465 231 465 206 l 465 294 m 186 947 l 361 947 l 428 750 l 296 750 l 186 947 z "},"á":{"ha":700,"x_min":39,"x_max":622,"o":"m 465 61 q 385 4 439 29 q 264 -21 331 -21 q 184 -8 224 -21 q 112 30 144 4 q 59 96 79 56 q 39 190 39 136 q 60 290 39 246 q 118 363 81 333 q 208 408 156 393 q 325 424 261 424 q 368 423 344 424 q 414 421 392 422 q 465 418 439 419 l 465 433 q 426 510 465 482 q 325 538 388 538 q 214 519 256 538 q 140 481 172 501 l 65 592 q 110 620 85 606 q 168 647 135 635 q 245 666 201 658 q 347 674 289 674 q 460 656 410 674 q 547 608 511 639 q 603 533 583 576 q 622 438 622 489 l 622 0 l 469 0 l 465 61 m 465 294 q 417 297 440 296 q 376 299 397 299 q 339 300 354 300 q 228 269 260 300 q 196 197 196 238 q 226 132 196 156 q 314 108 256 108 q 370 118 343 108 q 418 144 397 128 q 452 183 439 161 q 465 231 465 206 l 465 294 m 343 947 l 518 947 l 408 750 l 276 750 l 343 947 z "},"â":{"ha":700,"x_min":39,"x_max":622,"o":"m 465 61 q 385 4 439 29 q 264 -21 331 -21 q 184 -8 224 -21 q 112 30 144 4 q 59 96 79 56 q 39 190 39 136 q 60 290 39 246 q 118 363 81 333 q 208 408 156 393 q 325 424 261 424 q 368 423 344 424 q 414 421 392 422 q 465 418 439 419 l 465 433 q 426 510 465 482 q 325 538 388 538 q 214 519 256 538 q 140 481 172 501 l 65 592 q 110 620 85 606 q 168 647 135 635 q 245 666 201 658 q 347 674 289 674 q 460 656 410 674 q 547 608 511 639 q 603 533 583 576 q 622 438 622 489 l 622 0 l 469 0 l 465 61 m 465 294 q 417 297 440 296 q 376 299 397 299 q 339 300 354 300 q 228 269 260 300 q 196 197 196 238 q 226 132 196 156 q 314 108 256 108 q 370 118 343 108 q 418 144 397 128 q 452 183 439 161 q 465 231 465 206 l 465 294 m 261 947 l 415 947 l 560 750 l 415 750 l 338 856 l 261 750 l 117 750 l 261 947 z "},"ã":{"ha":700,"x_min":39,"x_max":622,"o":"m 465 61 q 385 4 439 29 q 264 -21 331 -21 q 184 -8 224 -21 q 112 30 144 4 q 59 96 79 56 q 39 190 39 136 q 60 290 39 246 q 118 363 81 333 q 208 408 156 393 q 325 424 261 424 q 368 423 344 424 q 414 421 392 422 q 465 418 439 419 l 465 433 q 426 510 465 482 q 325 538 388 538 q 214 519 256 538 q 140 481 172 501 l 65 592 q 110 620 85 606 q 168 647 135 635 q 245 666 201 658 q 347 674 289 674 q 460 656 410 674 q 547 608 511 639 q 603 533 583 576 q 622 438 622 489 l 622 0 l 469 0 l 465 61 m 465 294 q 417 297 440 296 q 376 299 397 299 q 339 300 354 300 q 228 269 260 300 q 196 197 196 238 q 226 132 196 156 q 314 108 256 108 q 370 118 343 108 q 418 144 397 128 q 452 183 439 161 q 465 231 465 206 l 465 294 m 68 854 q 97 881 79 867 q 135 906 114 894 q 183 926 157 918 q 236 935 208 935 q 286 926 265 935 q 326 906 307 917 q 367 887 346 896 q 415 878 388 878 q 490 896 463 878 q 538 928 518 914 l 600 831 q 572 803 589 818 q 533 776 554 789 q 487 756 513 764 q 433 747 461 747 q 383 756 404 747 q 342 777 361 765 q 301 798 322 789 q 253 807 281 807 q 178 789 206 807 q 131 757 150 771 l 68 854 z "},"ä":{"ha":700,"x_min":39,"x_max":622,"o":"m 465 61 q 385 4 439 29 q 264 -21 331 -21 q 184 -8 224 -21 q 112 30 144 4 q 59 96 79 56 q 39 190 39 136 q 60 290 39 246 q 118 363 81 333 q 208 408 156 393 q 325 424 261 424 q 368 423 344 424 q 414 421 392 422 q 465 418 439 419 l 465 433 q 426 510 465 482 q 325 538 388 538 q 214 519 256 538 q 140 481 172 501 l 65 592 q 110 620 85 606 q 168 647 135 635 q 245 666 201 658 q 347 674 289 674 q 460 656 410 674 q 547 608 511 639 q 603 533 583 576 q 622 438 622 489 l 622 0 l 469 0 l 465 61 m 465 294 q 417 297 440 296 q 376 299 397 299 q 339 300 354 300 q 228 269 260 300 q 196 197 196 238 q 226 132 196 156 q 314 108 256 108 q 370 118 343 108 q 418 144 397 128 q 452 183 439 161 q 465 231 465 206 l 465 294 m 403 925 l 563 925 l 563 774 l 403 774 l 403 925 m 146 925 l 306 925 l 306 774 l 146 774 l 146 925 z "},"å":{"ha":700,"x_min":39,"x_max":622,"o":"m 465 61 q 385 4 439 29 q 264 -21 331 -21 q 184 -8 224 -21 q 112 30 144 4 q 59 96 79 56 q 39 190 39 136 q 60 290 39 246 q 118 363 81 333 q 208 408 156 393 q 325 424 261 424 q 368 423 344 424 q 414 421 392 422 q 465 418 439 419 l 465 433 q 426 510 465 482 q 325 538 388 538 q 214 519 256 538 q 140 481 172 501 l 65 592 q 110 620 85 606 q 168 647 135 635 q 245 666 201 658 q 347 674 289 674 q 460 656 410 674 q 547 608 511 639 q 603 533 583 576 q 622 438 622 489 l 622 0 l 469 0 l 465 61 m 465 294 q 417 297 440 296 q 376 299 397 299 q 339 300 354 300 q 228 269 260 300 q 196 197 196 238 q 226 132 196 156 q 314 108 256 108 q 370 118 343 108 q 418 144 397 128 q 452 183 439 161 q 465 231 465 206 l 465 294 m 190 894 q 203 957 190 928 q 238 1007 217 986 q 290 1040 260 1028 q 353 1051 319 1051 q 416 1040 386 1051 q 468 1007 446 1028 q 503 958 490 986 q 517 896 517 929 q 503 833 517 863 q 469 783 490 804 q 417 751 447 763 q 354 739 388 739 q 291 751 321 739 q 239 783 261 763 q 203 833 217 804 q 190 894 190 861 m 353 833 q 397 851 379 833 q 414 894 414 868 q 397 937 414 919 q 354 954 379 954 q 310 937 328 954 q 293 894 293 919 q 310 851 293 868 q 353 833 328 833 z "},"æ":{"ha":1154,"x_min":39,"x_max":1108,"o":"m 65 592 q 108 620 83 606 q 165 647 132 635 q 240 666 197 658 q 336 674 282 674 q 473 651 418 674 q 567 582 528 628 q 663 649 604 625 q 788 674 721 674 q 938 641 876 674 q 1038 556 1000 608 q 1092 436 1075 503 q 1108 300 1108 369 l 1108 276 l 622 276 q 638 211 622 240 q 680 161 654 182 q 738 129 706 140 q 803 118 771 118 q 885 127 850 118 q 946 148 921 136 q 987 173 971 160 q 1011 194 1003 186 l 1100 94 q 1077 72 1096 90 q 1023 32 1058 53 q 933 -6 988 11 q 801 -22 878 -22 q 653 8 718 -22 q 542 92 588 39 q 490 40 517 61 q 431 5 463 18 q 364 -15 400 -8 q 282 -21 328 -21 q 191 -8 235 -21 q 113 30 147 4 q 59 96 79 56 q 39 190 39 136 q 60 288 39 246 q 118 356 81 329 q 208 397 156 383 q 325 411 261 411 q 367 410 343 411 q 411 408 390 410 q 447 406 432 407 q 465 406 463 406 l 465 433 q 428 510 465 482 q 333 538 392 538 q 215 519 258 538 q 140 481 172 501 l 65 592 m 465 282 q 444 283 460 282 q 410 285 429 285 q 372 287 392 286 q 339 288 353 288 q 228 263 265 288 q 192 197 192 238 q 224 132 192 156 q 314 108 256 108 q 424 144 382 108 q 465 231 465 181 l 465 282 m 940 394 q 931 444 940 419 q 902 490 921 469 q 854 523 883 510 q 788 536 825 536 q 716 523 747 536 q 664 490 685 510 q 632 444 643 469 q 621 394 621 419 l 940 394 z "},"ç":{"ha":683,"x_min":50,"x_max":656,"o":"m 654 86 q 546 8 608 38 q 400 -21 483 -21 q 251 4 317 -21 q 142 75 186 29 q 74 185 97 121 q 50 326 50 249 q 76 460 50 397 q 147 571 101 524 q 258 646 193 618 q 400 674 322 674 q 544 645 479 674 q 656 568 610 617 l 551 463 q 486 513 524 494 q 400 531 449 531 q 318 513 353 531 q 260 468 283 496 q 226 403 238 440 q 215 326 215 365 q 226 253 215 289 q 260 188 238 217 q 318 140 283 158 q 400 122 353 122 q 489 141 449 122 q 557 192 529 160 l 654 86 m 226 -208 q 276 -222 253 -218 q 322 -225 300 -225 q 403 -181 403 -225 q 385 -151 403 -164 q 328 -139 368 -139 q 281 -143 304 -139 q 240 -154 258 -147 l 256 -61 q 306 -49 281 -54 q 372 -44 332 -44 q 490 -81 447 -44 q 532 -174 532 -117 q 517 -237 532 -210 q 476 -284 501 -265 q 417 -312 450 -303 q 350 -321 385 -321 q 291 -318 317 -321 q 246 -311 265 -315 q 208 -301 224 -307 l 226 -208 z "},"è":{"ha":747,"x_min":50,"x_max":701,"o":"m 693 94 q 670 72 689 90 q 616 32 651 53 q 526 -6 581 11 q 394 -22 471 -22 q 253 4 317 -22 q 144 77 189 31 q 74 189 99 124 q 50 333 50 254 q 74 467 50 406 q 142 575 99 529 q 247 647 186 621 q 381 674 307 674 q 531 641 469 674 q 631 556 593 608 q 685 436 668 503 q 701 300 701 369 l 701 276 l 215 276 q 231 211 215 240 q 273 161 247 182 q 331 129 299 140 q 396 118 364 118 q 478 127 443 118 q 539 148 514 136 q 580 173 564 160 q 604 194 596 186 l 693 94 m 533 394 q 524 444 533 419 q 495 490 514 469 q 447 523 476 510 q 381 536 418 536 q 309 523 340 536 q 257 490 278 510 q 225 444 236 469 q 214 394 214 419 l 533 394 m 221 947 l 396 947 l 463 750 l 331 750 l 221 947 z "},"é":{"ha":747,"x_min":50,"x_max":701,"o":"m 693 94 q 670 72 689 90 q 616 32 651 53 q 526 -6 581 11 q 394 -22 471 -22 q 253 4 317 -22 q 144 77 189 31 q 74 189 99 124 q 50 333 50 254 q 74 467 50 406 q 142 575 99 529 q 247 647 186 621 q 381 674 307 674 q 531 641 469 674 q 631 556 593 608 q 685 436 668 503 q 701 300 701 369 l 701 276 l 215 276 q 231 211 215 240 q 273 161 247 182 q 331 129 299 140 q 396 118 364 118 q 478 127 443 118 q 539 148 514 136 q 580 173 564 160 q 604 194 596 186 l 693 94 m 533 394 q 524 444 533 419 q 495 490 514 469 q 447 523 476 510 q 381 536 418 536 q 309 523 340 536 q 257 490 278 510 q 225 444 236 469 q 214 394 214 419 l 533 394 m 381 947 l 556 947 l 446 750 l 314 750 l 381 947 z "},"ê":{"ha":747,"x_min":50,"x_max":701,"o":"m 693 94 q 670 72 689 90 q 616 32 651 53 q 526 -6 581 11 q 394 -22 471 -22 q 253 4 317 -22 q 144 77 189 31 q 74 189 99 124 q 50 333 50 254 q 74 467 50 406 q 142 575 99 529 q 247 647 186 621 q 381 674 307 674 q 531 641 469 674 q 631 556 593 608 q 685 436 668 503 q 701 300 701 369 l 701 276 l 215 276 q 231 211 215 240 q 273 161 247 182 q 331 129 299 140 q 396 118 364 118 q 478 127 443 118 q 539 148 514 136 q 580 173 564 160 q 604 194 596 186 l 693 94 m 533 394 q 524 444 533 419 q 495 490 514 469 q 447 523 476 510 q 381 536 418 536 q 309 523 340 536 q 257 490 278 510 q 225 444 236 469 q 214 394 214 419 l 533 394 m 299 947 l 453 947 l 597 750 l 453 750 l 375 856 l 299 750 l 154 750 l 299 947 z "},"ë":{"ha":747,"x_min":50,"x_max":701,"o":"m 693 94 q 670 72 689 90 q 616 32 651 53 q 526 -6 581 11 q 394 -22 471 -22 q 253 4 317 -22 q 144 77 189 31 q 74 189 99 124 q 50 333 50 254 q 74 467 50 406 q 142 575 99 529 q 247 647 186 621 q 381 674 307 674 q 531 641 469 674 q 631 556 593 608 q 685 436 668 503 q 701 300 701 369 l 701 276 l 215 276 q 231 211 215 240 q 273 161 247 182 q 331 129 299 140 q 396 118 364 118 q 478 127 443 118 q 539 148 514 136 q 580 173 564 160 q 604 194 596 186 l 693 94 m 533 394 q 524 444 533 419 q 495 490 514 469 q 447 523 476 510 q 381 536 418 536 q 309 523 340 536 q 257 490 278 510 q 225 444 236 469 q 214 394 214 419 l 533 394 m 424 925 l 583 925 l 583 774 l 424 774 l 424 925 m 167 925 l 326 925 l 326 774 l 167 774 l 167 925 z "},"ì":{"ha":339,"x_min":-6,"x_max":251,"o":"m 88 651 l 251 651 l 251 0 l 88 0 l 88 651 m -6 947 l 169 947 l 236 750 l 104 750 l -6 947 z "},"í":{"ha":339,"x_min":88,"x_max":344,"o":"m 88 651 l 251 651 l 251 0 l 88 0 l 88 651 m 169 947 l 344 947 l 235 750 l 103 750 l 169 947 z "},"î":{"ha":339,"x_min":-50,"x_max":393,"o":"m 88 651 l 251 651 l 251 0 l 88 0 l 88 651 m 94 947 l 249 947 l 393 750 l 249 750 l 171 856 l 94 750 l -50 750 l 94 947 z "},"ï":{"ha":339,"x_min":-37,"x_max":379,"o":"m 88 651 l 251 651 l 251 0 l 88 0 l 88 651 m 219 925 l 379 925 l 379 774 l 219 774 l 219 925 m -37 925 l 122 925 l 122 774 l -37 774 l -37 925 z "},"ð":{"ha":771,"x_min":50,"x_max":721,"o":"m 274 801 q 163 818 224 814 l 182 940 q 350 915 275 933 l 410 1004 l 499 951 l 450 878 q 656 679 592 810 q 721 375 721 549 q 693 198 721 272 q 618 74 665 124 q 508 1 571 25 q 374 -22 444 -22 q 252 -1 311 -22 q 149 61 193 19 q 77 164 104 103 q 50 306 50 225 q 74 431 50 372 q 142 535 99 490 q 245 607 185 581 q 376 633 306 633 q 469 624 435 633 q 521 608 503 615 q 463 696 500 656 q 374 764 426 736 l 308 667 l 219 719 l 274 801 m 546 456 q 491 481 526 467 q 408 494 456 494 q 269 444 324 494 q 215 306 215 393 q 228 230 215 264 q 263 171 240 196 q 316 133 285 146 q 383 119 347 119 q 447 134 415 119 q 503 179 478 149 q 543 258 528 210 q 558 372 558 306 q 556 410 558 390 q 546 456 554 431 z "},"ñ":{"ha":765,"x_min":81,"x_max":688,"o":"m 81 651 l 238 651 l 242 578 q 272 607 254 592 q 313 635 289 622 q 368 657 338 649 q 438 665 399 665 q 624 592 560 665 q 688 396 688 519 l 688 0 l 524 0 l 524 394 q 490 491 524 457 q 401 525 456 525 q 339 512 368 525 q 289 475 310 499 q 256 420 268 451 q 244 353 244 389 l 244 0 l 81 0 l 81 651 m 121 854 q 149 881 132 867 q 188 906 167 894 q 235 926 210 918 q 289 935 261 935 q 339 926 318 935 q 379 906 360 917 q 419 887 399 896 q 468 878 440 878 q 543 896 515 878 q 590 928 571 914 l 653 831 q 624 803 642 818 q 586 776 607 789 q 540 756 565 764 q 486 747 514 747 q 435 756 457 747 q 394 777 414 765 q 354 798 375 789 q 306 807 333 807 q 231 789 258 807 q 183 757 203 771 l 121 854 z "},"ò":{"ha":800,"x_min":50,"x_max":750,"o":"m 50 326 q 76 460 50 397 q 147 571 101 524 q 258 646 193 618 q 400 674 322 674 q 542 646 478 674 q 653 571 607 618 q 724 460 699 524 q 750 326 750 397 q 724 192 750 256 q 653 81 699 129 q 542 6 607 33 q 400 -22 478 -22 q 258 6 322 -22 q 147 81 193 33 q 76 192 101 129 q 50 326 50 256 m 400 119 q 482 138 447 119 q 540 188 517 157 q 574 254 563 218 q 585 326 585 290 q 574 398 585 361 q 540 465 563 435 q 482 513 517 494 q 400 532 447 532 q 318 513 353 532 q 260 465 283 494 q 226 398 238 435 q 215 326 215 361 q 226 254 215 290 q 260 188 238 218 q 318 138 283 157 q 400 119 353 119 m 242 947 l 417 947 l 483 750 l 351 750 l 242 947 z "},"ó":{"ha":800,"x_min":50,"x_max":750,"o":"m 50 326 q 76 460 50 397 q 147 571 101 524 q 258 646 193 618 q 400 674 322 674 q 542 646 478 674 q 653 571 607 618 q 724 460 699 524 q 750 326 750 397 q 724 192 750 256 q 653 81 699 129 q 542 6 607 33 q 400 -22 478 -22 q 258 6 322 -22 q 147 81 193 33 q 76 192 101 129 q 50 326 50 256 m 400 119 q 482 138 447 119 q 540 188 517 157 q 574 254 563 218 q 585 326 585 290 q 574 398 585 361 q 540 465 563 435 q 482 513 517 494 q 400 532 447 532 q 318 513 353 532 q 260 465 283 494 q 226 398 238 435 q 215 326 215 361 q 226 254 215 290 q 260 188 238 218 q 318 138 283 157 q 400 119 353 119 m 394 947 l 569 947 l 460 750 l 328 750 l 394 947 z "},"ô":{"ha":800,"x_min":50,"x_max":750,"o":"m 50 326 q 76 460 50 397 q 147 571 101 524 q 258 646 193 618 q 400 674 322 674 q 542 646 478 674 q 653 571 607 618 q 724 460 699 524 q 750 326 750 397 q 724 192 750 256 q 653 81 699 129 q 542 6 607 33 q 400 -22 478 -22 q 258 6 322 -22 q 147 81 193 33 q 76 192 101 129 q 50 326 50 256 m 400 119 q 482 138 447 119 q 540 188 517 157 q 574 254 563 218 q 585 326 585 290 q 574 398 585 361 q 540 465 563 435 q 482 513 517 494 q 400 532 447 532 q 318 513 353 532 q 260 465 283 494 q 226 398 238 435 q 215 326 215 361 q 226 254 215 290 q 260 188 238 218 q 318 138 283 157 q 400 119 353 119 m 324 947 l 478 947 l 622 750 l 478 750 l 400 856 l 324 750 l 179 750 l 324 947 z "},"õ":{"ha":800,"x_min":50,"x_max":750,"o":"m 50 326 q 76 460 50 397 q 147 571 101 524 q 258 646 193 618 q 400 674 322 674 q 542 646 478 674 q 653 571 607 618 q 724 460 699 524 q 750 326 750 397 q 724 192 750 256 q 653 81 699 129 q 542 6 607 33 q 400 -22 478 -22 q 258 6 322 -22 q 147 81 193 33 q 76 192 101 129 q 50 326 50 256 m 400 119 q 482 138 447 119 q 540 188 517 157 q 574 254 563 218 q 585 326 585 290 q 574 398 585 361 q 540 465 563 435 q 482 513 517 494 q 400 532 447 532 q 318 513 353 532 q 260 465 283 494 q 226 398 238 435 q 215 326 215 361 q 226 254 215 290 q 260 188 238 218 q 318 138 283 157 q 400 119 353 119 m 138 854 q 166 881 149 867 q 205 906 183 894 q 252 926 226 918 q 306 935 278 935 q 356 926 335 935 q 396 906 376 917 q 436 887 415 896 q 485 878 457 878 q 560 896 532 878 q 607 928 588 914 l 669 831 q 641 803 658 818 q 603 776 624 789 q 556 756 582 764 q 503 747 531 747 q 452 756 474 747 q 411 777 431 765 q 371 798 392 789 q 322 807 350 807 q 247 789 275 807 q 200 757 219 771 l 138 854 z "},"ö":{"ha":800,"x_min":50,"x_max":750,"o":"m 50 326 q 76 460 50 397 q 147 571 101 524 q 258 646 193 618 q 400 674 322 674 q 542 646 478 674 q 653 571 607 618 q 724 460 699 524 q 750 326 750 397 q 724 192 750 256 q 653 81 699 129 q 542 6 607 33 q 400 -22 478 -22 q 258 6 322 -22 q 147 81 193 33 q 76 192 101 129 q 50 326 50 256 m 400 119 q 482 138 447 119 q 540 188 517 157 q 574 254 563 218 q 585 326 585 290 q 574 398 585 361 q 540 465 563 435 q 482 513 517 494 q 400 532 447 532 q 318 513 353 532 q 260 465 283 494 q 226 398 238 435 q 215 326 215 361 q 226 254 215 290 q 260 188 238 218 q 318 138 283 157 q 400 119 353 119 m 450 925 l 610 925 l 610 774 l 450 774 l 450 925 m 193 925 l 353 925 l 353 774 l 193 774 l 193 925 z "},"÷":{"ha":754,"x_min":100,"x_max":653,"o":"m 100 515 l 653 515 l 653 378 l 100 378 l 100 515 m 303 297 l 450 297 l 450 158 l 303 158 l 303 297 m 303 736 l 450 736 l 450 597 l 303 597 l 303 736 z "},"ø":{"ha":800,"x_min":50,"x_max":750,"o":"m 154 74 q 77 187 104 122 q 50 326 50 251 q 76 460 50 397 q 147 571 101 524 q 258 646 193 618 q 400 674 322 674 q 549 642 481 674 l 614 736 l 715 674 l 647 575 q 723 463 696 526 q 750 326 750 400 q 724 192 750 256 q 653 81 699 129 q 542 6 607 33 q 400 -22 478 -22 q 322 -15 360 -22 q 253 7 285 -7 l 192 -81 l 92 -18 l 154 74 m 464 521 q 400 532 433 532 q 318 513 353 532 q 260 465 283 494 q 226 398 238 435 q 215 326 215 361 q 223 265 215 296 q 247 207 231 235 l 464 521 m 338 129 q 400 119 363 119 q 482 138 447 119 q 540 188 517 157 q 574 254 563 218 q 585 326 585 290 q 554 442 585 385 l 338 129 z "},"ù":{"ha":765,"x_min":78,"x_max":685,"o":"m 78 651 l 242 651 l 242 257 q 276 160 242 194 q 364 126 310 126 q 426 140 397 126 q 476 176 456 153 q 509 231 497 200 q 521 299 521 263 l 521 651 l 685 651 l 685 0 l 528 0 l 524 74 q 493 44 511 60 q 451 16 475 29 q 397 -6 428 3 q 328 -14 367 -14 q 142 59 206 -14 q 78 256 78 132 l 78 651 m 221 947 l 396 947 l 463 750 l 331 750 l 221 947 z "},"ú":{"ha":765,"x_min":78,"x_max":685,"o":"m 78 651 l 242 651 l 242 257 q 276 160 242 194 q 364 126 310 126 q 426 140 397 126 q 476 176 456 153 q 509 231 497 200 q 521 299 521 263 l 521 651 l 685 651 l 685 0 l 528 0 l 524 74 q 493 44 511 60 q 451 16 475 29 q 397 -6 428 3 q 328 -14 367 -14 q 142 59 206 -14 q 78 256 78 132 l 78 651 m 375 947 l 550 947 l 440 750 l 308 750 l 375 947 z "},"û":{"ha":765,"x_min":78,"x_max":685,"o":"m 78 651 l 242 651 l 242 257 q 276 160 242 194 q 364 126 310 126 q 426 140 397 126 q 476 176 456 153 q 509 231 497 200 q 521 299 521 263 l 521 651 l 685 651 l 685 0 l 528 0 l 524 74 q 493 44 511 60 q 451 16 475 29 q 397 -6 428 3 q 328 -14 367 -14 q 142 59 206 -14 q 78 256 78 132 l 78 651 m 307 947 l 461 947 l 606 750 l 461 750 l 383 856 l 307 750 l 163 750 l 307 947 z "},"ü":{"ha":765,"x_min":78,"x_max":685,"o":"m 78 651 l 242 651 l 242 257 q 276 160 242 194 q 364 126 310 126 q 426 140 397 126 q 476 176 456 153 q 509 231 497 200 q 521 299 521 263 l 521 651 l 685 651 l 685 0 l 528 0 l 524 74 q 493 44 511 60 q 451 16 475 29 q 397 -6 428 3 q 328 -14 367 -14 q 142 59 206 -14 q 78 256 78 132 l 78 651 m 438 925 l 597 925 l 597 774 l 438 774 l 438 925 m 181 925 l 340 925 l 340 774 l 181 774 l 181 925 z "},"ý":{"ha":732,"x_min":7,"x_max":725,"o":"m 107 -129 q 138 -151 121 -140 q 179 -161 154 -161 q 234 -133 213 -161 q 279 -47 256 -106 l 300 6 l 7 651 l 196 651 l 382 206 l 546 651 l 725 651 l 453 0 q 414 -100 433 -49 q 366 -195 394 -151 q 296 -267 338 -239 q 190 -294 254 -294 q 98 -281 135 -294 q 33 -244 61 -268 l 107 -129 m 375 947 l 550 947 l 440 750 l 308 750 l 375 947 z "},"þ":{"ha":793,"x_min":81,"x_max":743,"o":"m 81 926 l 243 926 l 243 585 q 322 638 268 613 q 450 664 375 664 q 580 636 525 664 q 671 561 635 608 q 725 453 707 514 q 743 328 743 393 q 721 194 743 251 q 665 96 699 136 q 544 3 610 29 q 408 -22 478 -22 q 353 -19 376 -22 q 312 -12 331 -17 q 277 -1 293 -7 q 243 13 261 6 l 243 -281 l 81 -281 l 81 926 m 243 160 q 390 119 292 119 q 469 136 435 119 q 528 182 504 153 q 565 249 553 211 q 578 328 578 286 q 569 405 578 369 q 540 467 560 440 q 488 508 519 493 q 408 522 456 522 q 340 506 371 522 q 288 465 310 490 q 255 410 267 440 q 243 353 243 381 l 243 160 z "},"ÿ":{"ha":732,"x_min":7,"x_max":725,"o":"m 107 -129 q 138 -151 121 -140 q 179 -161 154 -161 q 234 -133 213 -161 q 279 -47 256 -106 l 300 6 l 7 651 l 196 651 l 382 206 l 546 651 l 725 651 l 453 0 q 414 -100 433 -49 q 366 -195 394 -151 q 296 -267 338 -239 q 190 -294 254 -294 q 98 -281 135 -294 q 33 -244 61 -268 l 107 -129 m 422 925 l 582 925 l 582 774 l 422 774 l 422 925 m 165 925 l 325 925 l 325 774 l 165 774 l 165 925 z "},"Ā":{"ha":897,"x_min":7,"x_max":890,"o":"m 358 926 l 539 926 l 890 0 l 696 0 l 615 235 l 271 235 l 190 0 l 7 0 l 358 926 m 565 379 l 443 739 l 319 379 l 565 379 m 231 1172 l 668 1172 l 668 1038 l 231 1038 l 231 1172 z "},"ā":{"ha":700,"x_min":39,"x_max":622,"o":"m 465 61 q 385 4 439 29 q 264 -21 331 -21 q 184 -8 224 -21 q 112 30 144 4 q 59 96 79 56 q 39 190 39 136 q 60 290 39 246 q 118 363 81 333 q 208 408 156 393 q 325 424 261 424 q 368 423 344 424 q 414 421 392 422 q 465 418 439 419 l 465 433 q 426 510 465 482 q 325 538 388 538 q 214 519 256 538 q 140 481 172 501 l 65 592 q 110 620 85 606 q 168 647 135 635 q 245 666 201 658 q 347 674 289 674 q 460 656 410 674 q 547 608 511 639 q 603 533 583 576 q 622 438 622 489 l 622 0 l 469 0 l 465 61 m 465 294 q 417 297 440 296 q 376 299 397 299 q 339 300 354 300 q 228 269 260 300 q 196 197 196 238 q 226 132 196 156 q 314 108 256 108 q 370 118 343 108 q 418 144 397 128 q 452 183 439 161 q 465 231 465 206 l 465 294 m 178 903 l 540 903 l 540 775 l 178 775 l 178 903 z "},"Ă":{"ha":897,"x_min":7,"x_max":890,"o":"m 358 926 l 539 926 l 890 0 l 696 0 l 615 235 l 271 235 l 190 0 l 7 0 l 358 926 m 565 379 l 443 739 l 319 379 l 565 379 m 354 1199 q 378 1134 354 1163 q 447 1106 403 1106 q 516 1134 492 1106 q 540 1199 540 1163 l 669 1199 q 656 1122 669 1158 q 615 1056 642 1085 q 545 1009 588 1026 q 447 992 503 992 q 349 1009 390 992 q 280 1056 307 1026 q 239 1122 253 1085 q 225 1199 225 1158 l 354 1199 z "},"ă":{"ha":700,"x_min":39,"x_max":622,"o":"m 465 61 q 385 4 439 29 q 264 -21 331 -21 q 184 -8 224 -21 q 112 30 144 4 q 59 96 79 56 q 39 190 39 136 q 60 290 39 246 q 118 363 81 333 q 208 408 156 393 q 325 424 261 424 q 368 423 344 424 q 414 421 392 422 q 465 418 439 419 l 465 433 q 426 510 465 482 q 325 538 388 538 q 214 519 256 538 q 140 481 172 501 l 65 592 q 110 620 85 606 q 168 647 135 635 q 245 666 201 658 q 347 674 289 674 q 460 656 410 674 q 547 608 511 639 q 603 533 583 576 q 622 438 622 489 l 622 0 l 469 0 l 465 61 m 465 294 q 417 297 440 296 q 376 299 397 299 q 339 300 354 300 q 228 269 260 300 q 196 197 196 238 q 226 132 196 156 q 314 108 256 108 q 370 118 343 108 q 418 144 397 128 q 452 183 439 161 q 465 231 465 206 l 465 294 m 251 947 q 270 885 251 914 q 338 857 289 857 q 405 885 386 857 q 424 947 424 914 l 551 947 q 538 874 551 910 q 498 811 525 839 q 431 767 471 783 q 338 750 390 750 q 244 767 285 750 q 177 811 204 783 q 137 874 150 839 q 124 947 124 910 l 251 947 z "},"Ą":{"ha":897,"x_min":7,"x_max":971,"o":"m 358 926 l 539 926 l 890 0 q 844 -58 864 -26 q 825 -114 825 -90 q 861 -143 825 -143 q 897 -137 881 -143 q 931 -119 914 -131 l 971 -224 q 892 -261 935 -247 q 814 -275 850 -275 q 708 -244 742 -275 q 674 -164 674 -214 q 699 -80 674 -122 q 761 0 725 -37 l 696 0 l 615 235 l 271 235 l 190 0 l 7 0 l 358 926 m 565 379 l 443 739 l 319 379 l 565 379 z "},"ą":{"ha":700,"x_min":39,"x_max":700,"o":"m 465 61 q 385 4 439 29 q 264 -21 331 -21 q 184 -8 224 -21 q 112 30 144 4 q 59 96 79 56 q 39 190 39 136 q 60 290 39 246 q 118 363 81 333 q 208 408 156 393 q 325 424 261 424 q 368 423 344 424 q 414 421 392 422 q 465 418 439 419 l 465 433 q 426 510 465 482 q 325 538 388 538 q 214 519 256 538 q 140 481 172 501 l 65 592 q 110 620 85 606 q 168 647 135 635 q 245 666 201 658 q 347 674 289 674 q 460 656 410 674 q 547 608 511 639 q 603 533 583 576 q 622 438 622 489 l 622 0 q 573 -56 596 -25 q 550 -111 550 -87 q 585 -140 550 -140 q 625 -133 607 -140 q 661 -114 643 -125 l 700 -217 q 624 -253 665 -240 q 547 -267 583 -267 q 444 -237 476 -267 q 411 -158 411 -207 q 436 -77 411 -118 q 496 0 461 -36 l 469 0 l 465 61 m 465 294 q 417 297 440 296 q 376 299 397 299 q 339 300 354 300 q 228 269 260 300 q 196 197 196 238 q 226 132 196 156 q 314 108 256 108 q 370 118 343 108 q 418 144 397 128 q 452 183 439 161 q 465 231 465 206 l 465 294 z "},"Ć":{"ha":944,"x_min":61,"x_max":913,"o":"m 913 169 q 855 104 892 138 q 768 42 818 71 q 658 -4 718 14 q 532 -22 599 -22 q 342 14 428 -22 q 193 115 256 50 q 96 267 131 179 q 61 458 61 354 q 96 649 61 560 q 194 804 131 738 q 344 910 257 871 q 538 949 432 949 q 663 934 606 949 q 766 894 719 919 q 849 835 813 869 q 913 763 885 801 l 789 653 q 685 756 744 717 q 538 794 626 794 q 415 767 469 794 q 323 695 361 740 q 265 590 285 650 q 244 463 244 529 q 265 338 244 396 q 322 236 285 279 q 412 168 360 193 q 529 143 464 143 q 631 157 589 143 q 703 192 674 171 q 753 235 733 213 q 790 275 774 258 l 913 169 m 544 1213 l 747 1213 l 589 996 l 443 996 l 544 1213 z "},"ć":{"ha":683,"x_min":50,"x_max":656,"o":"m 654 86 q 546 8 608 38 q 400 -21 483 -21 q 251 4 317 -21 q 142 75 186 29 q 74 185 97 121 q 50 326 50 249 q 76 460 50 397 q 147 571 101 524 q 258 646 193 618 q 400 674 322 674 q 544 645 479 674 q 656 568 610 617 l 551 463 q 486 513 524 494 q 400 531 449 531 q 318 513 353 531 q 260 468 283 496 q 226 403 238 440 q 215 326 215 365 q 226 253 215 289 q 260 188 238 217 q 318 140 283 158 q 400 122 353 122 q 489 141 449 122 q 557 192 529 160 l 654 86 m 381 947 l 556 947 l 446 750 l 314 750 l 381 947 z "},"Ĉ":{"ha":944,"x_min":61,"x_max":913,"o":"m 913 169 q 855 104 892 138 q 768 42 818 71 q 658 -4 718 14 q 532 -22 599 -22 q 342 14 428 -22 q 193 115 256 50 q 96 267 131 179 q 61 458 61 354 q 96 649 61 560 q 194 804 131 738 q 344 910 257 871 q 538 949 432 949 q 663 934 606 949 q 766 894 719 919 q 849 835 813 869 q 913 763 885 801 l 789 653 q 685 756 744 717 q 538 794 626 794 q 415 767 469 794 q 323 695 361 740 q 265 590 285 650 q 244 463 244 529 q 265 338 244 396 q 322 236 285 279 q 412 168 360 193 q 529 143 464 143 q 631 157 589 143 q 703 192 674 171 q 753 235 733 213 q 790 275 774 258 l 913 169 m 461 1213 l 615 1213 l 768 996 l 624 996 l 538 1110 l 453 996 l 308 996 l 461 1213 z "},"ĉ":{"ha":683,"x_min":50,"x_max":656,"o":"m 654 86 q 546 8 608 38 q 400 -21 483 -21 q 251 4 317 -21 q 142 75 186 29 q 74 185 97 121 q 50 326 50 249 q 76 460 50 397 q 147 571 101 524 q 258 646 193 618 q 400 674 322 674 q 544 645 479 674 q 656 568 610 617 l 551 463 q 486 513 524 494 q 400 531 449 531 q 318 513 353 531 q 260 468 283 496 q 226 403 238 440 q 215 326 215 365 q 226 253 215 289 q 260 188 238 217 q 318 140 283 158 q 400 122 353 122 q 489 141 449 122 q 557 192 529 160 l 654 86 m 321 947 l 475 947 l 619 750 l 475 750 l 397 856 l 321 750 l 176 750 l 321 947 z "},"Ċ":{"ha":944,"x_min":61,"x_max":913,"o":"m 913 169 q 855 104 892 138 q 768 42 818 71 q 658 -4 718 14 q 532 -22 599 -22 q 342 14 428 -22 q 193 115 256 50 q 96 267 131 179 q 61 458 61 354 q 96 649 61 560 q 194 804 131 738 q 344 910 257 871 q 538 949 432 949 q 663 934 606 949 q 766 894 719 919 q 849 835 813 869 q 913 763 885 801 l 789 653 q 685 756 744 717 q 538 794 626 794 q 415 767 469 794 q 323 695 361 740 q 265 590 285 650 q 244 463 244 529 q 265 338 244 396 q 322 236 285 279 q 412 168 360 193 q 529 143 464 143 q 631 157 589 143 q 703 192 674 171 q 753 235 733 213 q 790 275 774 258 l 913 169 m 436 1190 l 615 1190 l 615 1019 l 436 1019 l 436 1190 z "},"ċ":{"ha":683,"x_min":50,"x_max":656,"o":"m 654 86 q 546 8 608 38 q 400 -21 483 -21 q 251 4 317 -21 q 142 75 186 29 q 74 185 97 121 q 50 326 50 249 q 76 460 50 397 q 147 571 101 524 q 258 646 193 618 q 400 674 322 674 q 544 645 479 674 q 656 568 610 617 l 551 463 q 486 513 524 494 q 400 531 449 531 q 318 513 353 531 q 260 468 283 496 q 226 403 238 440 q 215 326 215 365 q 226 253 215 289 q 260 188 238 217 q 318 140 283 158 q 400 122 353 122 q 489 141 449 122 q 557 192 529 160 l 654 86 m 308 931 l 479 931 l 479 768 l 308 768 l 308 931 z "},"Č":{"ha":944,"x_min":61,"x_max":913,"o":"m 913 169 q 855 104 892 138 q 768 42 818 71 q 658 -4 718 14 q 532 -22 599 -22 q 342 14 428 -22 q 193 115 256 50 q 96 267 131 179 q 61 458 61 354 q 96 649 61 560 q 194 804 131 738 q 344 910 257 871 q 538 949 432 949 q 663 934 606 949 q 766 894 719 919 q 849 835 813 869 q 913 763 885 801 l 789 653 q 685 756 744 717 q 538 794 626 794 q 415 767 469 794 q 323 695 361 740 q 265 590 285 650 q 244 463 244 529 q 265 338 244 396 q 322 236 285 279 q 412 168 360 193 q 529 143 464 143 q 631 157 589 143 q 703 192 674 171 q 753 235 733 213 q 790 275 774 258 l 913 169 m 311 1213 l 456 1213 l 542 1099 l 626 1213 l 771 1213 l 618 996 l 464 996 l 311 1213 z "},"č":{"ha":683,"x_min":50,"x_max":656,"o":"m 654 86 q 546 8 608 38 q 400 -21 483 -21 q 251 4 317 -21 q 142 75 186 29 q 74 185 97 121 q 50 326 50 249 q 76 460 50 397 q 147 571 101 524 q 258 646 193 618 q 400 674 322 674 q 544 645 479 674 q 656 568 610 617 l 551 463 q 486 513 524 494 q 400 531 449 531 q 318 513 353 531 q 260 468 283 496 q 226 403 238 440 q 215 326 215 365 q 226 253 215 289 q 260 188 238 217 q 318 140 283 158 q 400 122 353 122 q 489 141 449 122 q 557 192 529 160 l 654 86 m 172 947 l 317 947 l 394 842 l 471 947 l 615 947 l 471 750 l 317 750 l 172 947 z "},"Ď":{"ha":1008,"x_min":97,"x_max":935,"o":"m 97 926 l 443 926 q 642 899 551 926 q 797 814 732 871 q 899 668 863 757 q 935 458 935 579 q 898 258 935 343 q 795 115 861 172 q 639 28 729 57 q 442 0 549 0 l 97 0 l 97 926 m 426 156 q 668 232 585 156 q 751 456 751 308 q 674 686 751 601 q 426 771 597 771 l 272 771 l 272 156 l 426 156 m 215 1213 l 360 1213 l 446 1099 l 531 1213 l 675 1213 l 522 996 l 368 996 l 215 1213 z "},"ď":{"ha":774,"x_min":50,"x_max":931,"o":"m 531 64 q 500 35 518 50 q 458 7 482 19 q 403 -14 433 -6 q 336 -22 374 -22 q 232 0 283 -22 q 140 65 181 22 q 75 171 100 108 q 50 314 50 233 q 72 448 50 390 q 128 546 94 506 q 189 601 156 579 q 256 638 222 624 q 322 659 290 653 q 378 665 354 665 q 431 663 410 665 q 468 658 451 661 q 499 649 485 654 q 531 636 513 643 l 531 926 l 693 926 l 693 0 l 535 0 l 531 64 m 531 489 q 476 516 507 508 q 396 524 444 524 q 315 505 347 524 q 260 456 283 486 q 227 391 239 428 q 215 314 215 354 q 257 175 215 231 q 378 119 299 119 q 449 135 419 119 q 496 176 478 151 q 522 231 514 201 q 531 289 531 261 l 531 489 m 778 926 l 931 926 l 883 692 l 778 692 l 778 926 z "},"Đ":{"ha":1008,"x_min":4,"x_max":935,"o":"m 97 399 l 4 399 l 4 540 l 97 540 l 97 926 l 443 926 q 642 899 551 926 q 797 814 732 871 q 899 668 863 757 q 935 458 935 579 q 898 258 935 343 q 795 115 861 172 q 639 28 729 57 q 442 0 549 0 l 97 0 l 97 399 m 431 157 q 672 233 589 157 q 756 457 756 310 q 678 688 756 603 q 431 772 601 772 l 272 772 l 272 540 l 488 540 l 488 399 l 272 399 l 272 157 l 431 157 z "},"đ":{"ha":774,"x_min":50,"x_max":771,"o":"m 531 64 q 500 35 518 50 q 458 7 482 19 q 403 -14 433 -6 q 336 -22 374 -22 q 232 -1 283 -22 q 140 60 181 19 q 75 161 100 100 q 50 303 50 222 q 72 431 50 379 q 128 524 94 483 q 189 578 156 557 q 256 613 222 600 q 322 631 290 625 q 378 636 354 636 q 431 634 410 636 q 468 628 451 632 q 499 619 485 625 q 531 607 513 614 l 531 725 l 293 725 l 293 835 l 531 835 l 531 926 l 693 926 l 693 835 l 771 835 l 771 725 l 693 725 l 693 0 l 531 0 l 531 64 m 531 460 q 474 485 507 475 q 396 494 442 494 q 315 479 347 494 q 260 433 283 464 q 227 374 239 406 q 215 303 215 343 q 257 169 215 219 q 378 119 299 119 q 449 135 419 119 q 496 176 478 151 q 522 231 514 201 q 531 289 531 261 l 531 460 z "},"Ē":{"ha":789,"x_min":97,"x_max":729,"o":"m 97 926 l 697 926 l 697 772 l 272 772 l 272 554 l 585 554 l 585 399 l 272 399 l 272 157 l 729 157 l 729 0 l 97 0 l 97 926 m 186 1172 l 624 1172 l 624 1038 l 186 1038 l 186 1172 z "},"ē":{"ha":747,"x_min":50,"x_max":701,"o":"m 693 94 q 670 72 689 90 q 616 32 651 53 q 526 -6 581 11 q 394 -22 471 -22 q 253 4 317 -22 q 144 77 189 31 q 74 189 99 124 q 50 333 50 254 q 74 467 50 406 q 142 575 99 529 q 247 647 186 621 q 381 674 307 674 q 531 641 469 674 q 631 556 593 608 q 685 436 668 503 q 701 300 701 369 l 701 276 l 215 276 q 231 211 215 240 q 273 161 247 182 q 331 129 299 140 q 396 118 364 118 q 478 127 443 118 q 539 148 514 136 q 580 173 564 160 q 604 194 596 186 l 693 94 m 533 394 q 524 444 533 419 q 495 490 514 469 q 447 523 476 510 q 381 536 418 536 q 309 523 340 536 q 257 490 278 510 q 225 444 236 469 q 214 394 214 419 l 533 394 m 197 901 l 560 901 l 560 774 l 197 774 l 197 901 z "},"Ĕ":{"ha":789,"x_min":97,"x_max":729,"o":"m 97 926 l 697 926 l 697 772 l 272 772 l 272 554 l 585 554 l 585 399 l 272 399 l 272 157 l 729 157 l 729 0 l 97 0 l 97 926 m 310 1199 q 334 1134 310 1163 q 403 1106 358 1106 q 472 1134 447 1106 q 496 1199 496 1163 l 625 1199 q 611 1122 625 1158 q 570 1056 597 1085 q 501 1009 543 1026 q 403 992 458 992 q 304 1009 346 992 q 235 1056 263 1026 q 194 1122 208 1085 q 181 1199 181 1158 l 310 1199 z "},"ĕ":{"ha":747,"x_min":50,"x_max":701,"o":"m 693 94 q 670 72 689 90 q 616 32 651 53 q 526 -6 581 11 q 394 -22 471 -22 q 253 4 317 -22 q 144 77 189 31 q 74 189 99 124 q 50 333 50 254 q 74 467 50 406 q 142 575 99 529 q 247 647 186 621 q 381 674 307 674 q 531 641 469 674 q 631 556 593 608 q 685 436 668 503 q 701 300 701 369 l 701 276 l 215 276 q 231 211 215 240 q 273 161 247 182 q 331 129 299 140 q 396 118 364 118 q 478 127 443 118 q 539 148 514 136 q 580 173 564 160 q 604 194 596 186 l 693 94 m 533 394 q 524 444 533 419 q 495 490 514 469 q 447 523 476 510 q 381 536 418 536 q 309 523 340 536 q 257 490 278 510 q 225 444 236 469 q 214 394 214 419 l 533 394 m 300 947 q 319 885 300 914 q 386 857 338 857 q 453 885 435 857 q 472 947 472 914 l 600 947 q 587 874 600 910 q 547 811 574 839 q 479 767 519 783 q 386 750 439 750 q 293 767 333 750 q 226 811 253 783 q 185 874 199 839 q 172 947 172 910 l 300 947 z "},"Ė":{"ha":789,"x_min":97,"x_max":729,"o":"m 97 926 l 697 926 l 697 772 l 272 772 l 272 554 l 585 554 l 585 399 l 272 399 l 272 157 l 729 157 l 729 0 l 97 0 l 97 926 m 319 1190 l 499 1190 l 499 1019 l 319 1019 l 319 1190 z "},"ė":{"ha":747,"x_min":50,"x_max":701,"o":"m 693 94 q 670 72 689 90 q 616 32 651 53 q 526 -6 581 11 q 394 -22 471 -22 q 253 4 317 -22 q 144 77 189 31 q 74 189 99 124 q 50 333 50 254 q 74 467 50 406 q 142 575 99 529 q 247 647 186 621 q 381 674 307 674 q 531 641 469 674 q 631 556 593 608 q 685 436 668 503 q 701 300 701 369 l 701 276 l 215 276 q 231 211 215 240 q 273 161 247 182 q 331 129 299 140 q 396 118 364 118 q 478 127 443 118 q 539 148 514 136 q 580 173 564 160 q 604 194 596 186 l 693 94 m 533 394 q 524 444 533 419 q 495 490 514 469 q 447 523 476 510 q 381 536 418 536 q 309 523 340 536 q 257 490 278 510 q 225 444 236 469 q 214 394 214 419 l 533 394 m 299 931 l 469 931 l 469 768 l 299 768 l 299 931 z "},"Ę":{"ha":789,"x_min":97,"x_max":729,"o":"m 97 926 l 697 926 l 697 772 l 272 772 l 272 554 l 585 554 l 585 399 l 272 399 l 272 157 l 729 157 l 729 0 l 649 0 q 603 -58 622 -26 q 583 -114 583 -90 q 619 -143 583 -143 q 656 -137 639 -143 q 689 -119 672 -131 l 729 -224 q 651 -261 693 -247 q 572 -275 608 -275 q 466 -244 500 -275 q 432 -164 432 -214 q 458 -80 432 -122 q 519 0 483 -37 l 97 0 l 97 926 z "},"ę":{"ha":747,"x_min":50,"x_max":701,"o":"m 657 -217 q 581 -253 622 -240 q 504 -267 540 -267 q 401 -237 433 -267 q 368 -158 368 -207 q 387 -88 368 -124 q 433 -21 406 -53 q 414 -22 424 -21 q 394 -22 404 -22 q 253 6 317 -22 q 144 82 189 33 q 74 195 99 131 q 50 333 50 260 q 75 467 50 406 q 144 575 100 529 q 249 647 188 621 q 383 674 310 674 q 527 641 467 674 q 626 556 588 608 q 683 436 665 503 q 701 300 701 369 l 701 276 l 215 276 q 231 211 215 240 q 273 161 247 182 q 331 129 299 140 q 396 118 364 118 q 478 127 443 118 q 539 148 514 136 q 580 173 564 160 q 604 194 596 186 l 693 94 q 667 72 688 89 q 613 29 646 54 q 579 2 597 18 q 545 -33 561 -14 q 518 -72 529 -51 q 507 -111 507 -93 q 542 -140 507 -140 q 582 -133 564 -140 q 618 -114 600 -125 l 657 -217 m 538 394 q 528 444 538 419 q 499 488 518 468 q 451 521 481 508 q 385 533 422 533 q 315 521 347 533 q 261 488 283 508 q 226 444 239 468 q 214 394 214 419 l 538 394 z "},"Ě":{"ha":789,"x_min":97,"x_max":729,"o":"m 97 926 l 697 926 l 697 772 l 272 772 l 272 554 l 585 554 l 585 399 l 272 399 l 272 157 l 729 157 l 729 0 l 97 0 l 97 926 m 181 1213 l 325 1213 l 411 1099 l 496 1213 l 640 1213 l 488 996 l 333 996 l 181 1213 z "},"ě":{"ha":747,"x_min":50,"x_max":701,"o":"m 693 94 q 670 72 689 90 q 616 32 651 53 q 526 -6 581 11 q 394 -22 471 -22 q 253 4 317 -22 q 144 77 189 31 q 74 189 99 124 q 50 333 50 254 q 74 467 50 406 q 142 575 99 529 q 247 647 186 621 q 381 674 307 674 q 531 641 469 674 q 631 556 593 608 q 685 436 668 503 q 701 300 701 369 l 701 276 l 215 276 q 231 211 215 240 q 273 161 247 182 q 331 129 299 140 q 396 118 364 118 q 478 127 443 118 q 539 148 514 136 q 580 173 564 160 q 604 194 596 186 l 693 94 m 533 394 q 524 444 533 419 q 495 490 514 469 q 447 523 476 510 q 381 536 418 536 q 309 523 340 536 q 257 490 278 510 q 225 444 236 469 q 214 394 214 419 l 533 394 m 160 947 l 304 947 l 382 842 l 458 947 l 603 947 l 458 750 l 304 750 l 160 947 z "},"Ĝ":{"ha":1004,"x_min":61,"x_max":917,"o":"m 585 490 l 917 490 l 917 107 q 774 17 863 56 q 546 -22 685 -22 q 342 15 432 -22 q 190 117 253 53 q 94 269 128 182 q 61 458 61 357 q 96 649 61 560 q 194 804 131 738 q 344 910 257 871 q 538 949 432 949 q 663 934 606 949 q 766 894 719 919 q 849 835 813 869 q 913 763 885 801 l 789 653 q 685 756 744 717 q 538 794 626 794 q 415 767 469 794 q 323 695 361 740 q 265 590 285 650 q 244 463 244 529 q 269 328 244 388 q 335 225 293 268 q 434 159 378 182 q 553 136 490 136 q 750 197 681 136 l 750 342 l 585 342 l 585 490 m 451 1213 l 606 1213 l 758 996 l 614 996 l 528 1110 l 443 996 l 299 996 l 451 1213 z "},"ĝ":{"ha":771,"x_min":50,"x_max":690,"o":"m 186 -106 q 270 -144 225 -132 q 376 -156 315 -156 q 483 -117 440 -156 q 526 -8 526 -78 l 526 63 q 453 17 493 35 q 349 0 414 0 q 223 24 278 0 q 129 90 168 47 q 70 190 90 132 q 50 317 50 247 q 76 453 50 389 q 149 564 101 517 q 265 638 197 611 q 418 665 333 665 q 574 651 503 665 q 690 622 646 638 l 690 -11 q 667 -132 690 -79 q 601 -221 643 -185 q 503 -276 560 -257 q 379 -294 446 -294 q 288 -290 328 -294 q 217 -276 249 -285 q 160 -256 186 -268 q 113 -226 135 -243 l 186 -106 m 526 510 q 486 520 507 517 q 421 524 465 524 q 333 507 371 524 q 269 463 296 490 q 230 398 243 435 q 217 321 217 361 q 254 194 217 246 q 375 143 292 143 q 488 175 450 143 q 526 276 526 207 l 526 510 m 322 947 l 476 947 l 621 750 l 476 750 l 399 856 l 322 750 l 178 750 l 322 947 z "},"Ğ":{"ha":1004,"x_min":61,"x_max":917,"o":"m 585 490 l 917 490 l 917 107 q 774 17 863 56 q 546 -22 685 -22 q 342 15 432 -22 q 190 117 253 53 q 94 269 128 182 q 61 458 61 357 q 96 649 61 560 q 194 804 131 738 q 344 910 257 871 q 538 949 432 949 q 663 934 606 949 q 766 894 719 919 q 849 835 813 869 q 913 763 885 801 l 789 653 q 685 756 744 717 q 538 794 626 794 q 415 767 469 794 q 323 695 361 740 q 265 590 285 650 q 244 463 244 529 q 269 328 244 388 q 335 225 293 268 q 434 159 378 182 q 553 136 490 136 q 750 197 681 136 l 750 342 l 585 342 l 585 490 m 433 1199 q 458 1134 433 1163 q 526 1106 482 1106 q 595 1134 571 1106 q 619 1199 619 1163 l 749 1199 q 735 1122 749 1158 q 694 1056 721 1085 q 624 1009 667 1026 q 526 992 582 992 q 428 1009 469 992 q 359 1056 386 1026 q 318 1122 332 1085 q 304 1199 304 1158 l 433 1199 z "},"ğ":{"ha":771,"x_min":50,"x_max":690,"o":"m 186 -106 q 270 -144 225 -132 q 376 -156 315 -156 q 483 -117 440 -156 q 526 -8 526 -78 l 526 63 q 453 17 493 35 q 349 0 414 0 q 223 24 278 0 q 129 90 168 47 q 70 190 90 132 q 50 317 50 247 q 76 453 50 389 q 149 564 101 517 q 265 638 197 611 q 418 665 333 665 q 574 651 503 665 q 690 622 646 638 l 690 -11 q 667 -132 690 -79 q 601 -221 643 -185 q 503 -276 560 -257 q 379 -294 446 -294 q 288 -290 328 -294 q 217 -276 249 -285 q 160 -256 186 -268 q 113 -226 135 -243 l 186 -106 m 526 510 q 486 520 507 517 q 421 524 465 524 q 333 507 371 524 q 269 463 296 490 q 230 398 243 435 q 217 321 217 361 q 254 194 217 246 q 375 143 292 143 q 488 175 450 143 q 526 276 526 207 l 526 510 m 329 947 q 348 885 329 914 q 415 857 367 857 q 483 885 464 857 q 501 947 501 914 l 629 947 q 616 874 629 910 q 576 811 603 839 q 508 767 549 783 q 415 750 468 750 q 322 767 363 750 q 255 811 282 783 q 215 874 228 839 q 201 947 201 910 l 329 947 z "},"Ġ":{"ha":1004,"x_min":61,"x_max":917,"o":"m 585 490 l 917 490 l 917 107 q 774 17 863 56 q 546 -22 685 -22 q 342 15 432 -22 q 190 117 253 53 q 94 269 128 182 q 61 458 61 357 q 96 649 61 560 q 194 804 131 738 q 344 910 257 871 q 538 949 432 949 q 663 934 606 949 q 766 894 719 919 q 849 835 813 869 q 913 763 885 801 l 789 653 q 685 756 744 717 q 538 794 626 794 q 415 767 469 794 q 323 695 361 740 q 265 590 285 650 q 244 463 244 529 q 269 328 244 388 q 335 225 293 268 q 434 159 378 182 q 553 136 490 136 q 750 197 681 136 l 750 342 l 585 342 l 585 490 m 442 1190 l 621 1190 l 621 1019 l 442 1019 l 442 1190 z "},"ġ":{"ha":771,"x_min":50,"x_max":690,"o":"m 186 -106 q 270 -144 225 -132 q 376 -156 315 -156 q 483 -117 440 -156 q 526 -8 526 -78 l 526 63 q 453 17 493 35 q 349 0 414 0 q 223 24 278 0 q 129 90 168 47 q 70 190 90 132 q 50 317 50 247 q 76 453 50 389 q 149 564 101 517 q 265 638 197 611 q 418 665 333 665 q 574 651 503 665 q 690 622 646 638 l 690 -11 q 667 -132 690 -79 q 601 -221 643 -185 q 503 -276 560 -257 q 379 -294 446 -294 q 288 -290 328 -294 q 217 -276 249 -285 q 160 -256 186 -268 q 113 -226 135 -243 l 186 -106 m 526 510 q 486 520 507 517 q 421 524 465 524 q 333 507 371 524 q 269 463 296 490 q 230 398 243 435 q 217 321 217 361 q 254 194 217 246 q 375 143 292 143 q 488 175 450 143 q 526 276 526 207 l 526 510 m 331 931 l 501 931 l 501 768 l 331 768 l 331 931 z "},"Ģ":{"ha":1004,"x_min":61,"x_max":917,"o":"m 585 490 l 917 490 l 917 107 q 774 17 863 56 q 546 -22 685 -22 q 342 15 432 -22 q 190 117 253 53 q 94 269 128 182 q 61 458 61 357 q 96 649 61 560 q 194 804 131 738 q 344 910 257 871 q 538 949 432 949 q 663 934 606 949 q 766 894 719 919 q 849 835 813 869 q 913 763 885 801 l 789 653 q 685 756 744 717 q 538 794 626 794 q 415 767 469 794 q 323 695 361 740 q 265 590 285 650 q 244 463 244 529 q 269 328 244 388 q 335 225 293 268 q 434 159 378 182 q 553 136 490 136 q 750 197 681 136 l 750 342 l 585 342 l 585 490 m 444 -71 l 638 -71 l 515 -290 l 371 -290 l 444 -71 z "},"ģ":{"ha":771,"x_min":50,"x_max":690,"o":"m 186 -106 q 270 -144 225 -132 q 376 -156 315 -156 q 483 -117 440 -156 q 526 -8 526 -78 l 526 63 q 453 17 493 35 q 349 0 414 0 q 223 24 278 0 q 129 90 168 47 q 70 190 90 132 q 50 317 50 247 q 76 453 50 389 q 149 564 101 517 q 265 638 197 611 q 418 665 333 665 q 574 651 503 665 q 690 622 646 638 l 690 -11 q 667 -132 690 -79 q 601 -221 643 -185 q 503 -276 560 -257 q 379 -294 446 -294 q 288 -290 328 -294 q 217 -276 249 -285 q 160 -256 186 -268 q 113 -226 135 -243 l 186 -106 m 526 510 q 486 520 507 517 q 421 524 465 524 q 333 507 371 524 q 269 463 296 490 q 230 398 243 435 q 217 321 217 361 q 254 194 217 246 q 375 143 292 143 q 488 175 450 143 q 526 276 526 207 l 526 510 m 431 947 l 563 947 l 496 750 l 321 750 l 431 947 z "},"Ĥ":{"ha":1004,"x_min":97,"x_max":907,"o":"m 97 926 l 272 926 l 272 554 l 732 554 l 732 926 l 907 926 l 907 0 l 732 0 l 732 399 l 272 399 l 272 0 l 97 0 l 97 926 m 424 1213 l 578 1213 l 731 996 l 586 996 l 500 1110 l 415 996 l 271 996 l 424 1213 z "},"ĥ":{"ha":765,"x_min":81,"x_max":688,"o":"m 81 926 l 242 926 l 242 585 q 315 639 267 613 q 438 665 363 665 q 544 646 497 665 q 623 591 592 626 q 671 506 654 556 q 688 396 688 456 l 688 0 l 524 0 l 524 394 q 490 491 524 457 q 401 525 456 525 q 339 512 368 525 q 289 475 310 499 q 256 420 268 451 q 244 353 244 389 l 244 0 l 81 0 l 81 926 m 239 1213 l 393 1213 l 546 996 l 401 996 l 315 1110 l 231 996 l 86 996 l 239 1213 z "},"Ħ":{"ha":1004,"x_min":0,"x_max":1004,"o":"m 97 676 l 0 676 l 0 799 l 97 799 l 97 926 l 271 926 l 271 799 l 733 799 l 733 926 l 907 926 l 907 799 l 1004 799 l 1004 676 l 907 676 l 907 0 l 733 0 l 733 399 l 271 399 l 271 0 l 97 0 l 97 676 m 733 554 l 733 676 l 271 676 l 271 554 l 733 554 z "},"ħ":{"ha":765,"x_min":3,"x_max":688,"o":"m 81 725 l 3 725 l 3 835 l 81 835 l 81 926 l 242 926 l 242 835 l 481 835 l 481 725 l 242 725 l 242 557 q 315 611 267 585 q 438 638 363 638 q 544 618 497 638 q 623 563 592 599 q 671 478 654 528 q 688 368 688 428 l 688 0 l 524 0 l 524 367 q 490 463 524 429 q 401 497 456 497 q 339 484 368 497 q 289 447 310 471 q 256 392 268 424 q 244 325 244 361 l 244 0 l 81 0 l 81 725 z "},"Ĩ":{"ha":369,"x_min":-92,"x_max":469,"o":"m 97 926 l 272 926 l 272 0 l 97 0 l 97 926 m -92 1117 q -61 1144 -79 1129 q -20 1172 -43 1160 q 29 1193 3 1185 q 86 1201 56 1201 q 139 1192 117 1201 q 181 1172 161 1183 q 223 1152 201 1161 q 274 1143 244 1143 q 352 1161 322 1143 q 401 1194 382 1179 l 469 1090 q 439 1063 457 1078 q 399 1034 421 1047 q 350 1012 376 1021 q 293 1003 324 1003 q 240 1013 263 1003 q 197 1033 218 1022 q 155 1054 176 1044 q 104 1064 133 1064 q 26 1046 56 1064 q -24 1013 -4 1028 l -92 1117 z "},"ĩ":{"ha":339,"x_min":-94,"x_max":438,"o":"m 88 651 l 251 651 l 251 0 l 88 0 l 88 651 m -94 854 q -66 881 -83 867 q -27 906 -49 894 q 20 926 -6 918 q 74 935 46 935 q 124 926 103 935 q 164 906 144 917 q 204 887 183 896 q 253 878 225 878 q 328 896 300 878 q 375 928 356 914 l 438 831 q 409 803 426 818 q 371 776 392 789 q 324 756 350 764 q 271 747 299 747 q 220 756 242 747 q 179 777 199 765 q 139 798 160 789 q 90 807 118 807 q 15 789 43 807 q -32 757 -12 771 l -94 854 z "},"Ī":{"ha":369,"x_min":-32,"x_max":406,"o":"m 97 926 l 272 926 l 272 0 l 97 0 l 97 926 m -32 1172 l 406 1172 l 406 1038 l -32 1038 l -32 1172 z "},"ī":{"ha":339,"x_min":-11,"x_max":351,"o":"m 88 651 l 251 651 l 251 0 l 88 0 l 88 651 m -11 901 l 351 901 l 351 774 l -11 774 l -11 901 z "},"Ĭ":{"ha":369,"x_min":-37,"x_max":407,"o":"m 97 926 l 272 926 l 272 0 l 97 0 l 97 926 m 92 1199 q 116 1134 92 1163 q 185 1106 140 1106 q 253 1134 229 1106 q 278 1199 278 1163 l 407 1199 q 393 1122 407 1158 q 352 1056 379 1085 q 283 1009 325 1026 q 185 992 240 992 q 86 1009 128 992 q 17 1056 44 1026 q -24 1122 -10 1085 q -37 1199 -37 1158 l 92 1199 z "},"ĭ":{"ha":339,"x_min":-40,"x_max":388,"o":"m 88 651 l 251 651 l 251 0 l 88 0 l 88 651 m 88 947 q 106 885 88 914 q 174 857 125 857 q 241 885 222 857 q 260 947 260 914 l 388 947 q 374 874 388 910 q 334 811 361 839 q 267 767 307 783 q 174 750 226 750 q 81 767 121 750 q 13 811 40 783 q -27 874 -14 839 q -40 947 -40 910 l 88 947 z "},"Į":{"ha":369,"x_min":56,"x_max":353,"o":"m 97 926 l 272 926 l 272 0 q 226 -58 246 -26 q 207 -114 207 -90 q 243 -143 207 -143 q 279 -137 263 -143 q 313 -119 296 -131 l 353 -224 q 274 -261 317 -247 q 196 -275 232 -275 q 90 -244 124 -275 q 56 -164 56 -214 q 81 -80 56 -122 q 143 0 107 -37 l 97 0 l 97 926 z "},"į":{"ha":339,"x_min":40,"x_max":329,"o":"m 88 651 l 251 651 l 251 0 q 202 -56 225 -25 q 179 -111 179 -87 q 214 -140 179 -140 q 254 -133 236 -140 q 290 -114 272 -125 l 329 -217 q 253 -253 294 -240 q 176 -267 213 -267 q 73 -237 106 -267 q 40 -158 40 -207 q 65 -77 40 -118 q 125 0 90 -36 l 88 0 l 88 651 m 82 926 l 257 926 l 257 754 l 82 754 l 82 926 z "},"İ":{"ha":369,"x_min":94,"x_max":274,"o":"m 97 926 l 272 926 l 272 0 l 97 0 l 97 926 m 94 1190 l 274 1190 l 274 1019 l 94 1019 l 94 1190 z "},"ı":{"ha":339,"x_min":88,"x_max":251,"o":"m 88 651 l 251 651 l 251 0 l 88 0 l 88 651 z "},"Ĳ":{"ha":1099,"x_min":97,"x_max":1008,"o":"m 97 926 l 272 926 l 272 0 l 97 0 l 97 926 m 529 218 q 611 153 574 169 q 697 138 649 138 q 747 147 722 138 q 790 174 771 156 q 822 219 810 192 q 833 282 833 246 l 833 926 l 1008 926 l 1008 272 q 981 132 1008 189 q 911 40 954 75 q 814 -10 868 6 q 706 -25 760 -25 q 527 9 597 -25 q 407 107 457 43 l 529 218 z "},"ĳ":{"ha":660,"x_min":82,"x_max":576,"o":"m 82 926 l 257 926 l 257 754 l 82 754 l 82 926 m 88 651 l 251 651 l 251 0 l 88 0 l 88 651 m 401 926 l 576 926 l 576 754 l 401 754 l 401 926 m 261 -115 q 292 -130 274 -122 q 336 -137 310 -137 q 388 -111 368 -137 q 408 -33 408 -85 l 408 651 l 572 651 l 572 -1 q 565 -99 572 -50 q 534 -187 557 -147 q 469 -253 511 -228 q 358 -278 428 -278 q 262 -260 300 -278 q 200 -226 224 -243 l 261 -115 z "},"Ĵ":{"ha":706,"x_min":14,"x_max":760,"o":"m 136 218 q 218 153 181 169 q 304 138 256 138 q 353 147 329 138 q 397 174 378 156 q 428 219 417 192 q 440 282 440 246 l 440 926 l 615 926 l 615 272 q 588 132 615 189 q 518 40 561 75 q 421 -10 475 6 q 313 -25 367 -25 q 134 9 204 -25 q 14 107 64 43 l 136 218 m 453 1213 l 607 1213 l 760 996 l 615 996 l 529 1110 l 444 996 l 300 996 l 453 1213 z "},"ĵ":{"ha":339,"x_min":-121,"x_max":393,"o":"m -60 -115 q -29 -130 -47 -122 q 15 -137 -11 -137 q 67 -111 47 -137 q 88 -33 88 -85 l 88 651 l 251 651 l 251 -1 q 244 -99 251 -50 q 213 -187 236 -147 q 149 -253 190 -228 q 38 -278 107 -278 q -59 -260 -21 -278 q -121 -226 -97 -243 l -60 -115 m 94 947 l 249 947 l 393 750 l 249 750 l 171 856 l 94 750 l -50 750 l 94 947 z "},"Ķ":{"ha":863,"x_min":97,"x_max":851,"o":"m 97 926 l 272 926 l 272 546 l 615 926 l 814 926 l 472 547 l 851 0 l 640 0 l 358 421 l 272 325 l 272 0 l 97 0 l 97 926 m 342 -71 l 535 -71 l 413 -290 l 268 -290 l 342 -71 z "},"ķ":{"ha":711,"x_min":81,"x_max":700,"o":"m 81 926 l 244 926 l 244 421 l 479 651 l 672 651 l 428 411 l 700 0 l 504 0 l 315 300 l 244 231 l 244 0 l 81 0 l 81 926 m 282 -71 l 457 -71 l 347 -268 l 215 -268 l 282 -71 z "},"ĸ":{"ha":711,"x_min":81,"x_max":700,"o":"m 81 651 l 244 651 l 244 421 l 479 651 l 672 651 l 428 411 l 700 0 l 504 0 l 315 300 l 244 231 l 244 0 l 81 0 l 81 651 z "},"Ĺ":{"ha":768,"x_min":97,"x_max":729,"o":"m 97 926 l 272 926 l 272 156 l 729 156 l 729 0 l 97 0 l 97 926 m 213 1213 l 415 1213 l 257 996 l 111 996 l 213 1213 z "},"ĺ":{"ha":325,"x_min":81,"x_max":385,"o":"m 81 926 l 244 926 l 244 0 l 81 0 l 81 926 m 182 1213 l 385 1213 l 226 996 l 81 996 l 182 1213 z "},"Ļ":{"ha":768,"x_min":97,"x_max":729,"o":"m 97 926 l 272 926 l 272 156 l 729 156 l 729 0 l 97 0 l 97 926 m 324 -71 l 517 -71 l 394 -290 l 250 -290 l 324 -71 z "},"ļ":{"ha":325,"x_min":7,"x_max":249,"o":"m 81 926 l 244 926 l 244 0 l 81 0 l 81 926 m 74 -71 l 249 -71 l 139 -268 l 7 -268 l 74 -71 z "},"Ľ":{"ha":768,"x_min":97,"x_max":729,"o":"m 97 926 l 272 926 l 272 156 l 729 156 l 729 0 l 97 0 l 97 926 m 400 926 l 579 926 l 532 664 l 400 664 l 400 926 z "},"ľ":{"ha":325,"x_min":81,"x_max":471,"o":"m 81 926 l 244 926 l 244 0 l 81 0 l 81 926 m 318 926 l 471 926 l 424 692 l 318 692 l 318 926 z "},"Ŀ":{"ha":768,"x_min":97,"x_max":729,"o":"m 97 926 l 272 926 l 272 156 l 729 156 l 729 0 l 97 0 l 97 926 m 474 611 l 653 611 l 653 440 l 474 440 l 474 611 z "},"ŀ":{"ha":533,"x_min":81,"x_max":515,"o":"m 81 926 l 244 926 l 244 0 l 81 0 l 81 926 m 344 575 l 515 575 l 515 413 l 344 413 l 344 575 z "},"Ł":{"ha":768,"x_min":4,"x_max":729,"o":"m 97 350 l 4 292 l 4 443 l 97 501 l 97 926 l 272 926 l 272 613 l 471 739 l 471 586 l 272 461 l 272 156 l 729 156 l 729 0 l 97 0 l 97 350 z "},"ł":{"ha":325,"x_min":4,"x_max":321,"o":"m 81 364 l 4 315 l 4 454 l 81 503 l 81 926 l 244 926 l 244 610 l 321 660 l 321 521 l 244 471 l 244 0 l 81 0 l 81 364 z "},"Ń":{"ha":990,"x_min":97,"x_max":893,"o":"m 97 926 l 274 926 l 722 268 l 722 926 l 893 926 l 893 0 l 721 0 l 268 667 l 268 0 l 97 0 l 97 926 m 511 1213 l 714 1213 l 556 996 l 410 996 l 511 1213 z "},"ń":{"ha":765,"x_min":81,"x_max":688,"o":"m 81 651 l 238 651 l 242 578 q 272 607 254 592 q 313 635 289 622 q 368 657 338 649 q 438 665 399 665 q 624 592 560 665 q 688 396 688 519 l 688 0 l 524 0 l 524 394 q 490 491 524 457 q 401 525 456 525 q 339 512 368 525 q 289 475 310 499 q 256 420 268 451 q 244 353 244 389 l 244 0 l 81 0 l 81 651 m 388 947 l 563 947 l 453 750 l 321 750 l 388 947 z "},"Ņ":{"ha":990,"x_min":97,"x_max":893,"o":"m 97 926 l 274 926 l 722 268 l 722 926 l 893 926 l 893 0 l 721 0 l 268 667 l 268 0 l 97 0 l 97 926 m 431 -71 l 624 -71 l 501 -290 l 357 -290 l 431 -71 z "},"ņ":{"ha":765,"x_min":81,"x_max":688,"o":"m 81 651 l 238 651 l 242 578 q 272 607 254 592 q 313 635 289 622 q 368 657 338 649 q 438 665 399 665 q 624 592 560 665 q 688 396 688 519 l 688 0 l 524 0 l 524 394 q 490 491 524 457 q 401 525 456 525 q 339 512 368 525 q 289 475 310 499 q 256 420 268 451 q 244 353 244 389 l 244 0 l 81 0 l 81 651 m 300 -71 l 475 -71 l 365 -268 l 233 -268 l 300 -71 z "},"Ň":{"ha":990,"x_min":97,"x_max":893,"o":"m 97 926 l 274 926 l 722 268 l 722 926 l 893 926 l 893 0 l 721 0 l 268 667 l 268 0 l 97 0 l 97 926 m 269 1213 l 414 1213 l 500 1099 l 585 1213 l 729 1213 l 576 996 l 422 996 l 269 1213 z "},"ň":{"ha":765,"x_min":81,"x_max":688,"o":"m 81 651 l 238 651 l 242 578 q 272 607 254 592 q 313 635 289 622 q 368 657 338 649 q 438 665 399 665 q 624 592 560 665 q 688 396 688 519 l 688 0 l 524 0 l 524 394 q 490 491 524 457 q 401 525 456 525 q 339 512 368 525 q 289 475 310 499 q 256 420 268 451 q 244 353 244 389 l 244 0 l 81 0 l 81 651 m 169 947 l 314 947 l 392 842 l 468 947 l 613 947 l 468 750 l 314 750 l 169 947 z "},"ŉ":{"ha":765,"x_min":19,"x_max":688,"o":"m 81 651 l 238 651 l 242 578 q 272 607 254 592 q 313 635 289 622 q 368 657 338 649 q 438 665 399 665 q 624 592 560 665 q 688 396 688 519 l 688 0 l 524 0 l 524 394 q 490 491 524 457 q 401 525 456 525 q 339 512 368 525 q 289 475 310 499 q 256 420 268 451 q 244 353 244 389 l 244 0 l 81 0 l 81 651 m 31 947 l 196 947 l 142 750 l 19 750 l 31 947 z "},"Ŋ":{"ha":990,"x_min":97,"x_max":893,"o":"m 97 926 l 274 926 l 722 268 l 722 926 l 893 926 l 893 0 q 884 -99 893 -49 q 851 -188 875 -149 q 783 -253 826 -228 q 671 -278 740 -278 q 569 -260 608 -278 q 504 -226 531 -243 l 568 -110 q 600 -124 581 -117 q 646 -132 619 -132 q 701 -105 681 -132 q 721 -25 721 -78 l 721 0 l 268 667 l 268 0 l 97 0 l 97 926 z "},"ŋ":{"ha":765,"x_min":81,"x_max":688,"o":"m 81 651 l 238 651 l 242 578 q 272 607 254 592 q 313 635 289 622 q 368 657 338 649 q 438 665 399 665 q 544 646 497 665 q 623 591 592 626 q 671 506 654 556 q 688 396 688 456 l 688 0 q 680 -97 688 -49 q 649 -186 672 -146 q 585 -251 626 -226 q 474 -276 543 -276 q 377 -259 415 -276 q 315 -225 339 -242 l 376 -114 q 407 -128 389 -121 q 451 -136 425 -136 q 503 -110 483 -136 q 524 -32 524 -83 l 524 394 q 490 491 524 457 q 401 525 456 525 q 339 512 368 525 q 289 475 310 499 q 256 420 268 451 q 244 353 244 389 l 244 0 l 81 0 l 81 651 z "},"Ō":{"ha":1086,"x_min":61,"x_max":1025,"o":"m 543 -25 q 354 13 442 -25 q 201 118 267 51 q 99 274 136 185 q 61 464 61 363 q 99 654 61 565 q 201 809 136 743 q 353 913 265 875 q 543 951 442 951 q 732 913 644 951 q 885 809 819 875 q 988 654 950 743 q 1025 464 1025 565 q 988 274 1025 363 q 885 118 950 185 q 732 13 819 51 q 543 -25 644 -25 m 543 140 q 667 167 611 140 q 761 238 722 193 q 821 343 800 283 q 842 468 842 403 q 821 594 842 535 q 761 697 800 653 q 667 767 722 742 q 543 793 611 793 q 419 767 474 793 q 325 697 364 742 q 265 594 286 653 q 244 468 244 535 q 265 343 244 403 q 325 238 286 283 q 419 167 364 193 q 543 140 474 140 m 326 1172 l 764 1172 l 764 1038 l 326 1038 l 326 1172 z "},"ō":{"ha":800,"x_min":50,"x_max":750,"o":"m 50 326 q 76 460 50 397 q 147 571 101 524 q 258 646 193 618 q 400 674 322 674 q 542 646 478 674 q 653 571 607 618 q 724 460 699 524 q 750 326 750 397 q 724 192 750 256 q 653 81 699 129 q 542 6 607 33 q 400 -22 478 -22 q 258 6 322 -22 q 147 81 193 33 q 76 192 101 129 q 50 326 50 256 m 400 119 q 482 138 447 119 q 540 188 517 157 q 574 254 563 218 q 585 326 585 290 q 574 398 585 361 q 540 465 563 435 q 482 513 517 494 q 400 532 447 532 q 318 513 353 532 q 260 465 283 494 q 226 398 238 435 q 215 326 215 361 q 226 254 215 290 q 260 188 238 218 q 318 138 283 157 q 400 119 353 119 m 221 903 l 583 903 l 583 775 l 221 775 l 221 903 z "},"Ŏ":{"ha":1086,"x_min":61,"x_max":1025,"o":"m 543 -25 q 354 13 442 -25 q 201 118 267 51 q 99 274 136 185 q 61 464 61 363 q 99 654 61 565 q 201 809 136 743 q 353 913 265 875 q 543 951 442 951 q 732 913 644 951 q 885 809 819 875 q 988 654 950 743 q 1025 464 1025 565 q 988 274 1025 363 q 885 118 950 185 q 732 13 819 51 q 543 -25 644 -25 m 543 140 q 667 167 611 140 q 761 238 722 193 q 821 343 800 283 q 842 468 842 403 q 821 594 842 535 q 761 697 800 653 q 667 767 722 742 q 543 793 611 793 q 419 767 474 793 q 325 697 364 742 q 265 594 286 653 q 244 468 244 535 q 265 343 244 403 q 325 238 286 283 q 419 167 364 193 q 543 140 474 140 m 450 1199 q 474 1134 450 1163 q 543 1106 499 1106 q 612 1134 588 1106 q 636 1199 636 1163 l 765 1199 q 751 1122 765 1158 q 710 1056 738 1085 q 641 1009 683 1026 q 543 992 599 992 q 444 1009 486 992 q 376 1056 403 1026 q 335 1122 349 1085 q 321 1199 321 1158 l 450 1199 z "},"ŏ":{"ha":800,"x_min":50,"x_max":750,"o":"m 50 326 q 76 460 50 397 q 147 571 101 524 q 258 646 193 618 q 400 674 322 674 q 542 646 478 674 q 653 571 607 618 q 724 460 699 524 q 750 326 750 397 q 724 192 750 256 q 653 81 699 129 q 542 6 607 33 q 400 -22 478 -22 q 258 6 322 -22 q 147 81 193 33 q 76 192 101 129 q 50 326 50 256 m 400 119 q 482 138 447 119 q 540 188 517 157 q 574 254 563 218 q 585 326 585 290 q 574 398 585 361 q 540 465 563 435 q 482 513 517 494 q 400 532 447 532 q 318 513 353 532 q 260 465 283 494 q 226 398 238 435 q 215 326 215 361 q 226 254 215 290 q 260 188 238 218 q 318 138 283 157 q 400 119 353 119 m 315 947 q 334 885 315 914 q 401 857 353 857 q 469 885 450 857 q 488 947 488 914 l 615 947 q 602 874 615 910 q 562 811 589 839 q 494 767 535 783 q 401 750 454 750 q 308 767 349 750 q 241 811 268 783 q 201 874 214 839 q 188 947 188 910 l 315 947 z "},"Ő":{"ha":1086,"x_min":61,"x_max":1025,"o":"m 543 -25 q 354 13 442 -25 q 201 118 267 51 q 99 274 136 185 q 61 464 61 363 q 99 654 61 565 q 201 809 136 743 q 353 913 265 875 q 543 951 442 951 q 732 913 644 951 q 885 809 819 875 q 988 654 950 743 q 1025 464 1025 565 q 988 274 1025 363 q 885 118 950 185 q 732 13 819 51 q 543 -25 644 -25 m 543 140 q 667 167 611 140 q 761 238 722 193 q 821 343 800 283 q 842 468 842 403 q 821 594 842 535 q 761 697 800 653 q 667 767 722 742 q 543 793 611 793 q 419 767 474 793 q 325 697 364 742 q 265 594 286 653 q 244 468 244 535 q 265 343 244 403 q 325 238 286 283 q 419 167 364 193 q 543 140 474 140 m 457 1213 l 649 1213 l 490 996 l 356 996 l 457 1213 m 714 1213 l 906 1213 l 747 996 l 613 996 l 714 1213 z "},"ő":{"ha":800,"x_min":50,"x_max":750,"o":"m 50 326 q 76 460 50 397 q 147 571 101 524 q 258 646 193 618 q 400 674 322 674 q 542 646 478 674 q 653 571 607 618 q 724 460 699 524 q 750 326 750 397 q 724 192 750 256 q 653 81 699 129 q 542 6 607 33 q 400 -22 478 -22 q 258 6 322 -22 q 147 81 193 33 q 76 192 101 129 q 50 326 50 256 m 400 119 q 482 138 447 119 q 540 188 517 157 q 574 254 563 218 q 585 326 585 290 q 574 398 585 361 q 540 465 563 435 q 482 513 517 494 q 400 532 447 532 q 318 513 353 532 q 260 465 283 494 q 226 398 238 435 q 215 326 215 361 q 226 254 215 290 q 260 188 238 218 q 318 138 283 157 q 400 119 353 119 m 507 947 l 672 947 l 563 750 l 440 750 l 507 947 m 282 947 l 447 947 l 338 750 l 215 750 l 282 947 z "},"Ŕ":{"ha":814,"x_min":97,"x_max":782,"o":"m 97 926 l 404 926 q 553 900 492 926 q 651 833 614 874 q 706 743 689 792 q 724 650 724 694 q 685 495 724 563 q 568 388 647 428 l 782 0 l 585 0 l 397 365 l 265 365 l 265 0 l 97 0 l 97 926 m 406 510 q 509 549 472 510 q 546 643 546 588 q 507 740 546 703 q 406 778 468 778 l 265 778 l 265 510 l 406 510 m 388 1213 l 590 1213 l 432 996 l 286 996 l 388 1213 z "},"ŕ":{"ha":531,"x_min":81,"x_max":518,"o":"m 81 651 l 238 651 l 242 569 q 270 600 253 583 q 311 631 288 617 q 366 654 335 644 q 438 664 397 664 q 480 661 461 664 q 518 651 499 658 l 485 497 q 451 507 468 504 q 410 510 433 510 q 346 499 376 510 q 293 467 315 488 q 258 417 271 446 q 244 351 244 388 l 244 0 l 81 0 l 81 651 m 297 947 l 472 947 l 363 750 l 231 750 l 297 947 z "},"Ŗ":{"ha":814,"x_min":97,"x_max":782,"o":"m 97 926 l 404 926 q 553 900 492 926 q 651 833 614 874 q 706 743 689 792 q 724 650 724 694 q 685 495 724 563 q 568 388 647 428 l 782 0 l 585 0 l 397 365 l 265 365 l 265 0 l 97 0 l 97 926 m 406 510 q 509 549 472 510 q 546 643 546 588 q 507 740 546 703 q 406 778 468 778 l 265 778 l 265 510 l 406 510 m 328 -71 l 521 -71 l 399 -290 l 254 -290 l 328 -71 z "},"ŗ":{"ha":531,"x_min":13,"x_max":518,"o":"m 81 651 l 238 651 l 242 569 q 270 600 253 583 q 311 631 288 617 q 366 654 335 644 q 438 664 397 664 q 480 661 461 664 q 518 651 499 658 l 485 497 q 451 507 468 504 q 410 510 433 510 q 346 499 376 510 q 293 467 315 488 q 258 417 271 446 q 244 351 244 388 l 244 0 l 81 0 l 81 651 m 79 -71 l 254 -71 l 144 -268 l 13 -268 l 79 -71 z "},"Ř":{"ha":814,"x_min":97,"x_max":782,"o":"m 97 926 l 404 926 q 553 900 492 926 q 651 833 614 874 q 706 743 689 792 q 724 650 724 694 q 685 495 724 563 q 568 388 647 428 l 782 0 l 585 0 l 397 365 l 265 365 l 265 0 l 97 0 l 97 926 m 406 510 q 509 549 472 510 q 546 643 546 588 q 507 740 546 703 q 406 778 468 778 l 265 778 l 265 510 l 406 510 m 150 1213 l 294 1213 l 381 1099 l 465 1213 l 610 1213 l 457 996 l 303 996 l 150 1213 z "},"ř":{"ha":531,"x_min":69,"x_max":518,"o":"m 81 651 l 238 651 l 242 569 q 270 600 253 583 q 311 631 288 617 q 366 654 335 644 q 438 664 397 664 q 480 661 461 664 q 518 651 499 658 l 485 497 q 451 507 468 504 q 410 510 433 510 q 346 499 376 510 q 293 467 315 488 q 258 417 271 446 q 244 351 244 388 l 244 0 l 81 0 l 81 651 m 69 947 l 214 947 l 292 842 l 368 947 l 513 947 l 368 750 l 214 750 l 69 947 z "},"Ś":{"ha":824,"x_min":43,"x_max":736,"o":"m 165 261 q 205 220 182 242 q 256 180 228 199 q 320 149 285 161 q 400 136 356 136 q 522 174 482 136 q 561 264 561 211 q 550 316 561 293 q 513 356 539 339 q 444 388 486 374 q 339 414 401 401 q 228 453 275 426 q 151 515 182 479 q 106 595 121 551 q 90 685 90 639 q 110 785 90 738 q 169 870 129 833 q 270 929 210 907 q 413 951 331 951 q 539 935 486 951 q 627 896 592 918 q 682 852 663 874 q 710 821 701 831 l 594 713 q 572 733 588 718 q 534 761 557 747 q 479 786 511 775 q 407 797 447 797 q 344 788 371 797 q 301 763 318 778 q 275 728 283 747 q 267 693 267 710 q 276 649 267 668 q 306 613 285 629 q 365 583 328 596 q 460 558 403 569 q 564 525 514 547 q 652 467 614 503 q 713 381 690 432 q 736 260 736 331 q 711 147 736 199 q 642 57 686 96 q 536 -3 597 18 q 403 -25 475 -25 q 277 -8 333 -25 q 176 34 221 8 q 98 90 131 60 q 43 149 65 121 l 165 261 m 429 1213 l 632 1213 l 474 996 l 328 996 l 429 1213 z "},"ś":{"ha":664,"x_min":49,"x_max":611,"o":"m 147 186 q 224 135 178 156 q 331 115 271 115 q 415 129 383 115 q 447 175 447 143 q 442 201 447 189 q 418 224 436 213 q 368 246 400 235 q 282 269 336 257 q 213 292 249 278 q 145 330 176 306 q 94 388 114 354 q 74 469 74 422 q 97 556 74 518 q 159 620 121 594 q 245 660 197 646 q 342 674 293 674 q 488 656 428 674 q 597 601 549 638 l 513 486 q 443 522 486 506 q 342 538 400 538 q 260 520 283 538 q 238 478 238 503 q 276 430 238 447 q 394 393 314 413 q 484 365 444 382 q 552 324 524 349 q 596 265 581 299 q 611 183 611 231 q 589 98 611 136 q 528 33 567 60 q 440 -8 490 7 q 332 -22 389 -22 q 167 3 240 -22 q 49 79 93 29 l 147 186 m 343 947 l 518 947 l 408 750 l 276 750 l 343 947 z "},"Ŝ":{"ha":824,"x_min":43,"x_max":736,"o":"m 165 261 q 205 220 182 242 q 256 180 228 199 q 320 149 285 161 q 400 136 356 136 q 522 174 482 136 q 561 264 561 211 q 550 316 561 293 q 513 356 539 339 q 444 388 486 374 q 339 414 401 401 q 228 453 275 426 q 151 515 182 479 q 106 595 121 551 q 90 685 90 639 q 110 785 90 738 q 169 870 129 833 q 270 929 210 907 q 413 951 331 951 q 539 935 486 951 q 627 896 592 918 q 682 852 663 874 q 710 821 701 831 l 594 713 q 572 733 588 718 q 534 761 557 747 q 479 786 511 775 q 407 797 447 797 q 344 788 371 797 q 301 763 318 778 q 275 728 283 747 q 267 693 267 710 q 276 649 267 668 q 306 613 285 629 q 365 583 328 596 q 460 558 403 569 q 564 525 514 547 q 652 467 614 503 q 713 381 690 432 q 736 260 736 331 q 711 147 736 199 q 642 57 686 96 q 536 -3 597 18 q 403 -25 475 -25 q 277 -8 333 -25 q 176 34 221 8 q 98 90 131 60 q 43 149 65 121 l 165 261 m 336 1213 l 490 1213 l 643 996 l 499 996 l 413 1110 l 328 996 l 183 996 l 336 1213 z "},"ŝ":{"ha":664,"x_min":49,"x_max":611,"o":"m 147 186 q 224 135 178 156 q 331 115 271 115 q 415 129 383 115 q 447 175 447 143 q 442 201 447 189 q 418 224 436 213 q 368 246 400 235 q 282 269 336 257 q 213 292 249 278 q 145 330 176 306 q 94 388 114 354 q 74 469 74 422 q 97 556 74 518 q 159 620 121 594 q 245 660 197 646 q 342 674 293 674 q 488 656 428 674 q 597 601 549 638 l 513 486 q 443 522 486 506 q 342 538 400 538 q 260 520 283 538 q 238 478 238 503 q 276 430 238 447 q 394 393 314 413 q 484 365 444 382 q 552 324 524 349 q 596 265 581 299 q 611 183 611 231 q 589 98 611 136 q 528 33 567 60 q 440 -8 490 7 q 332 -22 389 -22 q 167 3 240 -22 q 49 79 93 29 l 147 186 m 272 947 l 426 947 l 571 750 l 426 750 l 349 856 l 272 750 l 128 750 l 272 947 z "},"Ş":{"ha":824,"x_min":43,"x_max":736,"o":"m 165 261 q 205 220 182 242 q 256 180 228 199 q 320 149 285 161 q 400 136 356 136 q 522 174 482 136 q 561 264 561 211 q 550 316 561 293 q 513 356 539 339 q 444 388 486 374 q 339 414 401 401 q 228 453 275 426 q 151 515 182 479 q 106 595 121 551 q 90 685 90 639 q 110 785 90 738 q 169 870 129 833 q 270 929 210 907 q 413 951 331 951 q 539 935 486 951 q 627 896 592 918 q 682 852 663 874 q 710 821 701 831 l 594 713 q 572 733 588 718 q 534 761 557 747 q 479 786 511 775 q 407 797 447 797 q 344 788 371 797 q 301 763 318 778 q 275 728 283 747 q 267 693 267 710 q 276 649 267 668 q 306 613 285 629 q 365 583 328 596 q 460 558 403 569 q 564 525 514 547 q 652 467 614 503 q 713 381 690 432 q 736 260 736 331 q 711 147 736 199 q 642 57 686 96 q 536 -3 597 18 q 403 -25 475 -25 q 277 -8 333 -25 q 176 34 221 8 q 98 90 131 60 q 43 149 65 121 l 165 261 m 247 -208 q 298 -222 274 -218 q 344 -225 322 -225 q 401 -215 381 -225 q 422 -183 422 -204 q 405 -155 422 -167 q 350 -143 388 -143 q 303 -147 326 -143 q 261 -158 279 -151 l 276 -64 q 328 -52 301 -57 q 394 -47 354 -47 q 513 -83 469 -47 q 557 -176 557 -119 q 541 -240 557 -212 q 499 -287 525 -268 q 440 -315 474 -306 q 372 -324 407 -324 q 313 -321 339 -324 q 268 -314 288 -318 q 229 -304 246 -310 l 247 -208 z "},"ş":{"ha":664,"x_min":49,"x_max":611,"o":"m 147 186 q 224 135 178 156 q 331 115 271 115 q 415 129 383 115 q 447 175 447 143 q 442 201 447 189 q 418 224 436 213 q 368 246 400 235 q 282 269 336 257 q 213 292 249 278 q 145 330 176 306 q 94 388 114 354 q 74 469 74 422 q 97 556 74 518 q 159 620 121 594 q 245 660 197 646 q 342 674 293 674 q 488 656 428 674 q 597 601 549 638 l 513 486 q 443 522 486 506 q 342 538 400 538 q 260 520 283 538 q 238 478 238 503 q 276 430 238 447 q 394 393 314 413 q 484 365 444 382 q 552 324 524 349 q 596 265 581 299 q 611 183 611 231 q 589 98 611 136 q 528 33 567 60 q 440 -8 490 7 q 332 -22 389 -22 q 167 3 240 -22 q 49 79 93 29 l 147 186 m 178 -208 q 228 -222 204 -218 q 274 -225 251 -225 q 354 -181 354 -225 q 337 -151 354 -164 q 279 -139 319 -139 q 233 -143 256 -139 q 192 -154 210 -147 l 207 -61 q 258 -49 232 -54 q 324 -44 283 -44 q 441 -81 399 -44 q 483 -174 483 -117 q 468 -237 483 -210 q 427 -284 453 -265 q 369 -312 401 -303 q 301 -321 336 -321 q 242 -318 268 -321 q 197 -311 217 -315 q 160 -301 175 -307 l 178 -208 z "},"Ţ":{"ha":867,"x_min":32,"x_max":835,"o":"m 346 772 l 32 772 l 32 926 l 835 926 l 835 772 l 521 772 l 521 0 l 346 0 l 346 772 m 288 -206 q 338 -219 314 -215 q 385 -222 363 -222 q 442 -212 421 -222 q 463 -181 463 -201 q 445 -152 463 -164 q 390 -140 428 -140 q 343 -144 367 -140 q 301 -156 319 -149 l 317 -61 q 368 -49 342 -54 q 435 -44 394 -44 q 553 -81 510 -44 q 597 -174 597 -117 q 581 -237 597 -210 q 540 -284 565 -265 q 481 -312 514 -303 q 413 -321 447 -321 q 353 -318 379 -321 q 308 -311 328 -315 q 269 -301 286 -307 l 288 -206 z "},"ţ":{"ha":558,"x_min":25,"x_max":554,"o":"m 136 518 l 25 518 l 25 651 l 136 651 l 136 863 l 300 863 l 300 651 l 475 651 l 475 518 l 300 518 l 300 233 q 319 148 300 178 q 379 118 338 118 q 441 129 418 118 q 485 156 464 140 l 554 54 q 458 -3 506 14 q 353 -21 411 -21 q 251 -3 293 -21 q 184 46 210 14 q 147 123 158 78 q 136 222 136 168 l 136 518 m 189 -222 q 239 -235 215 -232 q 285 -239 263 -239 q 365 -194 365 -239 q 348 -165 365 -178 q 290 -153 331 -153 q 244 -157 267 -153 q 203 -168 221 -161 l 218 -75 q 269 -63 243 -68 q 335 -58 294 -58 q 452 -94 410 -58 q 494 -187 494 -131 q 479 -251 494 -224 q 438 -298 464 -279 q 380 -326 413 -317 q 313 -335 347 -335 q 253 -332 279 -335 q 208 -325 228 -329 q 171 -315 186 -321 l 189 -222 z "},"Ť":{"ha":867,"x_min":32,"x_max":835,"o":"m 346 772 l 32 772 l 32 926 l 835 926 l 835 772 l 521 772 l 521 0 l 346 0 l 346 772 m 203 1213 l 347 1213 l 433 1099 l 518 1213 l 663 1213 l 510 996 l 356 996 l 203 1213 z "},"ť":{"ha":558,"x_min":25,"x_max":554,"o":"m 374 928 l 526 928 l 479 713 l 374 713 l 374 928 m 136 518 l 25 518 l 25 651 l 136 651 l 136 863 l 300 863 l 300 651 l 475 651 l 475 518 l 300 518 l 300 233 q 319 148 300 178 q 379 118 338 118 q 441 129 418 118 q 485 156 464 140 l 554 54 q 458 -3 506 14 q 353 -21 411 -21 q 251 -3 293 -21 q 184 46 210 14 q 147 123 158 78 q 136 222 136 168 l 136 518 z "},"Ŧ":{"ha":867,"x_min":32,"x_max":835,"o":"m 346 354 l 160 354 l 160 499 l 346 499 l 346 772 l 32 772 l 32 926 l 835 926 l 835 772 l 521 772 l 521 499 l 706 499 l 706 354 l 521 354 l 521 0 l 346 0 l 346 354 z "},"ŧ":{"ha":558,"x_min":25,"x_max":554,"o":"m 26 389 l 136 389 l 136 518 l 25 518 l 25 651 l 136 651 l 136 863 l 300 863 l 300 651 l 475 651 l 475 518 l 300 518 l 300 389 l 475 389 l 475 272 l 300 272 l 300 233 q 319 148 300 178 q 379 118 338 118 q 441 129 418 118 q 485 156 464 140 l 554 54 q 458 -3 506 14 q 353 -21 411 -21 q 251 -3 293 -21 q 184 46 210 14 q 147 123 158 78 q 136 222 136 168 l 136 272 l 26 272 l 26 389 z "},"Ũ":{"ha":936,"x_min":90,"x_max":846,"o":"m 90 926 l 265 926 l 265 372 q 276 277 265 319 q 310 205 286 235 q 372 159 333 175 q 468 143 411 143 q 564 159 525 143 q 626 205 603 175 q 660 277 650 235 q 671 372 671 319 l 671 926 l 846 926 l 846 342 q 821 197 846 264 q 747 81 796 131 q 628 3 699 32 q 468 -25 558 -25 q 308 3 378 -25 q 189 81 238 32 q 115 197 140 131 q 90 342 90 264 l 90 926 m 185 1117 q 215 1144 197 1129 q 256 1172 233 1160 q 306 1193 279 1185 q 363 1201 332 1201 q 415 1192 393 1201 q 458 1172 438 1183 q 499 1152 478 1161 q 550 1143 521 1143 q 628 1161 599 1143 q 678 1194 658 1179 l 746 1090 q 715 1063 733 1078 q 675 1034 697 1047 q 626 1012 653 1021 q 569 1003 600 1003 q 517 1013 539 1003 q 474 1033 494 1022 q 431 1054 453 1044 q 381 1064 410 1064 q 302 1046 332 1064 q 253 1013 272 1028 l 185 1117 z "},"ũ":{"ha":765,"x_min":78,"x_max":685,"o":"m 78 651 l 242 651 l 242 257 q 276 160 242 194 q 364 126 310 126 q 426 140 397 126 q 476 176 456 153 q 509 231 497 200 q 521 299 521 263 l 521 651 l 685 651 l 685 0 l 528 0 l 524 74 q 493 44 511 60 q 451 16 475 29 q 397 -6 428 3 q 328 -14 367 -14 q 142 59 206 -14 q 78 256 78 132 l 78 651 m 110 854 q 138 881 121 867 q 177 906 156 894 q 224 926 199 918 q 278 935 250 935 q 328 926 307 935 q 368 906 349 917 q 408 887 388 896 q 457 878 429 878 q 532 896 504 878 q 579 928 560 914 l 642 831 q 613 803 631 818 q 575 776 596 789 q 528 756 554 764 q 475 747 503 747 q 424 756 446 747 q 383 777 403 765 q 343 798 364 789 q 294 807 322 807 q 219 789 247 807 q 172 757 192 771 l 110 854 z "},"Ū":{"ha":936,"x_min":90,"x_max":846,"o":"m 90 926 l 265 926 l 265 372 q 276 277 265 319 q 310 205 286 235 q 372 159 333 175 q 468 143 411 143 q 564 159 525 143 q 626 205 603 175 q 660 277 650 235 q 671 372 671 319 l 671 926 l 846 926 l 846 342 q 821 197 846 264 q 747 81 796 131 q 628 3 699 32 q 468 -25 558 -25 q 308 3 378 -25 q 189 81 238 32 q 115 197 140 131 q 90 342 90 264 l 90 926 m 251 1172 l 689 1172 l 689 1038 l 251 1038 l 251 1172 z "},"ū":{"ha":765,"x_min":78,"x_max":685,"o":"m 78 651 l 242 651 l 242 257 q 276 160 242 194 q 364 126 310 126 q 426 140 397 126 q 476 176 456 153 q 509 231 497 200 q 521 299 521 263 l 521 651 l 685 651 l 685 0 l 528 0 l 524 74 q 493 44 511 60 q 451 16 475 29 q 397 -6 428 3 q 328 -14 367 -14 q 142 59 206 -14 q 78 256 78 132 l 78 651 m 197 901 l 560 901 l 560 774 l 197 774 l 197 901 z "},"Ŭ":{"ha":936,"x_min":90,"x_max":846,"o":"m 90 926 l 265 926 l 265 372 q 276 277 265 319 q 310 205 286 235 q 372 159 333 175 q 468 143 411 143 q 564 159 525 143 q 626 205 603 175 q 660 277 650 235 q 671 372 671 319 l 671 926 l 846 926 l 846 342 q 821 197 846 264 q 747 81 796 131 q 628 3 699 32 q 468 -25 558 -25 q 308 3 378 -25 q 189 81 238 32 q 115 197 140 131 q 90 342 90 264 l 90 926 m 378 1199 q 402 1134 378 1163 q 471 1106 426 1106 q 540 1134 515 1106 q 564 1199 564 1163 l 693 1199 q 679 1122 693 1158 q 638 1056 665 1085 q 569 1009 611 1026 q 471 992 526 992 q 372 1009 414 992 q 303 1056 331 1026 q 263 1122 276 1085 q 249 1199 249 1158 l 378 1199 z "},"ŭ":{"ha":765,"x_min":78,"x_max":685,"o":"m 78 651 l 242 651 l 242 257 q 276 160 242 194 q 364 126 310 126 q 426 140 397 126 q 476 176 456 153 q 509 231 497 200 q 521 299 521 263 l 521 651 l 685 651 l 685 0 l 528 0 l 524 74 q 493 44 511 60 q 451 16 475 29 q 397 -6 428 3 q 328 -14 367 -14 q 142 59 206 -14 q 78 256 78 132 l 78 651 m 296 947 q 315 885 296 914 q 382 857 333 857 q 449 885 431 857 q 468 947 468 914 l 596 947 q 583 874 596 910 q 542 811 569 839 q 475 767 515 783 q 382 750 435 750 q 289 767 329 750 q 222 811 249 783 q 181 874 194 839 q 168 947 168 910 l 296 947 z "},"Ů":{"ha":936,"x_min":90,"x_max":846,"o":"m 90 926 l 265 926 l 265 372 q 276 277 265 319 q 310 205 286 235 q 372 159 333 175 q 468 143 411 143 q 564 159 525 143 q 626 205 603 175 q 660 277 650 235 q 671 372 671 319 l 671 926 l 846 926 l 846 342 q 821 197 846 264 q 747 81 796 131 q 628 3 699 32 q 468 -25 558 -25 q 308 3 378 -25 q 189 81 238 32 q 115 197 140 131 q 90 342 90 264 l 90 926 m 285 1115 q 299 1187 285 1154 q 338 1243 313 1219 q 396 1280 363 1267 q 467 1293 429 1293 q 539 1280 506 1293 q 597 1243 572 1267 q 636 1187 622 1219 q 650 1117 650 1154 q 636 1045 650 1078 q 597 989 622 1013 q 539 952 572 965 q 468 939 506 939 q 396 952 429 939 q 338 989 363 965 q 299 1045 313 1013 q 285 1115 285 1078 m 468 1043 q 519 1063 500 1043 q 538 1117 538 1083 q 519 1169 538 1149 q 467 1189 500 1189 q 416 1169 435 1189 q 397 1115 397 1149 q 416 1063 397 1083 q 468 1043 435 1043 z "},"ů":{"ha":765,"x_min":78,"x_max":685,"o":"m 78 651 l 242 651 l 242 257 q 276 160 242 194 q 364 126 310 126 q 426 140 397 126 q 476 176 456 153 q 509 231 497 200 q 521 299 521 263 l 521 651 l 685 651 l 685 0 l 528 0 l 524 74 q 493 44 511 60 q 451 16 475 29 q 397 -6 428 3 q 328 -14 367 -14 q 142 59 206 -14 q 78 256 78 132 l 78 651 m 215 894 q 228 957 215 928 q 263 1007 242 986 q 315 1040 285 1028 q 378 1051 344 1051 q 441 1040 411 1051 q 493 1007 471 1028 q 528 958 515 986 q 542 896 542 929 q 528 833 542 863 q 494 783 515 804 q 442 751 472 763 q 379 739 413 739 q 316 751 346 739 q 264 783 286 763 q 228 833 242 804 q 215 894 215 861 m 378 833 q 422 851 404 833 q 439 894 439 868 q 422 937 439 919 q 379 954 404 954 q 335 937 353 954 q 318 894 318 919 q 335 851 318 868 q 378 833 353 833 z "},"Ű":{"ha":936,"x_min":90,"x_max":846,"o":"m 90 926 l 265 926 l 265 372 q 276 277 265 319 q 310 205 286 235 q 372 159 333 175 q 468 143 411 143 q 564 159 525 143 q 626 205 603 175 q 660 277 650 235 q 671 372 671 319 l 671 926 l 846 926 l 846 342 q 821 197 846 264 q 747 81 796 131 q 628 3 699 32 q 468 -25 558 -25 q 308 3 378 -25 q 189 81 238 32 q 115 197 140 131 q 90 342 90 264 l 90 926 m 354 1213 l 546 1213 l 388 996 l 253 996 l 354 1213 m 611 1213 l 803 1213 l 644 996 l 510 996 l 611 1213 z "},"ű":{"ha":765,"x_min":78,"x_max":685,"o":"m 78 651 l 242 651 l 242 257 q 276 160 242 194 q 364 126 310 126 q 426 140 397 126 q 476 176 456 153 q 509 231 497 200 q 521 299 521 263 l 521 651 l 685 651 l 685 0 l 528 0 l 524 74 q 493 44 511 60 q 451 16 475 29 q 397 -6 428 3 q 328 -14 367 -14 q 142 59 206 -14 q 78 256 78 132 l 78 651 m 492 947 l 657 947 l 547 750 l 425 750 l 492 947 m 267 947 l 432 947 l 322 750 l 200 750 l 267 947 z "},"Ų":{"ha":936,"x_min":90,"x_max":846,"o":"m 90 926 l 265 926 l 265 372 q 276 277 265 319 q 310 205 286 235 q 372 159 333 175 q 468 143 411 143 q 628 205 582 143 q 675 372 675 267 l 675 926 l 846 926 l 846 342 q 829 219 846 271 q 788 130 813 167 q 732 68 763 93 q 674 26 701 43 q 592 -41 614 -11 q 569 -103 569 -71 q 606 -143 569 -143 q 642 -137 625 -143 q 675 -119 658 -131 l 715 -224 q 637 -261 679 -247 q 558 -275 594 -275 q 452 -244 486 -275 q 418 -164 418 -214 q 437 -92 418 -128 q 483 -24 456 -57 l 460 -24 q 302 6 371 -24 q 186 85 233 35 q 115 201 139 135 q 90 342 90 267 l 90 926 z "},"ų":{"ha":765,"x_min":78,"x_max":763,"o":"m 78 651 l 242 651 l 242 257 q 276 160 242 194 q 364 126 310 126 q 426 140 397 126 q 476 176 456 153 q 509 231 497 200 q 521 299 521 263 l 521 651 l 685 651 l 685 0 q 635 -56 658 -25 q 613 -111 613 -87 q 647 -140 613 -140 q 688 -133 669 -140 q 724 -114 706 -125 l 763 -217 q 687 -253 728 -240 q 610 -267 646 -267 q 506 -237 539 -267 q 474 -158 474 -207 q 499 -77 474 -118 q 558 0 524 -36 l 528 0 l 524 74 q 493 44 511 60 q 451 16 475 29 q 397 -6 428 3 q 328 -14 367 -14 q 142 59 206 -14 q 78 256 78 132 l 78 651 z "},"Ŵ":{"ha":1222,"x_min":14,"x_max":1208,"o":"m 14 926 l 206 926 l 357 233 l 536 900 l 694 900 l 875 233 l 1025 926 l 1208 926 l 965 0 l 782 0 l 610 613 l 435 0 l 254 0 l 14 926 m 542 1213 l 696 1213 l 849 996 l 704 996 l 618 1110 l 533 996 l 389 996 l 542 1213 z "},"ŵ":{"ha":1040,"x_min":13,"x_max":1028,"o":"m 13 651 l 193 651 l 318 199 l 456 651 l 593 651 l 732 199 l 856 651 l 1028 651 l 807 0 l 649 0 l 515 393 l 386 0 l 233 0 l 13 651 m 453 947 l 607 947 l 751 750 l 607 750 l 529 856 l 453 750 l 308 750 l 453 947 z "},"Ŷ":{"ha":833,"x_min":7,"x_max":826,"o":"m 328 407 l 7 926 l 199 926 l 421 557 l 643 926 l 826 926 l 506 407 l 506 0 l 328 0 l 328 407 m 344 1213 l 499 1213 l 651 996 l 507 996 l 421 1110 l 336 996 l 192 996 l 344 1213 z "},"ŷ":{"ha":732,"x_min":7,"x_max":725,"o":"m 107 -129 q 138 -151 121 -140 q 179 -161 154 -161 q 234 -133 213 -161 q 279 -47 256 -106 l 300 6 l 7 651 l 196 651 l 382 206 l 546 651 l 725 651 l 453 0 q 414 -100 433 -49 q 366 -195 394 -151 q 296 -267 338 -239 q 190 -294 254 -294 q 98 -281 135 -294 q 33 -244 61 -268 l 107 -129 m 297 947 l 451 947 l 596 750 l 451 750 l 374 856 l 297 750 l 153 750 l 297 947 z "},"Ź":{"ha":914,"x_min":74,"x_max":840,"o":"m 74 153 l 619 772 l 99 772 l 99 926 l 829 926 l 829 772 l 294 153 l 840 153 l 840 0 l 74 0 l 74 153 m 464 1213 l 667 1213 l 508 996 l 363 996 l 464 1213 z "},"ź":{"ha":656,"x_min":64,"x_max":600,"o":"m 64 125 l 396 514 l 74 514 l 74 651 l 600 651 l 600 524 l 257 133 l 600 133 l 600 0 l 64 0 l 64 125 m 356 947 l 531 947 l 421 750 l 289 750 l 356 947 z "},"Ż":{"ha":914,"x_min":74,"x_max":840,"o":"m 74 153 l 619 772 l 99 772 l 99 926 l 829 926 l 829 772 l 294 153 l 840 153 l 840 0 l 74 0 l 74 153 m 383 1190 l 563 1190 l 563 1019 l 383 1019 l 383 1190 z "},"ż":{"ha":656,"x_min":64,"x_max":600,"o":"m 64 125 l 396 514 l 74 514 l 74 651 l 600 651 l 600 524 l 257 133 l 600 133 l 600 0 l 64 0 l 64 125 m 265 931 l 436 931 l 436 768 l 265 768 l 265 931 z "},"Ž":{"ha":914,"x_min":74,"x_max":840,"o":"m 74 153 l 619 772 l 99 772 l 99 926 l 829 926 l 829 772 l 294 153 l 840 153 l 840 0 l 74 0 l 74 153 m 242 1213 l 386 1213 l 472 1099 l 557 1213 l 701 1213 l 549 996 l 394 996 l 242 1213 z "},"ž":{"ha":656,"x_min":64,"x_max":600,"o":"m 64 125 l 396 514 l 74 514 l 74 651 l 600 651 l 600 524 l 257 133 l 600 133 l 600 0 l 64 0 l 64 125 m 131 947 l 275 947 l 353 842 l 429 947 l 574 947 l 429 750 l 275 750 l 131 947 z "},"ſ":{"ha":324,"x_min":81,"x_max":525,"o":"m 81 658 q 91 777 81 725 q 138 869 101 829 q 213 927 167 903 q 322 951 260 951 q 369 949 344 951 q 421 939 394 946 q 474 919 447 932 q 525 883 500 906 l 449 775 q 363 809 411 803 q 279 786 315 815 q 249 733 253 765 q 243 651 244 701 l 244 0 l 81 0 l 81 658 z "},"Ș":{"ha":824,"x_min":43,"x_max":736,"o":"m 165 261 q 205 220 182 242 q 256 180 228 199 q 320 149 285 161 q 400 136 356 136 q 522 174 482 136 q 561 264 561 211 q 550 316 561 293 q 513 356 539 339 q 444 388 486 374 q 339 414 401 401 q 228 453 275 426 q 151 515 182 479 q 106 595 121 551 q 90 685 90 639 q 110 785 90 738 q 169 870 129 833 q 270 929 210 907 q 413 951 331 951 q 539 935 486 951 q 627 896 592 918 q 682 852 663 874 q 710 821 701 831 l 594 713 q 572 733 588 718 q 534 761 557 747 q 479 786 511 775 q 407 797 447 797 q 344 788 371 797 q 301 763 318 778 q 275 728 283 747 q 267 693 267 710 q 276 649 267 668 q 306 613 285 629 q 365 583 328 596 q 460 558 403 569 q 564 525 514 547 q 652 467 614 503 q 713 381 690 432 q 736 260 736 331 q 711 147 736 199 q 642 57 686 96 q 536 -3 597 18 q 403 -25 475 -25 q 277 -8 333 -25 q 176 34 221 8 q 98 90 131 60 q 43 149 65 121 l 165 261 m 321 -71 l 514 -71 l 392 -290 l 247 -290 l 321 -71 z "},"ș":{"ha":664,"x_min":49,"x_max":611,"o":"m 147 186 q 224 135 178 156 q 331 115 271 115 q 415 129 383 115 q 447 175 447 143 q 442 201 447 189 q 418 224 436 213 q 368 246 400 235 q 282 269 336 257 q 213 292 249 278 q 145 330 176 306 q 94 388 114 354 q 74 469 74 422 q 97 556 74 518 q 159 620 121 594 q 245 660 197 646 q 342 674 293 674 q 488 656 428 674 q 597 601 549 638 l 513 486 q 443 522 486 506 q 342 538 400 538 q 260 520 283 538 q 238 478 238 503 q 276 430 238 447 q 394 393 314 413 q 484 365 444 382 q 552 324 524 349 q 596 265 581 299 q 611 183 611 231 q 589 98 611 136 q 528 33 567 60 q 440 -8 490 7 q 332 -22 389 -22 q 167 3 240 -22 q 49 79 93 29 l 147 186 m 263 -71 l 438 -71 l 328 -268 l 196 -268 l 263 -71 z "},"Ț":{"ha":867,"x_min":32,"x_max":835,"o":"m 346 772 l 32 772 l 32 926 l 835 926 l 835 772 l 521 772 l 521 0 l 346 0 l 346 772 m 338 -71 l 531 -71 l 408 -290 l 264 -290 l 338 -71 z "},"ț":{"ha":558,"x_min":25,"x_max":554,"o":"m 136 518 l 25 518 l 25 651 l 136 651 l 136 863 l 300 863 l 300 651 l 475 651 l 475 518 l 300 518 l 300 233 q 319 148 300 178 q 379 118 338 118 q 441 129 418 118 q 485 156 464 140 l 554 54 q 458 -3 506 14 q 353 -21 411 -21 q 251 -3 293 -21 q 184 46 210 14 q 147 123 158 78 q 136 222 136 168 l 136 518 m 258 -71 l 433 -71 l 324 -268 l 192 -268 l 258 -71 z "},"ȷ":{"ha":339,"x_min":-121,"x_max":251,"o":"m -60 -115 q -29 -130 -47 -122 q 15 -137 -11 -137 q 67 -111 47 -137 q 88 -33 88 -85 l 88 651 l 251 651 l 251 -1 q 244 -99 251 -50 q 213 -187 236 -147 q 149 -253 190 -228 q 38 -278 107 -278 q -59 -260 -21 -278 q -121 -226 -97 -243 l -60 -115 z "},"ʼ":{"ha":161,"x_min":14,"x_max":190,"o":"m 25 947 l 190 947 l 136 750 l 14 750 l 25 947 z "},"ˇ":{"ha":624,"x_min":90,"x_max":533,"o":"m 90 947 l 235 947 l 313 842 l 389 947 l 533 947 l 389 750 l 235 750 l 90 947 z "},"ˉ":{"ha":482,"x_min":60,"x_max":422,"o":"m 60 901 l 422 901 l 422 774 l 60 774 l 60 901 z "},"˘":{"ha":639,"x_min":126,"x_max":554,"o":"m 254 947 q 273 885 254 914 q 340 857 292 857 q 408 885 389 857 q 426 947 426 914 l 554 947 q 541 874 554 910 q 501 811 528 839 q 433 767 474 783 q 340 750 393 750 q 247 767 288 750 q 180 811 207 783 q 140 874 153 839 q 126 947 126 910 l 254 947 z "},"˙":{"ha":360,"x_min":94,"x_max":265,"o":"m 94 931 l 265 931 l 265 768 l 94 768 l 94 931 z "},"˚":{"ha":438,"x_min":56,"x_max":382,"o":"m 56 894 q 69 957 56 928 q 103 1007 82 986 q 155 1040 125 1028 q 218 1051 185 1051 q 281 1040 251 1051 q 333 1007 311 1028 q 369 958 356 986 q 382 896 382 929 q 369 833 382 863 q 334 783 356 804 q 283 751 313 763 q 219 739 253 739 q 156 751 186 739 q 104 783 126 763 q 69 833 82 804 q 56 894 56 861 m 218 833 q 262 851 244 833 q 279 894 279 868 q 262 937 279 919 q 219 954 244 954 q 176 937 193 954 q 158 894 158 919 q 176 851 158 868 q 218 833 193 833 z "},"˛":{"ha":414,"x_min":86,"x_max":375,"o":"m 297 0 q 248 -56 271 -25 q 225 -111 225 -87 q 260 -140 225 -140 q 300 -133 282 -140 q 336 -114 318 -125 l 375 -217 q 299 -253 340 -240 q 222 -267 258 -267 q 119 -237 151 -267 q 86 -158 86 -207 q 111 -77 86 -118 q 171 0 136 -36 l 297 0 z "},"˝":{"ha":618,"x_min":81,"x_max":538,"o":"m 372 947 l 538 947 l 428 750 l 306 750 l 372 947 m 147 947 l 313 947 l 203 750 l 81 750 l 147 947 z "},"₹":{"ha":757,"x_min":93,"x_max":689,"o":"m 93 531 l 93 649 l 406 649 q 218 761 372 761 l 93 761 l 93 879 l 689 879 l 653 761 l 510 761 q 547 710 533 739 q 568 649 561 681 l 689 649 l 653 531 l 571 531 q 549 453 565 490 q 506 387 533 417 q 438 335 478 357 q 343 304 397 313 l 688 0 l 457 0 l 93 321 l 93 414 l 217 414 q 344 442 296 414 q 407 531 392 469 l 93 531 z "},"Ẁ":{"ha":1222,"x_min":14,"x_max":1208,"o":"m 14 926 l 206 926 l 357 233 l 536 900 l 694 900 l 875 233 l 1025 926 l 1208 926 l 965 0 l 782 0 l 610 613 l 435 0 l 254 0 l 14 926 m 374 1213 l 576 1213 l 678 996 l 532 996 l 374 1213 z "},"ẁ":{"ha":1040,"x_min":13,"x_max":1028,"o":"m 13 651 l 193 651 l 318 199 l 456 651 l 593 651 l 732 199 l 856 651 l 1028 651 l 807 0 l 649 0 l 515 393 l 386 0 l 233 0 l 13 651 m 351 947 l 526 947 l 593 750 l 461 750 l 351 947 z "},"Ẃ":{"ha":1222,"x_min":14,"x_max":1208,"o":"m 14 926 l 206 926 l 357 233 l 536 900 l 694 900 l 875 233 l 1025 926 l 1208 926 l 965 0 l 782 0 l 610 613 l 435 0 l 254 0 l 14 926 m 646 1213 l 849 1213 l 690 996 l 544 996 l 646 1213 z "},"ẃ":{"ha":1040,"x_min":13,"x_max":1028,"o":"m 13 651 l 193 651 l 318 199 l 456 651 l 593 651 l 732 199 l 856 651 l 1028 651 l 807 0 l 649 0 l 515 393 l 386 0 l 233 0 l 13 651 m 522 947 l 697 947 l 588 750 l 456 750 l 522 947 z "},"Ẅ":{"ha":1222,"x_min":14,"x_max":1208,"o":"m 14 926 l 206 926 l 357 233 l 536 900 l 694 900 l 875 233 l 1025 926 l 1208 926 l 965 0 l 782 0 l 610 613 l 435 0 l 254 0 l 14 926 m 676 1186 l 847 1186 l 847 1024 l 676 1024 l 676 1186 m 381 1186 l 551 1186 l 551 1024 l 381 1024 l 381 1186 z "},"ẅ":{"ha":1040,"x_min":13,"x_max":1028,"o":"m 13 651 l 193 651 l 318 199 l 456 651 l 593 651 l 732 199 l 856 651 l 1028 651 l 807 0 l 649 0 l 515 393 l 386 0 l 233 0 l 13 651 m 568 925 l 728 925 l 728 774 l 568 774 l 568 925 m 311 925 l 471 925 l 471 774 l 311 774 l 311 925 z "},"Ỳ":{"ha":833,"x_min":7,"x_max":826,"o":"m 328 407 l 7 926 l 199 926 l 421 557 l 643 926 l 826 926 l 506 407 l 506 0 l 328 0 l 328 407 m 207 1213 l 410 1213 l 511 996 l 365 996 l 207 1213 z "},"ỳ":{"ha":732,"x_min":7,"x_max":725,"o":"m 107 -129 q 138 -151 121 -140 q 179 -161 154 -161 q 234 -133 213 -161 q 279 -47 256 -106 l 300 6 l 7 651 l 196 651 l 382 206 l 546 651 l 725 651 l 453 0 q 414 -100 433 -49 q 366 -195 394 -151 q 296 -267 338 -239 q 190 -294 254 -294 q 98 -281 135 -294 q 33 -244 61 -268 l 107 -129 m 210 947 l 385 947 l 451 750 l 319 750 l 210 947 z "},"⁄":{"ha":271,"x_min":-218,"x_max":494,"o":"m 346 875 l 494 875 l -69 0 l -218 0 l 346 875 z "},"⁰":{"ha":500,"x_min":29,"x_max":471,"o":"m 250 396 q 92 459 154 396 q 29 647 29 522 q 92 835 29 772 q 250 899 154 899 q 408 835 346 899 q 471 647 471 772 q 408 459 471 522 q 250 396 346 396 m 250 506 q 281 513 265 506 q 308 536 296 519 q 327 580 319 553 q 335 647 335 607 q 327 715 335 688 q 308 758 319 742 q 281 782 296 775 q 250 789 265 789 q 219 782 235 789 q 192 758 204 775 q 173 715 181 742 q 165 647 165 688 q 173 580 165 607 q 192 536 181 553 q 219 513 204 519 q 250 506 235 506 z "},"¹":{"ha":500,"x_min":82,"x_max":376,"o":"m 240 740 l 132 686 l 82 786 l 257 885 l 376 885 l 376 410 l 240 410 l 240 740 z "},"²":{"ha":500,"x_min":60,"x_max":440,"o":"m 68 472 q 85 537 68 508 q 128 589 103 565 q 183 632 153 613 q 239 669 214 651 q 281 703 264 686 q 299 738 299 719 q 283 773 299 763 q 244 783 268 783 q 175 768 213 783 q 110 735 138 753 l 60 832 q 147 877 94 856 q 261 899 200 899 q 396 856 353 899 q 439 751 439 814 q 415 670 439 701 q 358 615 392 639 q 288 571 325 592 q 222 521 250 550 l 440 521 l 440 410 l 68 410 l 68 472 z "},"³":{"ha":500,"x_min":42,"x_max":433,"o":"m 103 549 q 159 517 128 529 q 225 504 190 504 q 279 518 258 504 q 300 561 300 532 q 274 608 300 597 q 208 619 247 619 q 172 617 190 619 q 140 610 154 614 l 118 658 l 265 775 l 81 775 l 81 885 l 414 885 l 414 779 l 307 694 q 406 640 379 681 q 433 547 433 600 q 377 438 433 481 q 226 396 321 396 q 122 412 168 396 q 42 454 75 428 l 103 549 z "},"⁴":{"ha":500,"x_min":46,"x_max":475,"o":"m 46 592 l 285 885 l 418 885 l 418 592 l 475 592 l 475 493 l 418 493 l 418 410 l 297 410 l 297 493 l 46 493 l 46 592 m 297 592 l 297 761 l 154 592 l 297 592 z "},"⁵":{"ha":500,"x_min":36,"x_max":431,"o":"m 96 542 q 151 511 119 522 q 218 500 183 500 q 245 502 231 500 q 273 510 260 504 q 294 528 286 517 q 303 560 303 540 q 276 603 303 589 q 217 618 250 618 q 178 615 199 618 q 138 600 157 611 l 76 649 l 129 885 l 406 885 l 406 775 l 224 775 l 208 703 q 260 710 233 710 q 324 701 293 710 q 378 674 354 692 q 417 627 403 656 q 431 561 431 599 q 416 495 431 526 q 374 441 401 464 q 309 405 347 418 q 224 392 271 392 q 121 407 171 392 q 36 447 71 422 l 96 542 z "},"⁶":{"ha":500,"x_min":47,"x_max":450,"o":"m 376 769 q 339 784 361 778 q 293 790 317 790 q 213 761 246 790 q 176 688 179 732 q 228 706 200 700 q 282 713 257 713 q 344 704 314 713 q 399 678 375 696 q 436 631 422 660 q 450 560 450 601 q 435 497 450 526 q 395 444 421 467 q 333 409 369 422 q 256 396 297 396 q 179 409 217 396 q 113 450 142 422 q 65 522 83 478 q 47 628 47 567 q 65 737 47 688 q 113 822 82 786 q 188 878 144 858 q 286 899 232 899 q 369 887 335 899 q 419 867 404 875 l 376 769 m 176 596 q 198 519 176 544 q 253 494 219 494 q 311 513 289 494 q 333 560 333 531 q 315 603 333 585 q 260 621 297 621 q 212 613 236 621 q 176 596 188 604 z "},"⁷":{"ha":500,"x_min":63,"x_max":436,"o":"m 115 410 q 158 515 132 461 q 210 619 183 569 q 263 710 238 669 q 301 775 288 750 l 63 775 l 63 885 l 436 885 l 436 774 q 396 706 421 750 q 344 612 371 663 q 293 508 317 561 q 257 410 269 454 l 115 410 z "},"⁸":{"ha":500,"x_min":46,"x_max":453,"o":"m 138 661 q 67 763 67 697 q 82 822 67 796 q 122 864 97 847 q 180 890 147 881 q 249 899 213 899 q 317 890 283 899 q 376 865 350 882 q 417 822 401 847 q 432 763 432 796 q 413 704 432 731 q 361 661 394 678 q 427 617 401 646 q 453 544 453 589 q 436 479 453 507 q 392 433 419 451 q 327 405 364 414 q 249 396 290 396 q 170 405 207 396 q 106 433 133 414 q 62 479 78 451 q 46 544 46 507 q 72 617 46 589 q 138 661 97 646 m 251 619 q 202 594 225 613 q 179 547 179 576 q 201 507 179 519 q 249 494 222 494 q 296 507 274 494 q 318 547 318 519 q 297 594 318 576 q 251 619 275 613 m 246 701 q 290 721 269 708 q 311 760 311 733 q 292 797 311 785 q 249 810 274 810 q 205 797 224 810 q 186 760 186 785 q 204 721 186 733 q 246 701 222 708 z "},"⁹":{"ha":500,"x_min":49,"x_max":451,"o":"m 118 525 q 156 510 133 517 q 211 504 179 504 q 293 533 267 504 q 322 607 319 563 q 270 588 299 594 q 217 582 242 582 q 154 590 185 582 q 100 617 124 599 q 63 664 76 635 q 49 735 49 693 q 63 798 49 768 q 103 850 78 828 q 165 885 129 872 q 243 899 201 899 q 319 885 282 899 q 386 844 357 872 q 433 772 415 815 q 451 667 451 728 q 436 558 451 607 q 390 472 421 508 q 314 416 360 436 q 206 396 268 396 q 124 408 158 396 q 75 428 90 419 l 118 525 m 322 699 q 301 775 322 750 q 246 800 279 800 q 188 782 210 800 q 165 735 165 764 q 183 692 165 710 q 239 674 201 674 q 287 682 263 674 q 322 699 311 690 z "},"₀":{"ha":500,"x_min":29,"x_max":471,"o":"m 250 -12 q 92 51 154 -12 q 29 239 29 114 q 92 427 29 364 q 250 490 154 490 q 408 427 346 490 q 471 239 471 364 q 408 51 471 114 q 250 -12 346 -12 m 250 97 q 281 104 265 97 q 308 128 296 111 q 327 172 319 144 q 335 239 335 199 q 327 306 335 279 q 308 350 319 333 q 281 374 296 367 q 250 381 265 381 q 219 374 235 381 q 192 350 204 367 q 173 306 181 333 q 165 239 165 279 q 173 172 165 199 q 192 128 181 144 q 219 104 204 111 q 250 97 235 97 z "},"₁":{"ha":500,"x_min":82,"x_max":376,"o":"m 240 332 l 132 278 l 82 378 l 257 476 l 376 476 l 376 1 l 240 1 l 240 332 z "},"₂":{"ha":500,"x_min":60,"x_max":440,"o":"m 68 64 q 85 128 68 100 q 128 181 103 157 q 183 224 153 204 q 239 260 214 243 q 281 294 264 278 q 299 329 299 311 q 283 365 299 354 q 244 375 268 375 q 175 360 213 375 q 110 326 138 344 l 60 424 q 147 469 94 447 q 261 490 200 490 q 396 448 353 490 q 439 343 439 406 q 415 262 439 293 q 358 207 392 231 q 288 163 325 183 q 222 113 250 142 l 440 113 l 440 1 l 68 1 l 68 64 z "},"₃":{"ha":500,"x_min":42,"x_max":433,"o":"m 103 140 q 159 108 128 121 q 225 96 190 96 q 279 110 258 96 q 300 153 300 124 q 274 200 300 189 q 208 211 247 211 q 172 208 190 211 q 140 201 154 206 l 118 250 l 265 367 l 81 367 l 81 476 l 414 476 l 414 371 l 307 286 q 406 232 379 272 q 433 139 433 192 q 377 30 433 72 q 226 -12 321 -12 q 122 3 168 -12 q 42 46 75 19 l 103 140 z "},"₄":{"ha":500,"x_min":46,"x_max":475,"o":"m 46 183 l 285 476 l 418 476 l 418 183 l 475 183 l 475 85 l 418 85 l 418 1 l 297 1 l 297 85 l 46 85 l 46 183 m 297 183 l 297 353 l 154 183 l 297 183 z "},"₅":{"ha":500,"x_min":36,"x_max":431,"o":"m 96 133 q 151 103 119 114 q 218 92 183 92 q 245 94 231 92 q 273 102 260 96 q 294 120 286 108 q 303 151 303 132 q 276 195 303 181 q 217 210 250 210 q 178 206 199 210 q 138 192 157 203 l 76 240 l 129 476 l 406 476 l 406 367 l 224 367 l 208 294 q 260 301 233 301 q 324 292 293 301 q 378 265 354 283 q 417 219 403 247 q 431 153 431 190 q 416 87 431 118 q 374 33 401 56 q 309 -3 347 10 q 224 -17 271 -17 q 121 -1 171 -17 q 36 39 71 14 l 96 133 z "},"₆":{"ha":500,"x_min":47,"x_max":450,"o":"m 376 361 q 339 376 361 369 q 293 382 317 382 q 213 353 246 382 q 176 279 179 324 q 228 298 200 292 q 282 304 257 304 q 344 296 314 304 q 399 269 375 288 q 436 222 422 251 q 450 151 450 193 q 435 88 450 118 q 395 36 421 58 q 333 1 369 14 q 256 -12 297 -12 q 179 1 217 -12 q 113 42 142 14 q 65 114 83 69 q 47 219 47 158 q 65 328 47 279 q 113 414 82 378 q 188 470 144 450 q 286 490 232 490 q 369 478 335 490 q 419 458 404 467 l 376 361 m 176 188 q 198 111 176 136 q 253 86 219 86 q 311 104 289 86 q 333 151 333 122 q 315 194 333 176 q 260 213 297 213 q 212 204 236 213 q 176 188 188 196 z "},"₇":{"ha":500,"x_min":63,"x_max":436,"o":"m 115 1 q 158 107 132 53 q 210 211 183 161 q 263 301 238 261 q 301 367 288 342 l 63 367 l 63 476 l 436 476 l 436 365 q 396 298 421 342 q 344 203 371 254 q 293 99 317 153 q 257 1 269 46 l 115 1 z "},"₈":{"ha":500,"x_min":46,"x_max":453,"o":"m 138 253 q 67 354 67 289 q 82 413 67 388 q 122 456 97 439 q 180 481 147 472 q 249 490 213 490 q 317 482 283 490 q 376 456 350 474 q 417 413 401 439 q 432 354 432 388 q 413 296 432 322 q 361 253 394 269 q 427 209 401 238 q 453 136 453 181 q 436 71 453 99 q 392 24 419 43 q 327 -3 364 6 q 249 -12 290 -12 q 170 -3 207 -12 q 106 24 133 6 q 62 71 78 43 q 46 136 46 99 q 72 209 46 181 q 138 253 97 238 m 251 211 q 202 186 225 204 q 179 139 179 168 q 201 99 179 111 q 249 86 222 86 q 296 99 274 86 q 318 139 318 111 q 297 186 318 168 q 251 211 275 204 m 246 293 q 290 313 269 300 q 311 351 311 325 q 292 389 311 376 q 249 401 274 401 q 205 389 224 401 q 186 351 186 376 q 204 313 186 325 q 246 293 222 300 z "},"₉":{"ha":500,"x_min":49,"x_max":451,"o":"m 118 117 q 156 102 133 108 q 211 96 179 96 q 293 125 267 96 q 322 199 319 154 q 270 180 299 186 q 217 174 242 174 q 154 182 185 174 q 100 208 124 190 q 63 256 76 226 q 49 326 49 285 q 63 390 49 360 q 103 442 78 419 q 165 477 129 464 q 243 490 201 490 q 319 477 282 490 q 386 435 357 464 q 433 363 415 407 q 451 258 451 319 q 436 149 451 199 q 390 64 421 100 q 314 8 360 28 q 206 -12 268 -12 q 124 -1 158 -12 q 75 19 90 11 l 118 117 m 322 290 q 301 367 322 342 q 246 392 279 392 q 188 374 210 392 q 165 326 165 356 q 183 283 165 301 q 239 265 201 265 q 287 274 263 265 q 322 290 311 282 z "},"ℓ":{"ha":656,"x_min":81,"x_max":603,"o":"m 182 607 q 195 773 182 706 q 234 881 208 840 q 297 940 260 922 q 382 958 333 958 q 499 906 453 958 q 544 758 544 854 q 478 519 544 632 q 289 292 411 406 l 289 264 q 297 172 289 207 q 320 117 306 136 q 355 90 335 97 q 399 82 375 82 q 484 105 443 82 q 547 160 525 128 l 574 132 l 603 107 q 512 19 565 51 q 386 -12 458 -12 q 236 42 289 -12 q 183 219 183 97 q 149 194 165 206 q 115 171 133 183 q 99 201 108 186 q 81 232 90 217 q 132 270 107 250 q 182 313 157 290 l 182 607 m 289 401 q 408 573 364 485 q 451 757 451 661 q 429 851 451 824 q 376 878 407 878 q 315 832 340 878 q 289 681 289 786 l 289 401 z "},"℮":{"ha":1240,"x_min":67,"x_max":1181,"o":"m 271 192 q 283 161 271 174 q 436 51 350 90 q 624 13 522 13 q 825 58 733 13 q 983 178 917 103 l 1063 178 q 978 98 1026 133 q 874 38 931 63 q 753 -1 817 13 q 622 -15 689 -15 q 406 24 507 -15 q 229 131 304 64 q 110 290 154 199 q 67 485 67 381 q 110 680 67 589 q 229 839 154 771 q 406 947 304 907 q 622 986 507 986 q 840 947 738 986 q 1017 839 942 907 q 1137 680 1093 771 q 1181 485 1181 589 l 1181 471 l 278 471 q 271 465 271 471 l 271 192 m 969 497 q 975 507 975 497 l 975 781 q 963 814 975 799 q 810 918 896 881 q 624 956 724 956 q 438 915 525 956 q 285 808 350 875 q 274 794 278 803 q 271 775 271 785 l 271 507 q 278 497 271 497 l 969 497 z "},"⅓":{"ha":1285,"x_min":94,"x_max":1189,"o":"m 253 740 l 144 686 l 94 786 l 269 885 l 389 885 l 389 410 l 253 410 l 253 740 m 831 875 l 979 875 l 415 0 l 267 0 l 831 875 m 858 140 q 915 108 883 121 q 981 96 946 96 q 1035 110 1014 96 q 1056 153 1056 124 q 1029 200 1056 189 q 964 211 1003 211 q 928 208 946 211 q 896 201 910 206 l 874 250 l 1021 367 l 836 367 l 836 476 l 1169 476 l 1169 371 l 1063 286 q 1162 232 1135 272 q 1189 139 1189 192 q 1133 30 1189 72 q 982 -12 1076 -12 q 877 3 924 -12 q 797 46 831 19 l 858 140 z "},"⅔":{"ha":1285,"x_min":69,"x_max":1214,"o":"m 78 472 q 95 537 78 508 q 138 589 113 565 q 193 632 163 613 q 249 669 224 651 q 291 703 274 686 q 308 738 308 719 q 293 773 308 763 q 254 783 278 783 q 185 768 222 783 q 119 735 147 753 l 69 832 q 157 877 104 856 q 271 899 210 899 q 406 856 363 899 q 449 751 449 814 q 425 670 449 701 q 368 615 401 639 q 297 571 335 592 q 232 521 260 550 l 450 521 l 450 410 l 78 410 l 78 472 m 856 875 l 1004 875 l 440 0 l 292 0 l 856 875 m 883 140 q 940 108 908 121 q 1006 96 971 96 q 1060 110 1039 96 q 1081 153 1081 124 q 1054 200 1081 189 q 989 211 1028 211 q 953 208 971 211 q 921 201 935 206 l 899 250 l 1046 367 l 861 367 l 861 476 l 1194 476 l 1194 371 l 1088 286 q 1187 232 1160 272 q 1214 139 1214 192 q 1158 30 1214 72 q 1007 -12 1101 -12 q 902 3 949 -12 q 822 46 856 19 l 883 140 z "},"⅛":{"ha":1285,"x_min":85,"x_max":1199,"o":"m 243 740 l 135 686 l 85 786 l 260 885 l 379 885 l 379 410 l 243 410 l 243 740 m 821 875 l 969 875 l 406 0 l 257 0 l 821 875 m 883 253 q 813 354 813 289 q 828 413 813 388 q 868 456 843 439 q 926 481 893 472 q 994 490 958 490 q 1063 482 1029 490 q 1122 456 1096 474 q 1163 413 1147 439 q 1178 354 1178 388 q 1159 296 1178 322 q 1107 253 1140 269 q 1173 209 1147 238 q 1199 136 1199 181 q 1182 71 1199 99 q 1138 24 1165 43 q 1073 -3 1110 6 q 994 -12 1036 -12 q 916 -3 953 -12 q 851 24 879 6 q 808 71 824 43 q 792 136 792 99 q 817 209 792 181 q 883 253 843 238 m 997 211 q 948 186 971 204 q 925 139 925 168 q 947 99 925 111 q 994 86 968 86 q 1042 99 1019 86 q 1064 139 1064 111 q 1042 186 1064 168 q 997 211 1021 204 m 992 293 q 1036 313 1015 300 q 1057 351 1057 325 q 1038 389 1057 376 q 994 401 1019 401 q 951 389 969 401 q 932 351 932 376 q 950 313 932 325 q 992 293 968 300 z "},"⅜":{"ha":1285,"x_min":63,"x_max":1224,"o":"m 124 549 q 180 517 149 529 q 246 504 211 504 q 300 518 279 504 q 321 561 321 532 q 294 608 321 597 q 229 619 268 619 q 193 617 211 619 q 161 610 175 614 l 139 658 l 286 775 l 101 775 l 101 885 l 435 885 l 435 779 l 328 694 q 427 640 400 681 q 454 547 454 600 q 398 438 454 481 q 247 396 342 396 q 142 412 189 396 q 63 454 96 428 l 124 549 m 846 875 l 994 875 l 431 0 l 282 0 l 846 875 m 908 253 q 838 354 838 289 q 853 413 838 388 q 893 456 868 439 q 951 481 918 472 q 1019 490 983 490 q 1088 482 1054 490 q 1147 456 1121 474 q 1188 413 1172 439 q 1203 354 1203 388 q 1184 296 1203 322 q 1132 253 1165 269 q 1198 209 1172 238 q 1224 136 1224 181 q 1207 71 1224 99 q 1163 24 1190 43 q 1098 -3 1135 6 q 1019 -12 1061 -12 q 941 -3 978 -12 q 876 24 904 6 q 833 71 849 43 q 817 136 817 99 q 842 209 817 181 q 908 253 868 238 m 1022 211 q 973 186 996 204 q 950 139 950 168 q 972 99 950 111 q 1019 86 993 86 q 1067 99 1044 86 q 1089 139 1089 111 q 1067 186 1089 168 q 1022 211 1046 204 m 1017 293 q 1061 313 1040 300 q 1082 351 1082 325 q 1063 389 1082 376 q 1019 401 1044 401 q 976 389 994 401 q 957 351 957 376 q 975 313 957 325 q 1017 293 993 300 z "},"⅝":{"ha":1285,"x_min":63,"x_max":1222,"o":"m 122 542 q 178 511 146 522 q 244 500 210 500 q 272 502 257 500 q 299 510 286 504 q 321 528 313 517 q 329 560 329 540 q 303 603 329 589 q 243 618 276 618 q 204 615 225 618 q 164 600 183 611 l 103 649 l 156 885 l 432 885 l 432 775 l 250 775 l 235 703 q 286 710 260 710 q 350 701 319 710 q 405 674 381 692 q 443 627 429 656 q 457 561 457 599 q 442 495 457 526 q 401 441 428 464 q 335 405 374 418 q 250 392 297 392 q 147 407 197 392 q 63 447 97 422 l 122 542 m 844 875 l 993 875 l 429 0 l 281 0 l 844 875 m 907 253 q 836 354 836 289 q 851 413 836 388 q 892 456 867 439 q 949 481 917 472 q 1018 490 982 490 q 1086 482 1053 490 q 1145 456 1119 474 q 1186 413 1171 439 q 1201 354 1201 388 q 1183 296 1201 322 q 1131 253 1164 269 q 1197 209 1171 238 q 1222 136 1222 181 q 1206 71 1222 99 q 1161 24 1189 43 q 1097 -3 1133 6 q 1018 -12 1060 -12 q 940 -3 976 -12 q 875 24 903 6 q 831 71 847 43 q 815 136 815 99 q 841 209 815 181 q 907 253 867 238 m 1021 211 q 972 186 994 204 q 949 139 949 168 q 970 99 949 111 q 1018 86 992 86 q 1065 99 1043 86 q 1088 139 1088 111 q 1066 186 1088 168 q 1021 211 1044 204 m 1015 293 q 1060 313 1039 300 q 1081 351 1081 325 q 1062 389 1081 376 q 1018 401 1043 401 q 974 389 993 401 q 956 351 956 376 q 974 313 956 325 q 1015 293 992 300 z "},"⅞":{"ha":1285,"x_min":96,"x_max":1188,"o":"m 149 410 q 191 515 165 461 q 244 619 217 569 q 296 710 271 669 q 335 775 321 750 l 96 775 l 96 885 l 469 885 l 469 774 q 429 706 454 750 q 377 612 404 663 q 326 508 350 561 q 290 410 303 454 l 149 410 m 810 875 l 958 875 l 394 0 l 246 0 l 810 875 m 872 253 q 801 354 801 289 q 817 413 801 388 q 857 456 832 439 q 915 481 882 472 q 983 490 947 490 q 1051 482 1018 490 q 1110 456 1085 474 q 1151 413 1136 439 q 1167 354 1167 388 q 1148 296 1167 322 q 1096 253 1129 269 q 1162 209 1136 238 q 1188 136 1188 181 q 1171 71 1188 99 q 1126 24 1154 43 q 1062 -3 1099 6 q 983 -12 1025 -12 q 905 -3 942 -12 q 840 24 868 6 q 797 71 813 43 q 781 136 781 99 q 806 209 781 181 q 872 253 832 238 m 986 211 q 937 186 960 204 q 914 139 914 168 q 935 99 914 111 q 983 86 957 86 q 1031 99 1008 86 q 1053 139 1053 111 q 1031 186 1053 168 q 986 211 1010 204 m 981 293 q 1025 313 1004 300 q 1046 351 1046 325 q 1027 389 1046 376 q 983 401 1008 401 q 940 389 958 401 q 921 351 921 376 q 939 313 921 325 q 981 293 957 300 z "},"⅕":{"ha":1285,"x_min":96,"x_max":1188,"o":"m 254 740 l 146 686 l 96 786 l 271 885 l 390 885 l 390 410 l 254 410 l 254 740 m 832 875 l 981 875 l 417 0 l 268 0 l 832 875 m 853 133 q 908 103 876 114 q 975 92 940 92 q 1002 94 988 92 q 1030 102 1017 96 q 1051 120 1043 108 q 1060 151 1060 132 q 1033 195 1060 181 q 974 210 1007 210 q 935 206 956 210 q 894 192 914 203 l 833 240 l 886 476 l 1163 476 l 1163 367 l 981 367 l 965 294 q 1017 301 990 301 q 1081 292 1050 301 q 1135 265 1111 283 q 1174 219 1160 247 q 1188 153 1188 190 q 1173 87 1188 118 q 1131 33 1158 56 q 1066 -3 1104 10 q 981 -17 1028 -17 q 878 -1 928 -17 q 793 39 828 14 l 853 133 z "},"⅖":{"ha":1285,"x_min":71,"x_max":1213,"o":"m 79 472 q 97 537 79 508 q 139 589 114 565 q 194 632 164 613 q 250 669 225 651 q 292 703 275 686 q 310 738 310 719 q 294 773 310 763 q 256 783 279 783 q 186 768 224 783 q 121 735 149 753 l 71 832 q 158 877 106 856 q 272 899 211 899 q 407 856 364 899 q 450 751 450 814 q 426 670 450 701 q 369 615 403 639 q 299 571 336 592 q 233 521 261 550 l 451 521 l 451 410 l 79 410 l 79 472 m 857 875 l 1006 875 l 442 0 l 293 0 l 857 875 m 878 133 q 933 103 901 114 q 1000 92 965 92 q 1027 94 1013 92 q 1055 102 1042 96 q 1076 120 1068 108 q 1085 151 1085 132 q 1058 195 1085 181 q 999 210 1032 210 q 960 206 981 210 q 919 192 939 203 l 858 240 l 911 476 l 1188 476 l 1188 367 l 1006 367 l 990 294 q 1042 301 1015 301 q 1106 292 1075 301 q 1160 265 1136 283 q 1199 219 1185 247 q 1213 153 1213 190 q 1198 87 1213 118 q 1156 33 1183 56 q 1091 -3 1129 10 q 1006 -17 1053 -17 q 903 -1 953 -17 q 818 39 853 14 l 878 133 z "},"⅗":{"ha":1285,"x_min":74,"x_max":1213,"o":"m 135 549 q 191 517 160 529 q 257 504 222 504 q 311 518 290 504 q 332 561 332 532 q 306 608 332 597 q 240 619 279 619 q 204 617 222 619 q 172 610 186 614 l 150 658 l 297 775 l 113 775 l 113 885 l 446 885 l 446 779 l 339 694 q 438 640 411 681 q 465 547 465 600 q 409 438 465 481 q 258 396 353 396 q 153 412 200 396 q 74 454 107 428 l 135 549 m 857 875 l 1006 875 l 442 0 l 293 0 l 857 875 m 878 133 q 933 103 901 114 q 1000 92 965 92 q 1027 94 1013 92 q 1055 102 1042 96 q 1076 120 1068 108 q 1085 151 1085 132 q 1058 195 1085 181 q 999 210 1032 210 q 960 206 981 210 q 919 192 939 203 l 858 240 l 911 476 l 1188 476 l 1188 367 l 1006 367 l 990 294 q 1042 301 1015 301 q 1106 292 1075 301 q 1160 265 1136 283 q 1199 219 1185 247 q 1213 153 1213 190 q 1198 87 1213 118 q 1156 33 1183 56 q 1091 -3 1129 10 q 1006 -17 1053 -17 q 903 -1 953 -17 q 818 39 853 14 l 878 133 z "},"⅘":{"ha":1285,"x_min":61,"x_max":1217,"o":"m 61 592 l 300 885 l 433 885 l 433 592 l 490 592 l 490 493 l 433 493 l 433 410 l 313 410 l 313 493 l 61 493 l 61 592 m 313 592 l 313 761 l 169 592 l 313 592 m 861 875 l 1010 875 l 446 0 l 297 0 l 861 875 m 882 133 q 938 103 906 114 q 1004 92 969 92 q 1031 94 1017 92 q 1059 102 1046 96 q 1081 120 1072 108 q 1089 151 1089 132 q 1063 195 1089 181 q 1003 210 1036 210 q 964 206 985 210 q 924 192 943 203 l 863 240 l 915 476 l 1192 476 l 1192 367 l 1010 367 l 994 294 q 1046 301 1019 301 q 1110 292 1079 301 q 1165 265 1140 283 q 1203 219 1189 247 q 1217 153 1217 190 q 1202 87 1217 118 q 1160 33 1188 56 q 1095 -3 1133 10 q 1010 -17 1057 -17 q 907 -1 957 -17 q 822 39 857 14 l 882 133 z "},"⅙":{"ha":1285,"x_min":100,"x_max":1183,"o":"m 258 740 l 150 686 l 100 786 l 275 885 l 394 885 l 394 410 l 258 410 l 258 740 m 836 875 l 985 875 l 421 0 l 272 0 l 836 875 m 1110 361 q 1072 376 1094 369 q 1026 382 1050 382 q 946 353 979 382 q 910 279 913 324 q 962 298 933 292 q 1015 304 990 304 q 1078 296 1047 304 q 1132 269 1108 288 q 1169 222 1156 251 q 1183 151 1183 193 q 1169 88 1183 118 q 1128 36 1154 58 q 1067 1 1103 14 q 989 -12 1031 -12 q 913 1 950 -12 q 846 42 875 14 q 799 114 817 69 q 781 219 781 158 q 798 328 781 279 q 847 414 815 378 q 922 470 878 450 q 1019 490 965 490 q 1103 478 1068 490 q 1153 458 1138 467 l 1110 361 m 910 188 q 931 111 910 136 q 986 86 953 86 q 1044 104 1022 86 q 1067 151 1067 122 q 1049 194 1067 176 q 993 213 1031 213 q 945 204 969 213 q 910 188 921 196 z "},"⅚":{"ha":1285,"x_min":78,"x_max":1207,"o":"m 138 542 q 193 511 161 522 q 260 500 225 500 q 287 502 272 500 q 315 510 301 504 q 336 528 328 517 q 344 560 344 540 q 318 603 344 589 q 258 618 292 618 q 219 615 240 618 q 179 600 199 611 l 118 649 l 171 885 l 447 885 l 447 775 l 265 775 l 250 703 q 301 710 275 710 q 365 701 335 710 q 420 674 396 692 q 458 627 444 656 q 472 561 472 599 q 458 495 472 526 q 416 441 443 464 q 351 405 389 418 q 265 392 313 392 q 163 407 213 392 q 78 447 113 422 l 138 542 m 860 875 l 1008 875 l 444 0 l 296 0 l 860 875 m 1133 361 q 1096 376 1118 369 q 1050 382 1074 382 q 969 353 1003 382 q 933 279 936 324 q 985 298 957 292 q 1039 304 1014 304 q 1101 296 1071 304 q 1156 269 1132 288 q 1193 222 1179 251 q 1207 151 1207 193 q 1192 88 1207 118 q 1152 36 1178 58 q 1090 1 1126 14 q 1013 -12 1054 -12 q 936 1 974 -12 q 869 42 899 14 q 822 114 840 69 q 804 219 804 158 q 822 328 804 279 q 870 414 839 378 q 945 470 901 450 q 1043 490 989 490 q 1126 478 1092 490 q 1176 458 1161 467 l 1133 361 m 933 188 q 955 111 933 136 q 1010 86 976 86 q 1068 104 1046 86 q 1090 151 1090 122 q 1072 194 1090 176 q 1017 213 1054 213 q 969 204 993 213 q 933 188 944 196 z "},"":{"ha":1285,"x_min":93,"x_max":1190,"o":"m 251 740 l 143 686 l 93 786 l 268 885 l 388 885 l 388 410 l 251 410 l 251 740 m 829 875 l 978 875 l 414 0 l 265 0 l 829 875 m 869 1 q 912 107 886 53 q 965 211 938 161 q 1017 301 992 261 q 1056 367 1042 342 l 817 367 l 817 476 l 1190 476 l 1190 365 q 1150 298 1175 342 q 1098 203 1125 254 q 1047 99 1071 153 q 1011 1 1024 46 l 869 1 z "},"":{"ha":1285,"x_min":68,"x_max":1215,"o":"m 76 472 q 94 537 76 508 q 136 589 111 565 q 192 632 161 613 q 247 669 222 651 q 290 703 272 686 q 307 738 307 719 q 292 773 307 763 q 253 783 276 783 q 183 768 221 783 q 118 735 146 753 l 68 832 q 156 877 103 856 q 269 899 208 899 q 404 856 361 899 q 447 751 447 814 q 424 670 447 701 q 367 615 400 639 q 296 571 333 592 q 231 521 258 550 l 449 521 l 449 410 l 76 410 l 76 472 m 854 875 l 1003 875 l 439 0 l 290 0 l 854 875 m 894 1 q 937 107 911 53 q 990 211 963 161 q 1042 301 1017 261 q 1081 367 1067 342 l 842 367 l 842 476 l 1215 476 l 1215 365 q 1175 298 1200 342 q 1123 203 1150 254 q 1072 99 1096 153 q 1036 1 1049 46 l 894 1 z "},"":{"ha":1285,"x_min":71,"x_max":1215,"o":"m 132 549 q 188 517 157 529 q 254 504 219 504 q 308 518 288 504 q 329 561 329 532 q 303 608 329 597 q 238 619 276 619 q 201 617 219 619 q 169 610 183 614 l 147 658 l 294 775 l 110 775 l 110 885 l 443 885 l 443 779 l 336 694 q 435 640 408 681 q 463 547 463 600 q 406 438 463 481 q 256 396 350 396 q 151 412 197 396 q 71 454 104 428 l 132 549 m 854 875 l 1003 875 l 439 0 l 290 0 l 854 875 m 894 1 q 937 107 911 53 q 990 211 963 161 q 1042 301 1017 261 q 1081 367 1067 342 l 842 367 l 842 476 l 1215 476 l 1215 365 q 1175 298 1200 342 q 1123 203 1150 254 q 1072 99 1096 153 q 1036 1 1049 46 l 894 1 z "},"":{"ha":1285,"x_min":58,"x_max":1219,"o":"m 58 592 l 297 885 l 431 885 l 431 592 l 488 592 l 488 493 l 431 493 l 431 410 l 310 410 l 310 493 l 58 493 l 58 592 m 310 592 l 310 761 l 167 592 l 310 592 m 858 875 l 1007 875 l 443 0 l 294 0 l 858 875 m 899 1 q 941 107 915 53 q 994 211 967 161 q 1046 301 1021 261 q 1085 367 1071 342 l 846 367 l 846 476 l 1219 476 l 1219 365 q 1179 298 1204 342 q 1127 203 1154 254 q 1076 99 1100 153 q 1040 1 1053 46 l 899 1 z "},"":{"ha":1285,"x_min":71,"x_max":1214,"o":"m 131 542 q 186 511 154 522 q 253 500 218 500 q 280 502 265 500 q 308 510 294 504 q 329 528 321 517 q 338 560 338 540 q 311 603 338 589 q 251 618 285 618 q 213 615 233 618 q 172 600 192 611 l 111 649 l 164 885 l 440 885 l 440 775 l 258 775 l 243 703 q 294 710 268 710 q 358 701 328 710 q 413 674 389 692 q 451 627 438 656 q 465 561 465 599 q 451 495 465 526 q 409 441 436 464 q 344 405 382 418 q 258 392 306 392 q 156 407 206 392 q 71 447 106 422 l 131 542 m 853 875 l 1001 875 l 438 0 l 289 0 l 853 875 m 893 1 q 935 107 910 53 q 988 211 961 161 q 1040 301 1015 261 q 1079 367 1065 342 l 840 367 l 840 476 l 1214 476 l 1214 365 q 1174 298 1199 342 q 1122 203 1149 254 q 1071 99 1094 153 q 1035 1 1047 46 l 893 1 z "},"":{"ha":1285,"x_min":63,"x_max":1222,"o":"m 392 769 q 354 784 376 778 q 308 790 332 790 q 228 761 261 790 q 192 688 194 732 q 244 706 215 700 q 297 713 272 713 q 360 704 329 713 q 414 678 390 696 q 451 631 438 660 q 465 560 465 601 q 451 497 465 526 q 410 444 436 467 q 349 409 385 422 q 271 396 313 396 q 194 409 232 396 q 128 450 157 422 q 81 522 99 478 q 63 628 63 567 q 80 737 63 688 q 128 822 97 786 q 203 878 160 858 q 301 899 247 899 q 385 887 350 899 q 435 867 419 875 l 392 769 m 192 596 q 213 519 192 544 q 268 494 235 494 q 326 513 304 494 q 349 560 349 531 q 331 603 349 585 q 275 621 313 621 q 227 613 251 621 q 192 596 203 604 m 861 875 l 1010 875 l 446 0 l 297 0 l 861 875 m 901 1 q 944 107 918 53 q 997 211 969 161 q 1049 301 1024 261 q 1088 367 1074 342 l 849 367 l 849 476 l 1222 476 l 1222 365 q 1182 298 1207 342 q 1130 203 1157 254 q 1079 99 1103 153 q 1043 1 1056 46 l 901 1 z "},"":{"ha":1285,"x_min":86,"x_max":1199,"o":"m 244 740 l 136 686 l 86 786 l 261 885 l 381 885 l 381 410 l 244 410 l 244 740 m 822 875 l 971 875 l 407 0 l 258 0 l 822 875 m 865 117 q 903 102 881 108 q 958 96 926 96 q 1040 125 1014 96 q 1069 199 1067 154 q 1017 180 1046 186 q 964 174 989 174 q 901 182 932 174 q 847 208 871 190 q 810 256 824 226 q 796 326 796 285 q 810 390 796 360 q 851 442 825 419 q 913 477 876 464 q 990 490 949 490 q 1067 477 1029 490 q 1133 435 1104 464 q 1181 363 1163 407 q 1199 258 1199 319 q 1183 149 1199 199 q 1138 64 1168 100 q 1061 8 1107 28 q 953 -12 1015 -12 q 872 -1 906 -12 q 822 19 838 11 l 865 117 m 1069 290 q 1048 367 1069 342 q 993 392 1026 392 q 935 374 957 392 q 913 326 913 356 q 931 283 913 301 q 986 265 949 265 q 1034 274 1010 265 q 1069 290 1058 282 z "},"":{"ha":1285,"x_min":61,"x_max":1224,"o":"m 69 472 q 87 537 69 508 q 129 589 104 565 q 185 632 154 613 q 240 669 215 651 q 283 703 265 686 q 300 738 300 719 q 285 773 300 763 q 246 783 269 783 q 176 768 214 783 q 111 735 139 753 l 61 832 q 149 877 96 856 q 263 899 201 899 q 397 856 354 899 q 440 751 440 814 q 417 670 440 701 q 360 615 393 639 q 289 571 326 592 q 224 521 251 550 l 442 521 l 442 410 l 69 410 l 69 472 m 847 875 l 996 875 l 432 0 l 283 0 l 847 875 m 890 117 q 928 102 906 108 q 983 96 951 96 q 1065 125 1039 96 q 1094 199 1092 154 q 1042 180 1071 186 q 989 174 1014 174 q 926 182 957 174 q 872 208 896 190 q 835 256 849 226 q 821 326 821 285 q 835 390 821 360 q 876 442 850 419 q 938 477 901 464 q 1015 490 974 490 q 1092 477 1054 490 q 1158 435 1129 464 q 1206 363 1188 407 q 1224 258 1224 319 q 1208 149 1224 199 q 1163 64 1193 100 q 1086 8 1132 28 q 978 -12 1040 -12 q 897 -1 931 -12 q 847 19 863 11 l 890 117 m 1094 290 q 1073 367 1094 342 q 1018 392 1051 392 q 960 374 982 392 q 938 326 938 356 q 956 283 938 301 q 1011 265 974 265 q 1059 274 1035 265 q 1094 290 1083 282 z "},"":{"ha":1285,"x_min":50,"x_max":1226,"o":"m 50 592 l 289 885 l 422 885 l 422 592 l 479 592 l 479 493 l 422 493 l 422 410 l 301 410 l 301 493 l 50 493 l 50 592 m 301 592 l 301 761 l 158 592 l 301 592 m 850 875 l 999 875 l 435 0 l 286 0 l 850 875 m 893 117 q 931 102 908 108 q 986 96 954 96 q 1068 125 1042 96 q 1097 199 1094 154 q 1045 180 1074 186 q 992 174 1017 174 q 929 182 960 174 q 875 208 899 190 q 838 256 851 226 q 824 326 824 285 q 838 390 824 360 q 878 442 853 419 q 940 477 904 464 q 1018 490 976 490 q 1094 477 1057 490 q 1161 435 1132 464 q 1208 363 1190 407 q 1226 258 1226 319 q 1211 149 1226 199 q 1165 64 1196 100 q 1089 8 1135 28 q 981 -12 1043 -12 q 899 -1 933 -12 q 850 19 865 11 l 893 117 m 1097 290 q 1076 367 1097 342 q 1021 392 1054 392 q 963 374 985 392 q 940 326 940 356 q 958 283 940 301 q 1014 265 976 265 q 1062 274 1038 265 q 1097 290 1086 282 z "},"":{"ha":1285,"x_min":63,"x_max":1221,"o":"m 122 542 q 178 511 146 522 q 244 500 210 500 q 272 502 257 500 q 299 510 286 504 q 321 528 313 517 q 329 560 329 540 q 303 603 329 589 q 243 618 276 618 q 204 615 225 618 q 164 600 183 611 l 103 649 l 156 885 l 432 885 l 432 775 l 250 775 l 235 703 q 286 710 260 710 q 350 701 319 710 q 405 674 381 692 q 443 627 429 656 q 457 561 457 599 q 442 495 457 526 q 401 441 428 464 q 335 405 374 418 q 250 392 297 392 q 147 407 197 392 q 63 447 97 422 l 122 542 m 844 875 l 993 875 l 429 0 l 281 0 l 844 875 m 888 117 q 926 102 903 108 q 981 96 949 96 q 1063 125 1036 96 q 1092 199 1089 154 q 1040 180 1068 186 q 986 174 1011 174 q 924 182 954 174 q 869 208 893 190 q 832 256 846 226 q 818 326 818 285 q 833 390 818 360 q 873 442 847 419 q 935 477 899 464 q 1013 490 971 490 q 1089 477 1051 490 q 1156 435 1126 464 q 1203 363 1185 407 q 1221 258 1221 319 q 1206 149 1221 199 q 1160 64 1190 100 q 1083 8 1129 28 q 975 -12 1038 -12 q 894 -1 928 -12 q 844 19 860 11 l 888 117 m 1092 290 q 1070 367 1092 342 q 1015 392 1049 392 q 957 374 979 392 q 935 326 935 356 q 953 283 935 301 q 1008 265 971 265 q 1056 274 1032 265 q 1092 290 1081 282 z "},"":{"ha":1285,"x_min":83,"x_max":1174,"o":"m 136 410 q 178 515 153 461 q 231 619 204 569 q 283 710 258 669 q 322 775 308 750 l 83 775 l 83 885 l 457 885 l 457 774 q 417 706 442 750 q 365 612 392 663 q 314 508 338 561 q 278 410 290 454 l 136 410 m 797 875 l 946 875 l 382 0 l 233 0 l 797 875 m 840 117 q 878 102 856 108 q 933 96 901 96 q 1015 125 989 96 q 1044 199 1042 154 q 992 180 1021 186 q 939 174 964 174 q 876 182 907 174 q 822 208 846 190 q 785 256 799 226 q 771 326 771 285 q 785 390 771 360 q 826 442 800 419 q 888 477 851 464 q 965 490 924 490 q 1042 477 1004 490 q 1108 435 1079 464 q 1156 363 1138 407 q 1174 258 1174 319 q 1158 149 1174 199 q 1113 64 1143 100 q 1036 8 1082 28 q 928 -12 990 -12 q 847 -1 881 -12 q 797 19 813 11 l 840 117 m 1044 290 q 1023 367 1044 342 q 968 392 1001 392 q 910 374 932 392 q 888 326 888 356 q 906 283 888 301 q 961 265 924 265 q 1009 274 985 265 q 1044 290 1033 282 z "},"":{"ha":1285,"x_min":54,"x_max":1231,"o":"m 146 661 q 75 763 75 697 q 90 822 75 796 q 131 864 106 847 q 188 890 156 881 q 257 899 221 899 q 325 890 292 899 q 384 865 358 882 q 425 822 410 847 q 440 763 440 796 q 422 704 440 731 q 369 661 403 678 q 435 617 410 646 q 461 544 461 589 q 444 479 461 507 q 400 433 428 451 q 335 405 372 414 q 257 396 299 396 q 178 405 215 396 q 114 433 142 414 q 70 479 86 451 q 54 544 54 507 q 80 617 54 589 q 146 661 106 646 m 260 619 q 210 594 233 613 q 188 547 188 576 q 209 507 188 519 q 257 494 231 494 q 304 507 282 494 q 326 547 326 519 q 305 594 326 576 q 260 619 283 613 m 254 701 q 299 721 278 708 q 319 760 319 733 q 301 797 319 785 q 257 810 282 810 q 213 797 232 810 q 194 760 194 785 q 213 721 194 733 q 254 701 231 708 m 854 875 l 1003 875 l 439 0 l 290 0 l 854 875 m 897 117 q 935 102 913 108 q 990 96 958 96 q 1072 125 1046 96 q 1101 199 1099 154 q 1049 180 1078 186 q 996 174 1021 174 q 933 182 964 174 q 879 208 903 190 q 842 256 856 226 q 828 326 828 285 q 842 390 828 360 q 883 442 857 419 q 944 477 908 464 q 1022 490 981 490 q 1099 477 1061 490 q 1165 435 1136 464 q 1213 363 1194 407 q 1231 258 1231 319 q 1215 149 1231 199 q 1169 64 1200 100 q 1093 8 1139 28 q 985 -12 1047 -12 q 903 -1 938 -12 q 854 19 869 11 l 897 117 m 1101 290 q 1080 367 1101 342 q 1025 392 1058 392 q 967 374 989 392 q 944 326 944 356 q 963 283 944 301 q 1018 265 981 265 q 1066 274 1042 265 q 1101 290 1090 282 z "},"∂":{"ha":763,"x_min":58,"x_max":707,"o":"m 150 833 q 190 853 164 842 q 249 874 215 864 q 320 892 282 885 q 397 900 358 900 q 533 872 475 900 q 630 792 592 843 q 688 671 668 740 q 707 519 707 601 q 685 328 707 425 q 617 153 664 232 q 496 25 569 75 q 317 -25 422 -25 q 205 -7 253 -25 q 124 44 157 11 q 75 124 92 78 q 58 226 58 171 q 82 349 58 289 q 149 458 106 410 q 253 537 192 507 q 389 567 314 567 q 485 555 447 567 q 553 525 522 543 l 553 543 q 542 617 553 581 q 511 683 532 654 q 458 731 490 713 q 379 749 425 749 q 316 741 346 749 q 263 725 286 733 q 214 703 236 715 l 150 833 m 533 369 q 470 403 508 386 q 369 419 432 419 q 308 406 336 419 q 260 367 281 392 q 228 311 240 343 q 217 244 217 279 q 248 152 217 186 q 336 118 279 118 q 399 130 368 118 q 457 170 431 142 q 503 247 483 199 q 533 369 522 296 z "},"∆":{"ha":946,"x_min":40,"x_max":906,"o":"m 40 157 l 386 926 l 560 926 l 906 157 l 906 0 l 40 0 l 40 157 m 733 157 l 468 747 l 211 157 l 733 157 z "},"∏":{"ha":1057,"x_min":32,"x_max":1025,"o":"m 183 772 l 32 772 l 32 926 l 1025 926 l 1025 772 l 874 772 l 874 -169 l 700 -169 l 700 772 l 357 772 l 357 -169 l 183 -169 l 183 772 z "},"∑":{"ha":803,"x_min":60,"x_max":743,"o":"m 60 -11 l 335 390 l 60 772 l 60 926 l 743 926 l 743 772 l 260 772 l 531 390 l 258 -11 l 743 -11 l 743 -168 l 60 -168 l 60 -11 z "},"Ω":{"ha":1111,"x_min":74,"x_max":1038,"o":"m 651 0 l 651 143 q 738 199 700 164 q 801 278 775 233 q 841 375 828 324 q 854 479 854 426 q 834 601 854 543 q 775 702 814 658 q 681 771 736 746 q 556 796 626 796 q 431 771 486 796 q 337 703 375 746 q 278 601 299 660 q 258 478 258 543 q 272 374 258 425 q 311 277 285 322 q 374 197 338 232 q 460 143 411 163 l 460 0 l 74 0 l 74 144 l 247 144 q 125 299 164 207 q 86 493 86 392 q 124 680 86 596 q 226 824 161 764 q 378 918 292 885 q 564 951 465 951 q 747 918 663 951 q 892 825 831 885 q 990 682 954 765 q 1025 499 1025 599 q 985 303 1025 397 q 863 144 946 208 l 1038 144 l 1038 0 l 651 0 z "},"−":{"ha":757,"x_min":103,"x_max":656,"o":"m 103 515 l 656 515 l 656 378 l 103 378 l 103 515 z "},"∕":{"ha":271,"x_min":-218,"x_max":494,"o":"m 346 875 l 494 875 l -69 0 l -218 0 l 346 875 z "},"∙":{"ha":360,"x_min":94,"x_max":265,"o":"m 94 574 l 265 574 l 265 411 l 94 411 l 94 574 z "},"√":{"ha":822,"x_min":33,"x_max":807,"o":"m 140 389 l 33 389 l 33 543 l 243 543 l 400 201 l 646 1017 l 807 1017 l 504 0 l 332 0 l 140 389 z "},"∞":{"ha":957,"x_min":46,"x_max":911,"o":"m 479 265 q 403 197 453 226 q 290 168 353 168 q 191 187 236 168 q 114 241 146 206 q 64 326 82 276 q 46 436 46 375 q 64 547 46 497 q 114 631 82 596 q 191 685 146 667 q 290 704 236 704 q 403 674 353 704 q 479 606 453 644 q 556 674 506 644 q 669 704 607 704 q 767 685 722 704 q 843 631 811 667 q 893 547 875 596 q 911 436 911 497 q 893 326 911 375 q 843 241 875 276 q 766 187 811 206 q 667 168 721 168 q 555 198 604 168 q 479 265 506 228 m 540 436 q 592 347 556 381 q 664 314 628 314 q 741 352 714 314 q 768 436 768 390 q 741 520 768 482 q 664 558 714 558 q 592 525 628 558 q 540 436 556 492 m 417 436 q 365 525 401 492 q 293 558 329 558 q 216 520 243 558 q 189 436 189 482 q 216 352 189 390 q 293 314 243 314 q 365 347 329 314 q 417 436 401 381 z "},"∫":{"ha":749,"x_min":4,"x_max":731,"o":"m 81 7 q 128 -18 103 -8 q 181 -28 154 -28 q 217 -22 200 -28 q 250 -4 235 -17 q 281 49 276 17 q 286 131 286 81 l 286 651 q 297 776 286 724 q 343 869 307 829 q 419 927 372 903 q 528 951 465 951 q 575 949 550 951 q 626 939 600 946 q 679 919 653 932 q 731 883 706 906 l 654 775 q 606 800 632 790 q 554 810 581 810 q 517 804 535 810 q 485 786 500 799 q 453 733 458 765 q 449 651 449 701 l 449 124 q 438 5 449 57 q 392 -87 428 -47 q 316 -145 363 -121 q 207 -169 269 -169 q 160 -167 185 -169 q 108 -158 135 -165 q 56 -137 82 -150 q 4 -101 29 -124 l 81 7 z "},"≈":{"ha":757,"x_min":85,"x_max":672,"o":"m 85 576 q 117 606 97 590 q 160 635 136 622 q 211 658 183 649 q 269 667 239 667 q 325 657 301 667 q 370 635 349 647 q 415 613 392 622 q 468 603 438 603 q 514 609 493 603 q 551 624 535 615 q 579 642 567 632 q 603 658 592 651 l 672 553 q 641 522 660 539 q 599 492 622 506 q 547 469 575 478 q 489 460 519 460 q 433 470 457 460 q 388 493 410 481 q 342 516 365 506 q 289 526 319 526 q 206 506 238 526 q 154 471 175 486 l 85 576 m 85 331 q 117 360 97 344 q 160 390 136 376 q 211 412 183 403 q 269 421 239 421 q 325 411 301 421 q 370 389 349 401 q 415 367 392 376 q 468 357 438 357 q 514 363 493 357 q 551 378 535 369 q 579 396 567 386 q 603 413 592 406 l 672 307 q 641 276 660 293 q 599 246 622 260 q 547 223 575 232 q 489 214 519 214 q 433 224 457 214 q 388 247 410 235 q 342 270 365 260 q 289 281 319 281 q 206 260 238 281 q 154 225 175 240 l 85 331 z "},"≠":{"ha":757,"x_min":107,"x_max":651,"o":"m 210 260 l 107 260 l 107 397 l 288 397 l 342 493 l 107 493 l 107 631 l 418 631 l 506 785 l 606 735 l 547 631 l 651 631 l 651 493 l 469 493 l 415 397 l 651 397 l 651 260 l 338 260 l 247 99 l 147 149 l 210 260 z "},"≤":{"ha":757,"x_min":71,"x_max":633,"o":"m 78 551 l 574 811 l 633 693 l 263 501 l 633 310 l 574 192 l 78 451 l 78 551 m 71 138 l 624 138 l 624 0 l 71 0 l 71 138 z "},"≥":{"ha":757,"x_min":124,"x_max":686,"o":"m 124 310 l 494 501 l 124 693 l 183 811 l 679 551 l 679 451 l 183 192 l 124 310 m 133 138 l 686 138 l 686 0 l 133 0 l 133 138 z "},"◊":{"ha":817,"x_min":46,"x_max":771,"o":"m 46 463 l 322 926 l 494 926 l 771 463 l 494 -1 l 322 -1 l 46 463 m 596 463 l 408 790 l 221 463 l 408 135 l 596 463 z "},"ﬀ":{"ha":904,"x_min":18,"x_max":1006,"o":"m 129 518 l 18 518 l 18 651 l 129 651 l 129 686 q 154 819 129 768 q 216 900 179 871 q 293 940 253 929 q 365 951 333 951 q 458 938 410 951 q 554 883 506 924 l 478 775 q 435 800 458 790 q 389 810 411 810 q 317 779 342 810 q 292 694 292 749 l 292 651 l 561 651 l 561 692 q 583 812 561 763 q 640 892 606 861 q 718 938 675 924 q 803 951 761 951 q 901 939 847 951 q 1006 883 956 926 l 929 775 q 881 800 907 790 q 829 810 856 810 q 752 778 781 810 q 724 689 724 747 l 724 651 l 892 651 l 892 518 l 725 518 l 725 0 l 561 0 l 561 518 l 293 518 l 293 0 l 129 0 l 129 518 z "},"":{"ha":785,"x_min":18,"x_max":708,"o":"m 129 518 l 18 518 l 18 651 l 129 651 l 129 658 q 156 799 129 743 q 228 890 183 856 q 333 938 274 924 q 457 951 392 951 q 513 947 482 951 q 578 935 544 943 q 645 913 611 926 q 708 882 679 900 l 640 758 q 557 794 608 778 q 456 811 506 811 q 331 782 369 811 q 292 686 292 753 l 292 651 l 697 651 l 697 0 l 533 0 l 533 518 l 293 518 l 293 0 l 129 0 l 129 518 z "},"ﬁ":{"ha":785,"x_min":18,"x_max":708,"o":"m 129 518 l 18 518 l 18 651 l 129 651 l 129 658 q 156 799 129 743 q 228 890 183 856 q 333 938 274 924 q 457 951 392 951 q 513 947 482 951 q 578 935 544 943 q 645 913 611 926 q 708 882 679 900 l 640 758 q 557 794 608 778 q 456 811 506 811 q 331 782 369 811 q 292 686 292 753 l 292 651 l 697 651 l 697 0 l 533 0 l 533 518 l 293 518 l 293 0 l 129 0 l 129 518 z "},"":{"ha":792,"x_min":18,"x_max":711,"o":"m 129 518 l 18 518 l 18 651 l 129 651 l 129 671 q 153 805 129 751 q 220 891 178 858 q 319 938 263 924 q 438 951 375 951 q 533 943 488 951 q 615 923 579 935 q 676 899 651 911 q 711 882 701 888 l 711 0 l 547 0 l 547 794 q 497 806 529 801 q 435 811 464 811 q 323 781 354 811 q 292 674 292 750 l 292 651 l 460 651 l 460 518 l 293 518 l 293 0 l 129 0 l 129 518 z "},"ﬂ":{"ha":792,"x_min":18,"x_max":711,"o":"m 129 518 l 18 518 l 18 651 l 129 651 l 129 671 q 153 805 129 751 q 220 891 178 858 q 319 938 263 924 q 438 951 375 951 q 533 943 488 951 q 615 923 579 935 q 676 899 651 911 q 711 882 701 888 l 711 0 l 547 0 l 547 794 q 497 806 529 801 q 435 811 464 811 q 323 781 354 811 q 292 674 292 750 l 292 651 l 460 651 l 460 518 l 293 518 l 293 0 l 129 0 l 129 518 z "},"ﬃ":{"ha":1217,"x_min":18,"x_max":1140,"o":"m 129 518 l 18 518 l 18 651 l 129 651 l 129 686 q 154 819 129 768 q 216 900 179 871 q 293 940 253 929 q 365 951 333 951 q 458 938 410 951 q 554 883 506 924 l 478 775 q 435 800 458 790 q 389 810 411 810 q 317 779 342 810 q 292 694 292 749 l 292 651 l 561 651 l 561 658 q 588 799 561 743 q 658 890 614 856 q 760 938 703 924 q 879 951 818 951 q 1009 935 938 951 q 1140 882 1081 918 l 1072 758 q 989 794 1040 778 q 888 811 938 811 q 763 779 801 811 q 724 665 724 747 l 724 651 l 1129 651 l 1129 0 l 965 0 l 965 518 l 725 518 l 725 0 l 561 0 l 561 518 l 293 518 l 293 0 l 129 0 l 129 518 z "},"ﬄ":{"ha":1224,"x_min":18,"x_max":1143,"o":"m 129 518 l 18 518 l 18 651 l 129 651 l 129 686 q 154 819 129 768 q 216 900 179 871 q 293 940 253 929 q 365 951 333 951 q 458 938 410 951 q 554 883 506 924 l 478 775 q 435 800 458 790 q 389 810 411 810 q 317 779 342 810 q 292 694 292 749 l 292 651 l 561 651 l 561 671 q 585 805 561 751 q 652 891 610 858 q 751 938 694 924 q 869 951 807 951 q 965 943 919 951 q 1047 923 1011 935 q 1108 899 1083 911 q 1143 882 1133 888 l 1143 0 l 979 0 l 979 794 q 928 806 961 801 q 867 811 896 811 q 755 781 786 811 q 724 674 724 750 l 724 651 l 892 651 l 892 518 l 725 518 l 725 0 l 561 0 l 561 518 l 293 518 l 293 0 l 129 0 l 129 518 z "},"":{"ha":804,"x_min":60,"x_max":744,"o":"m 401 -22 q 253 13 317 -22 q 146 109 189 47 q 81 258 103 171 q 60 449 60 344 q 81 633 60 550 q 146 776 103 717 q 253 867 189 835 q 403 900 318 900 q 551 867 488 900 q 658 776 615 835 q 723 633 701 717 q 744 449 744 550 q 723 258 744 344 q 658 109 701 171 q 551 13 615 47 q 401 -22 486 -22 m 403 128 q 478 153 446 128 q 533 221 511 178 q 565 322 554 264 q 576 449 576 381 q 565 569 576 514 q 532 665 554 625 q 477 726 510 704 q 401 749 444 749 q 326 726 358 749 q 272 665 293 704 q 239 569 250 625 q 228 449 228 514 q 239 322 228 381 q 272 221 250 264 q 327 153 294 178 q 403 128 360 128 z "},"":{"ha":608,"x_min":24,"x_max":568,"o":"m 110 143 l 260 143 l 260 696 l 92 607 l 24 735 l 281 875 l 424 875 l 424 143 l 568 143 l 568 0 l 110 0 l 110 143 z "},"":{"ha":700,"x_min":44,"x_max":635,"o":"m 72 110 q 92 218 72 169 q 144 308 113 267 q 215 383 176 349 q 293 451 254 418 q 362 508 332 485 q 413 553 392 532 q 444 597 433 575 q 454 649 454 619 q 448 686 454 667 q 427 720 442 706 q 389 744 413 735 q 329 754 365 754 q 272 744 297 754 q 226 719 246 735 q 191 686 206 704 q 167 651 176 668 l 44 739 q 86 795 61 767 q 147 847 111 824 q 232 885 183 871 q 343 900 281 900 q 472 880 418 900 q 561 826 526 860 q 613 751 596 793 q 629 664 629 708 q 614 576 629 617 q 574 501 599 536 q 517 436 549 467 q 451 378 485 406 q 376 317 411 344 q 314 263 340 289 q 272 209 288 236 q 257 149 257 182 l 635 149 l 635 0 l 72 0 l 72 110 z "},"":{"ha":714,"x_min":17,"x_max":635,"o":"m 111 192 q 194 138 149 158 q 297 118 239 118 q 417 159 372 118 q 461 267 461 200 q 453 322 461 296 q 428 366 446 347 q 381 396 410 385 q 310 407 351 407 q 269 403 290 407 q 232 394 249 399 l 183 472 l 407 724 l 79 724 l 79 874 l 603 874 l 603 749 l 408 521 q 580 438 525 507 q 635 265 635 368 q 609 143 635 197 q 538 51 583 89 q 431 -6 492 14 q 299 -25 369 -25 q 135 3 204 -25 q 17 76 65 32 l 111 192 z "},"":{"ha":742,"x_min":54,"x_max":690,"o":"m 54 306 l 436 875 l 600 875 l 600 307 l 690 307 l 690 168 l 600 168 l 600 0 l 443 0 l 443 168 l 54 168 l 54 306 m 443 307 l 443 644 l 213 307 l 443 307 z "},"":{"ha":718,"x_min":17,"x_max":633,"o":"m 108 193 q 189 140 146 160 q 299 121 232 121 q 374 134 343 121 q 426 170 406 147 q 455 222 446 193 q 464 283 464 251 q 456 330 464 304 q 429 378 449 356 q 376 415 410 400 q 290 431 342 431 q 215 422 243 431 q 164 404 188 413 l 81 468 l 168 874 l 622 874 l 622 721 l 286 721 l 251 553 q 285 561 261 557 q 342 565 308 565 q 459 546 406 565 q 551 491 513 526 q 612 404 590 456 q 633 290 633 353 q 615 172 633 229 q 556 72 597 115 q 449 1 515 28 q 289 -25 383 -25 q 131 3 196 -25 q 17 75 65 31 l 108 193 z "},"":{"ha":749,"x_min":69,"x_max":690,"o":"m 606 713 q 564 733 588 724 q 517 749 544 742 q 456 756 489 756 q 365 734 406 756 q 296 677 325 713 q 251 597 267 642 q 235 506 235 553 q 308 545 265 524 q 418 567 351 567 q 528 547 478 567 q 615 491 579 528 q 670 401 650 454 q 690 281 690 349 q 671 164 690 219 q 614 67 651 108 q 520 0 576 25 q 392 -25 464 -25 q 263 0 322 -25 q 161 78 204 25 q 94 212 118 131 q 69 406 69 293 q 94 605 69 514 q 168 762 119 696 q 289 864 217 828 q 457 900 361 900 q 529 894 496 900 q 591 878 563 888 q 641 860 619 869 q 676 842 663 850 l 606 713 m 233 374 q 246 251 233 300 q 280 172 258 201 q 331 131 301 143 q 392 118 360 118 q 497 165 457 118 q 536 286 536 211 q 499 388 536 350 q 403 426 463 426 q 299 408 340 426 q 233 374 258 390 z "},"":{"ha":658,"x_min":36,"x_max":603,"o":"m 122 0 q 193 201 151 93 q 279 409 235 308 q 365 593 324 510 q 435 721 407 676 l 36 721 l 36 875 l 603 875 l 603 728 q 559 649 585 699 q 504 535 533 599 q 445 401 475 472 q 388 258 415 329 q 337 119 360 186 q 300 0 314 53 l 122 0 z "}}}
